G75*
%MOIN*%
%OFA0B0*%
%FSLAX25Y25*%
%IPPOS*%
%LPD*%
%AMOC8*
5,1,8,0,0,1.08239X$1,22.5*
%
%ADD10R,0.03937X0.04331*%
%ADD11R,0.00984X0.03445*%
%ADD12R,0.04724X0.02362*%
%ADD13R,0.04331X0.03937*%
%ADD14R,0.04134X0.05807*%
%ADD15C,0.01181*%
%ADD16R,0.07874X0.04724*%
%ADD17R,0.05315X0.02362*%
D10*
X0040934Y0036714D03*
X0040934Y0043406D03*
X0040934Y0051714D03*
X0040934Y0058406D03*
X0035934Y0076714D03*
X0030934Y0076714D03*
X0030934Y0083406D03*
X0035934Y0083406D03*
X0075934Y0083406D03*
X0080934Y0083406D03*
X0080934Y0076714D03*
X0075934Y0076714D03*
X0071184Y0042656D03*
X0071184Y0035964D03*
X0142934Y0036714D03*
X0142934Y0043406D03*
X0142934Y0051714D03*
X0142934Y0058406D03*
X0137934Y0076714D03*
X0132934Y0076714D03*
X0132934Y0083406D03*
X0137934Y0083406D03*
X0177934Y0083406D03*
X0182934Y0083406D03*
X0182934Y0076714D03*
X0177934Y0076714D03*
X0173184Y0042656D03*
X0173184Y0035964D03*
X0244934Y0036714D03*
X0244934Y0043406D03*
X0244934Y0051714D03*
X0244934Y0058406D03*
X0239934Y0076714D03*
X0234934Y0076714D03*
X0234934Y0083406D03*
X0239934Y0083406D03*
X0279934Y0083406D03*
X0284934Y0083406D03*
X0284934Y0076714D03*
X0279934Y0076714D03*
X0275184Y0042656D03*
X0275184Y0035964D03*
X0275184Y0137964D03*
X0275184Y0144656D03*
X0244934Y0145406D03*
X0244934Y0138714D03*
X0244934Y0153714D03*
X0244934Y0160406D03*
X0239934Y0178714D03*
X0234934Y0178714D03*
X0234934Y0185406D03*
X0239934Y0185406D03*
X0279934Y0185406D03*
X0284934Y0185406D03*
X0284934Y0178714D03*
X0279934Y0178714D03*
X0182934Y0178714D03*
X0177934Y0178714D03*
X0177934Y0185406D03*
X0182934Y0185406D03*
X0137934Y0185406D03*
X0132934Y0185406D03*
X0132934Y0178714D03*
X0137934Y0178714D03*
X0142934Y0160406D03*
X0142934Y0153714D03*
X0142934Y0145406D03*
X0142934Y0138714D03*
X0173184Y0137964D03*
X0173184Y0144656D03*
X0080934Y0178714D03*
X0075934Y0178714D03*
X0075934Y0185406D03*
X0080934Y0185406D03*
X0040934Y0160406D03*
X0040934Y0153714D03*
X0040934Y0145406D03*
X0040934Y0138714D03*
X0071184Y0137964D03*
X0071184Y0144656D03*
X0035934Y0178714D03*
X0030934Y0178714D03*
X0030934Y0185406D03*
X0035934Y0185406D03*
X0071184Y0239964D03*
X0071184Y0246656D03*
X0040934Y0247406D03*
X0040934Y0240714D03*
X0040934Y0255714D03*
X0040934Y0262406D03*
X0035934Y0280714D03*
X0030934Y0280714D03*
X0030934Y0287406D03*
X0035934Y0287406D03*
X0075934Y0287406D03*
X0080934Y0287406D03*
X0080934Y0280714D03*
X0075934Y0280714D03*
X0132934Y0280714D03*
X0137934Y0280714D03*
X0137934Y0287406D03*
X0132934Y0287406D03*
X0142934Y0262406D03*
X0142934Y0255714D03*
X0142934Y0247406D03*
X0142934Y0240714D03*
X0173184Y0239964D03*
X0173184Y0246656D03*
X0177934Y0280714D03*
X0182934Y0280714D03*
X0182934Y0287406D03*
X0177934Y0287406D03*
X0234934Y0287406D03*
X0239934Y0287406D03*
X0239934Y0280714D03*
X0234934Y0280714D03*
X0244934Y0262406D03*
X0244934Y0255714D03*
X0244934Y0247406D03*
X0244934Y0240714D03*
X0275184Y0239964D03*
X0275184Y0246656D03*
X0279934Y0280714D03*
X0284934Y0280714D03*
X0284934Y0287406D03*
X0279934Y0287406D03*
D11*
X0228871Y0292180D03*
X0226902Y0292180D03*
X0224934Y0292180D03*
X0222965Y0292180D03*
X0220997Y0292180D03*
X0220997Y0275940D03*
X0222965Y0275940D03*
X0224934Y0275940D03*
X0226902Y0275940D03*
X0228871Y0275940D03*
X0126871Y0275940D03*
X0124902Y0275940D03*
X0122934Y0275940D03*
X0120965Y0275940D03*
X0118997Y0275940D03*
X0118997Y0292180D03*
X0120965Y0292180D03*
X0122934Y0292180D03*
X0124902Y0292180D03*
X0126871Y0292180D03*
X0024871Y0292180D03*
X0022902Y0292180D03*
X0020934Y0292180D03*
X0018965Y0292180D03*
X0016997Y0292180D03*
X0016997Y0275940D03*
X0018965Y0275940D03*
X0020934Y0275940D03*
X0022902Y0275940D03*
X0024871Y0275940D03*
X0024871Y0190180D03*
X0022902Y0190180D03*
X0020934Y0190180D03*
X0018965Y0190180D03*
X0016997Y0190180D03*
X0016997Y0173940D03*
X0018965Y0173940D03*
X0020934Y0173940D03*
X0022902Y0173940D03*
X0024871Y0173940D03*
X0118997Y0173940D03*
X0120965Y0173940D03*
X0122934Y0173940D03*
X0124902Y0173940D03*
X0126871Y0173940D03*
X0126871Y0190180D03*
X0124902Y0190180D03*
X0122934Y0190180D03*
X0120965Y0190180D03*
X0118997Y0190180D03*
X0220997Y0190180D03*
X0222965Y0190180D03*
X0224934Y0190180D03*
X0226902Y0190180D03*
X0228871Y0190180D03*
X0228871Y0173940D03*
X0226902Y0173940D03*
X0224934Y0173940D03*
X0222965Y0173940D03*
X0220997Y0173940D03*
X0220997Y0088180D03*
X0222965Y0088180D03*
X0224934Y0088180D03*
X0226902Y0088180D03*
X0228871Y0088180D03*
X0228871Y0071940D03*
X0226902Y0071940D03*
X0224934Y0071940D03*
X0222965Y0071940D03*
X0220997Y0071940D03*
X0126871Y0071940D03*
X0124902Y0071940D03*
X0122934Y0071940D03*
X0120965Y0071940D03*
X0118997Y0071940D03*
X0118997Y0088180D03*
X0120965Y0088180D03*
X0122934Y0088180D03*
X0124902Y0088180D03*
X0126871Y0088180D03*
X0024871Y0088180D03*
X0022902Y0088180D03*
X0020934Y0088180D03*
X0018965Y0088180D03*
X0016997Y0088180D03*
X0016997Y0071940D03*
X0018965Y0071940D03*
X0020934Y0071940D03*
X0022902Y0071940D03*
X0024871Y0071940D03*
D12*
X0044910Y0072560D03*
X0044910Y0077560D03*
X0044910Y0082560D03*
X0044910Y0087560D03*
X0066957Y0087560D03*
X0066957Y0082560D03*
X0066957Y0077560D03*
X0066957Y0072560D03*
X0146910Y0072560D03*
X0146910Y0077560D03*
X0146910Y0082560D03*
X0146910Y0087560D03*
X0168957Y0087560D03*
X0168957Y0082560D03*
X0168957Y0077560D03*
X0168957Y0072560D03*
X0248910Y0072560D03*
X0248910Y0077560D03*
X0248910Y0082560D03*
X0248910Y0087560D03*
X0270957Y0087560D03*
X0270957Y0082560D03*
X0270957Y0077560D03*
X0270957Y0072560D03*
X0270957Y0174560D03*
X0270957Y0179560D03*
X0270957Y0184560D03*
X0270957Y0189560D03*
X0248910Y0189560D03*
X0248910Y0184560D03*
X0248910Y0179560D03*
X0248910Y0174560D03*
X0168957Y0174560D03*
X0168957Y0179560D03*
X0168957Y0184560D03*
X0168957Y0189560D03*
X0146910Y0189560D03*
X0146910Y0184560D03*
X0146910Y0179560D03*
X0146910Y0174560D03*
X0066957Y0174560D03*
X0066957Y0179560D03*
X0066957Y0184560D03*
X0066957Y0189560D03*
X0044910Y0189560D03*
X0044910Y0184560D03*
X0044910Y0179560D03*
X0044910Y0174560D03*
X0044910Y0276560D03*
X0044910Y0281560D03*
X0044910Y0286560D03*
X0044910Y0291560D03*
X0066957Y0291560D03*
X0066957Y0286560D03*
X0066957Y0281560D03*
X0066957Y0276560D03*
X0146910Y0276560D03*
X0146910Y0281560D03*
X0146910Y0286560D03*
X0146910Y0291560D03*
X0168957Y0291560D03*
X0168957Y0286560D03*
X0168957Y0281560D03*
X0168957Y0276560D03*
X0248910Y0276560D03*
X0248910Y0281560D03*
X0248910Y0286560D03*
X0248910Y0291560D03*
X0270957Y0291560D03*
X0270957Y0286560D03*
X0270957Y0281560D03*
X0270957Y0276560D03*
D13*
X0296587Y0279060D03*
X0303280Y0279060D03*
X0201280Y0279060D03*
X0194587Y0279060D03*
X0099280Y0279060D03*
X0092587Y0279060D03*
X0092587Y0177060D03*
X0099280Y0177060D03*
X0194587Y0177060D03*
X0201280Y0177060D03*
X0296587Y0177060D03*
X0303280Y0177060D03*
X0303280Y0075060D03*
X0296587Y0075060D03*
X0201280Y0075060D03*
X0194587Y0075060D03*
X0099280Y0075060D03*
X0092587Y0075060D03*
D14*
X0060363Y0061408D03*
X0051505Y0061408D03*
X0051505Y0048712D03*
X0060363Y0048712D03*
X0153505Y0048712D03*
X0162363Y0048712D03*
X0162363Y0061408D03*
X0153505Y0061408D03*
X0255505Y0061408D03*
X0264363Y0061408D03*
X0264363Y0048712D03*
X0255505Y0048712D03*
X0255505Y0150712D03*
X0264363Y0150712D03*
X0264363Y0163408D03*
X0255505Y0163408D03*
X0162363Y0163408D03*
X0153505Y0163408D03*
X0153505Y0150712D03*
X0162363Y0150712D03*
X0060363Y0150712D03*
X0051505Y0150712D03*
X0051505Y0163408D03*
X0060363Y0163408D03*
X0060363Y0252712D03*
X0051505Y0252712D03*
X0051505Y0265408D03*
X0060363Y0265408D03*
X0153505Y0265408D03*
X0162363Y0265408D03*
X0162363Y0252712D03*
X0153505Y0252712D03*
X0255505Y0252712D03*
X0264363Y0252712D03*
X0264363Y0265408D03*
X0255505Y0265408D03*
D15*
X0297859Y0282682D02*
X0297859Y0285438D01*
X0297859Y0282682D02*
X0295103Y0282682D01*
X0295103Y0285438D01*
X0297859Y0285438D01*
X0297859Y0283804D02*
X0295103Y0283804D01*
X0295103Y0284926D02*
X0297859Y0284926D01*
X0304764Y0285438D02*
X0304764Y0282682D01*
X0302008Y0282682D01*
X0302008Y0285438D01*
X0304764Y0285438D01*
X0304764Y0283804D02*
X0302008Y0283804D01*
X0302008Y0284926D02*
X0304764Y0284926D01*
X0202764Y0285438D02*
X0202764Y0282682D01*
X0200008Y0282682D01*
X0200008Y0285438D01*
X0202764Y0285438D01*
X0202764Y0283804D02*
X0200008Y0283804D01*
X0200008Y0284926D02*
X0202764Y0284926D01*
X0195859Y0285438D02*
X0195859Y0282682D01*
X0193103Y0282682D01*
X0193103Y0285438D01*
X0195859Y0285438D01*
X0195859Y0283804D02*
X0193103Y0283804D01*
X0193103Y0284926D02*
X0195859Y0284926D01*
X0100764Y0285438D02*
X0100764Y0282682D01*
X0098008Y0282682D01*
X0098008Y0285438D01*
X0100764Y0285438D01*
X0100764Y0283804D02*
X0098008Y0283804D01*
X0098008Y0284926D02*
X0100764Y0284926D01*
X0093859Y0285438D02*
X0093859Y0282682D01*
X0091103Y0282682D01*
X0091103Y0285438D01*
X0093859Y0285438D01*
X0093859Y0283804D02*
X0091103Y0283804D01*
X0091103Y0284926D02*
X0093859Y0284926D01*
X0093859Y0183438D02*
X0093859Y0180682D01*
X0091103Y0180682D01*
X0091103Y0183438D01*
X0093859Y0183438D01*
X0093859Y0181804D02*
X0091103Y0181804D01*
X0091103Y0182926D02*
X0093859Y0182926D01*
X0100764Y0183438D02*
X0100764Y0180682D01*
X0098008Y0180682D01*
X0098008Y0183438D01*
X0100764Y0183438D01*
X0100764Y0181804D02*
X0098008Y0181804D01*
X0098008Y0182926D02*
X0100764Y0182926D01*
X0195859Y0183438D02*
X0195859Y0180682D01*
X0193103Y0180682D01*
X0193103Y0183438D01*
X0195859Y0183438D01*
X0195859Y0181804D02*
X0193103Y0181804D01*
X0193103Y0182926D02*
X0195859Y0182926D01*
X0202764Y0183438D02*
X0202764Y0180682D01*
X0200008Y0180682D01*
X0200008Y0183438D01*
X0202764Y0183438D01*
X0202764Y0181804D02*
X0200008Y0181804D01*
X0200008Y0182926D02*
X0202764Y0182926D01*
X0297859Y0183438D02*
X0297859Y0180682D01*
X0295103Y0180682D01*
X0295103Y0183438D01*
X0297859Y0183438D01*
X0297859Y0181804D02*
X0295103Y0181804D01*
X0295103Y0182926D02*
X0297859Y0182926D01*
X0304764Y0183438D02*
X0304764Y0180682D01*
X0302008Y0180682D01*
X0302008Y0183438D01*
X0304764Y0183438D01*
X0304764Y0181804D02*
X0302008Y0181804D01*
X0302008Y0182926D02*
X0304764Y0182926D01*
X0304764Y0081438D02*
X0304764Y0078682D01*
X0302008Y0078682D01*
X0302008Y0081438D01*
X0304764Y0081438D01*
X0304764Y0079804D02*
X0302008Y0079804D01*
X0302008Y0080926D02*
X0304764Y0080926D01*
X0297859Y0081438D02*
X0297859Y0078682D01*
X0295103Y0078682D01*
X0295103Y0081438D01*
X0297859Y0081438D01*
X0297859Y0079804D02*
X0295103Y0079804D01*
X0295103Y0080926D02*
X0297859Y0080926D01*
X0202764Y0081438D02*
X0202764Y0078682D01*
X0200008Y0078682D01*
X0200008Y0081438D01*
X0202764Y0081438D01*
X0202764Y0079804D02*
X0200008Y0079804D01*
X0200008Y0080926D02*
X0202764Y0080926D01*
X0195859Y0081438D02*
X0195859Y0078682D01*
X0193103Y0078682D01*
X0193103Y0081438D01*
X0195859Y0081438D01*
X0195859Y0079804D02*
X0193103Y0079804D01*
X0193103Y0080926D02*
X0195859Y0080926D01*
X0100764Y0081438D02*
X0100764Y0078682D01*
X0098008Y0078682D01*
X0098008Y0081438D01*
X0100764Y0081438D01*
X0100764Y0079804D02*
X0098008Y0079804D01*
X0098008Y0080926D02*
X0100764Y0080926D01*
X0093859Y0081438D02*
X0093859Y0078682D01*
X0091103Y0078682D01*
X0091103Y0081438D01*
X0093859Y0081438D01*
X0093859Y0079804D02*
X0091103Y0079804D01*
X0091103Y0080926D02*
X0093859Y0080926D01*
D16*
X0100402Y0066084D03*
X0113465Y0066084D03*
X0113465Y0044036D03*
X0100402Y0044036D03*
X0011465Y0044036D03*
X0011465Y0066084D03*
X0011465Y0146036D03*
X0011465Y0168084D03*
X0100402Y0168084D03*
X0113465Y0168084D03*
X0113465Y0146036D03*
X0100402Y0146036D03*
X0202402Y0146036D03*
X0215465Y0146036D03*
X0215465Y0168084D03*
X0202402Y0168084D03*
X0304402Y0168084D03*
X0304402Y0146036D03*
X0304402Y0066084D03*
X0304402Y0044036D03*
X0215465Y0044036D03*
X0202402Y0044036D03*
X0202402Y0066084D03*
X0215465Y0066084D03*
X0215465Y0248036D03*
X0202402Y0248036D03*
X0202402Y0270084D03*
X0215465Y0270084D03*
X0304402Y0270084D03*
X0304402Y0248036D03*
X0113465Y0248036D03*
X0100402Y0248036D03*
X0100402Y0270084D03*
X0113465Y0270084D03*
X0011465Y0270084D03*
X0011465Y0248036D03*
D17*
X0025934Y0253154D03*
X0025934Y0257091D03*
X0025934Y0261028D03*
X0025934Y0264966D03*
X0085934Y0264966D03*
X0085934Y0261028D03*
X0085934Y0257091D03*
X0085934Y0253154D03*
X0127934Y0253154D03*
X0127934Y0257091D03*
X0127934Y0261028D03*
X0127934Y0264966D03*
X0187934Y0264966D03*
X0187934Y0261028D03*
X0187934Y0257091D03*
X0187934Y0253154D03*
X0229934Y0253154D03*
X0229934Y0257091D03*
X0229934Y0261028D03*
X0229934Y0264966D03*
X0289934Y0264966D03*
X0289934Y0261028D03*
X0289934Y0257091D03*
X0289934Y0253154D03*
X0289934Y0162966D03*
X0289934Y0159028D03*
X0289934Y0155091D03*
X0289934Y0151154D03*
X0229934Y0151154D03*
X0229934Y0155091D03*
X0229934Y0159028D03*
X0229934Y0162966D03*
X0187934Y0162966D03*
X0187934Y0159028D03*
X0187934Y0155091D03*
X0187934Y0151154D03*
X0127934Y0151154D03*
X0127934Y0155091D03*
X0127934Y0159028D03*
X0127934Y0162966D03*
X0085934Y0162966D03*
X0085934Y0159028D03*
X0085934Y0155091D03*
X0085934Y0151154D03*
X0025934Y0151154D03*
X0025934Y0155091D03*
X0025934Y0159028D03*
X0025934Y0162966D03*
X0025934Y0060966D03*
X0025934Y0057028D03*
X0025934Y0053091D03*
X0025934Y0049154D03*
X0085934Y0049154D03*
X0085934Y0053091D03*
X0085934Y0057028D03*
X0085934Y0060966D03*
X0127934Y0060966D03*
X0127934Y0057028D03*
X0127934Y0053091D03*
X0127934Y0049154D03*
X0187934Y0049154D03*
X0187934Y0053091D03*
X0187934Y0057028D03*
X0187934Y0060966D03*
X0229934Y0060966D03*
X0229934Y0057028D03*
X0229934Y0053091D03*
X0229934Y0049154D03*
X0289934Y0049154D03*
X0289934Y0053091D03*
X0289934Y0057028D03*
X0289934Y0060966D03*
M02*
