G75*
%MOIN*%
%OFA0B0*%
%FSLAX25Y25*%
%IPPOS*%
%LPD*%
%AMOC8*
5,1,8,0,0,1.08239X$1,22.5*
%
%ADD10R,0.04737X0.05131*%
%ADD11R,0.01575X0.04331*%
%ADD12R,0.05524X0.03162*%
%ADD13C,0.03300*%
%ADD14R,0.05131X0.04737*%
%ADD15R,0.04934X0.06607*%
%ADD16C,0.12800*%
%ADD17C,0.01990*%
%ADD18R,0.08674X0.05524*%
%ADD19R,0.06115X0.03162*%
%ADD20C,0.08200*%
D10*
X0040934Y0036714D03*
X0040934Y0043406D03*
X0040934Y0051714D03*
X0040934Y0058406D03*
X0035934Y0076714D03*
X0030934Y0076714D03*
X0030934Y0083406D03*
X0035934Y0083406D03*
X0075934Y0083406D03*
X0080934Y0083406D03*
X0080934Y0076714D03*
X0075934Y0076714D03*
X0071184Y0042656D03*
X0071184Y0035964D03*
X0142934Y0036714D03*
X0142934Y0043406D03*
X0142934Y0051714D03*
X0142934Y0058406D03*
X0137934Y0076714D03*
X0132934Y0076714D03*
X0132934Y0083406D03*
X0137934Y0083406D03*
X0177934Y0083406D03*
X0182934Y0083406D03*
X0182934Y0076714D03*
X0177934Y0076714D03*
X0173184Y0042656D03*
X0173184Y0035964D03*
X0244934Y0036714D03*
X0244934Y0043406D03*
X0244934Y0051714D03*
X0244934Y0058406D03*
X0239934Y0076714D03*
X0234934Y0076714D03*
X0234934Y0083406D03*
X0239934Y0083406D03*
X0279934Y0083406D03*
X0284934Y0083406D03*
X0284934Y0076714D03*
X0279934Y0076714D03*
X0275184Y0042656D03*
X0275184Y0035964D03*
X0275184Y0137964D03*
X0275184Y0144656D03*
X0244934Y0145406D03*
X0244934Y0138714D03*
X0244934Y0153714D03*
X0244934Y0160406D03*
X0239934Y0178714D03*
X0234934Y0178714D03*
X0234934Y0185406D03*
X0239934Y0185406D03*
X0279934Y0185406D03*
X0284934Y0185406D03*
X0284934Y0178714D03*
X0279934Y0178714D03*
X0182934Y0178714D03*
X0177934Y0178714D03*
X0177934Y0185406D03*
X0182934Y0185406D03*
X0137934Y0185406D03*
X0132934Y0185406D03*
X0132934Y0178714D03*
X0137934Y0178714D03*
X0142934Y0160406D03*
X0142934Y0153714D03*
X0142934Y0145406D03*
X0142934Y0138714D03*
X0173184Y0137964D03*
X0173184Y0144656D03*
X0080934Y0178714D03*
X0075934Y0178714D03*
X0075934Y0185406D03*
X0080934Y0185406D03*
X0040934Y0160406D03*
X0040934Y0153714D03*
X0040934Y0145406D03*
X0040934Y0138714D03*
X0071184Y0137964D03*
X0071184Y0144656D03*
X0035934Y0178714D03*
X0030934Y0178714D03*
X0030934Y0185406D03*
X0035934Y0185406D03*
X0071184Y0239964D03*
X0071184Y0246656D03*
X0040934Y0247406D03*
X0040934Y0240714D03*
X0040934Y0255714D03*
X0040934Y0262406D03*
X0035934Y0280714D03*
X0030934Y0280714D03*
X0030934Y0287406D03*
X0035934Y0287406D03*
X0075934Y0287406D03*
X0080934Y0287406D03*
X0080934Y0280714D03*
X0075934Y0280714D03*
X0132934Y0280714D03*
X0137934Y0280714D03*
X0137934Y0287406D03*
X0132934Y0287406D03*
X0142934Y0262406D03*
X0142934Y0255714D03*
X0142934Y0247406D03*
X0142934Y0240714D03*
X0173184Y0239964D03*
X0173184Y0246656D03*
X0177934Y0280714D03*
X0182934Y0280714D03*
X0182934Y0287406D03*
X0177934Y0287406D03*
X0234934Y0287406D03*
X0239934Y0287406D03*
X0239934Y0280714D03*
X0234934Y0280714D03*
X0244934Y0262406D03*
X0244934Y0255714D03*
X0244934Y0247406D03*
X0244934Y0240714D03*
X0275184Y0239964D03*
X0275184Y0246656D03*
X0279934Y0280714D03*
X0284934Y0280714D03*
X0284934Y0287406D03*
X0279934Y0287406D03*
D11*
X0228871Y0292131D03*
X0226902Y0292131D03*
X0224934Y0292131D03*
X0222965Y0292131D03*
X0220997Y0292131D03*
X0220997Y0275989D03*
X0222965Y0275989D03*
X0224934Y0275989D03*
X0226902Y0275989D03*
X0228871Y0275989D03*
X0126871Y0275989D03*
X0124902Y0275989D03*
X0122934Y0275989D03*
X0120965Y0275989D03*
X0118997Y0275989D03*
X0118997Y0292131D03*
X0120965Y0292131D03*
X0122934Y0292131D03*
X0124902Y0292131D03*
X0126871Y0292131D03*
X0024871Y0292131D03*
X0022902Y0292131D03*
X0020934Y0292131D03*
X0018965Y0292131D03*
X0016997Y0292131D03*
X0016997Y0275989D03*
X0018965Y0275989D03*
X0020934Y0275989D03*
X0022902Y0275989D03*
X0024871Y0275989D03*
X0024871Y0190131D03*
X0022902Y0190131D03*
X0020934Y0190131D03*
X0018965Y0190131D03*
X0016997Y0190131D03*
X0016997Y0173989D03*
X0018965Y0173989D03*
X0020934Y0173989D03*
X0022902Y0173989D03*
X0024871Y0173989D03*
X0118997Y0173989D03*
X0120965Y0173989D03*
X0122934Y0173989D03*
X0124902Y0173989D03*
X0126871Y0173989D03*
X0126871Y0190131D03*
X0124902Y0190131D03*
X0122934Y0190131D03*
X0120965Y0190131D03*
X0118997Y0190131D03*
X0220997Y0190131D03*
X0222965Y0190131D03*
X0224934Y0190131D03*
X0226902Y0190131D03*
X0228871Y0190131D03*
X0228871Y0173989D03*
X0226902Y0173989D03*
X0224934Y0173989D03*
X0222965Y0173989D03*
X0220997Y0173989D03*
X0220997Y0088131D03*
X0222965Y0088131D03*
X0224934Y0088131D03*
X0226902Y0088131D03*
X0228871Y0088131D03*
X0228871Y0071989D03*
X0226902Y0071989D03*
X0224934Y0071989D03*
X0222965Y0071989D03*
X0220997Y0071989D03*
X0126871Y0071989D03*
X0124902Y0071989D03*
X0122934Y0071989D03*
X0120965Y0071989D03*
X0118997Y0071989D03*
X0118997Y0088131D03*
X0120965Y0088131D03*
X0122934Y0088131D03*
X0124902Y0088131D03*
X0126871Y0088131D03*
X0024871Y0088131D03*
X0022902Y0088131D03*
X0020934Y0088131D03*
X0018965Y0088131D03*
X0016997Y0088131D03*
X0016997Y0071989D03*
X0018965Y0071989D03*
X0020934Y0071989D03*
X0022902Y0071989D03*
X0024871Y0071989D03*
D12*
X0044910Y0072560D03*
X0044910Y0077560D03*
X0044910Y0082560D03*
X0044910Y0087560D03*
X0066957Y0087560D03*
X0066957Y0082560D03*
X0066957Y0077560D03*
X0066957Y0072560D03*
X0146910Y0072560D03*
X0146910Y0077560D03*
X0146910Y0082560D03*
X0146910Y0087560D03*
X0168957Y0087560D03*
X0168957Y0082560D03*
X0168957Y0077560D03*
X0168957Y0072560D03*
X0248910Y0072560D03*
X0248910Y0077560D03*
X0248910Y0082560D03*
X0248910Y0087560D03*
X0270957Y0087560D03*
X0270957Y0082560D03*
X0270957Y0077560D03*
X0270957Y0072560D03*
X0270957Y0174560D03*
X0270957Y0179560D03*
X0270957Y0184560D03*
X0270957Y0189560D03*
X0248910Y0189560D03*
X0248910Y0184560D03*
X0248910Y0179560D03*
X0248910Y0174560D03*
X0168957Y0174560D03*
X0168957Y0179560D03*
X0168957Y0184560D03*
X0168957Y0189560D03*
X0146910Y0189560D03*
X0146910Y0184560D03*
X0146910Y0179560D03*
X0146910Y0174560D03*
X0066957Y0174560D03*
X0066957Y0179560D03*
X0066957Y0184560D03*
X0066957Y0189560D03*
X0044910Y0189560D03*
X0044910Y0184560D03*
X0044910Y0179560D03*
X0044910Y0174560D03*
X0044910Y0276560D03*
X0044910Y0281560D03*
X0044910Y0286560D03*
X0044910Y0291560D03*
X0066957Y0291560D03*
X0066957Y0286560D03*
X0066957Y0281560D03*
X0066957Y0276560D03*
X0146910Y0276560D03*
X0146910Y0281560D03*
X0146910Y0286560D03*
X0146910Y0291560D03*
X0168957Y0291560D03*
X0168957Y0286560D03*
X0168957Y0281560D03*
X0168957Y0276560D03*
X0248910Y0276560D03*
X0248910Y0281560D03*
X0248910Y0286560D03*
X0248910Y0291560D03*
X0270957Y0291560D03*
X0270957Y0286560D03*
X0270957Y0281560D03*
X0270957Y0276560D03*
D13*
X0213934Y0305060D03*
X0111934Y0305060D03*
X0009934Y0305060D03*
X0102934Y0212060D03*
X0111934Y0203060D03*
X0204934Y0212060D03*
X0213934Y0203060D03*
X0306934Y0212060D03*
X0306934Y0110060D03*
X0213934Y0101060D03*
X0204934Y0110060D03*
X0111934Y0101060D03*
X0102934Y0110060D03*
X0009934Y0101060D03*
X0102934Y0008060D03*
X0204934Y0008060D03*
X0306934Y0008060D03*
X0009934Y0203060D03*
D14*
X0092587Y0177060D03*
X0099280Y0177060D03*
X0194587Y0177060D03*
X0201280Y0177060D03*
X0296587Y0177060D03*
X0303280Y0177060D03*
X0303280Y0075060D03*
X0296587Y0075060D03*
X0201280Y0075060D03*
X0194587Y0075060D03*
X0099280Y0075060D03*
X0092587Y0075060D03*
X0092587Y0279060D03*
X0099280Y0279060D03*
X0194587Y0279060D03*
X0201280Y0279060D03*
X0296587Y0279060D03*
X0303280Y0279060D03*
D15*
X0264363Y0265408D03*
X0255505Y0265408D03*
X0255505Y0252712D03*
X0264363Y0252712D03*
X0162363Y0252712D03*
X0153505Y0252712D03*
X0153505Y0265408D03*
X0162363Y0265408D03*
X0060363Y0265408D03*
X0051505Y0265408D03*
X0051505Y0252712D03*
X0060363Y0252712D03*
X0060363Y0163408D03*
X0051505Y0163408D03*
X0051505Y0150712D03*
X0060363Y0150712D03*
X0153505Y0150712D03*
X0162363Y0150712D03*
X0162363Y0163408D03*
X0153505Y0163408D03*
X0255505Y0163408D03*
X0264363Y0163408D03*
X0264363Y0150712D03*
X0255505Y0150712D03*
X0255505Y0061408D03*
X0264363Y0061408D03*
X0264363Y0048712D03*
X0255505Y0048712D03*
X0162363Y0048712D03*
X0153505Y0048712D03*
X0153505Y0061408D03*
X0162363Y0061408D03*
X0060363Y0061408D03*
X0051505Y0061408D03*
X0051505Y0048712D03*
X0060363Y0048712D03*
D16*
X0015934Y0015060D03*
X0095934Y0015060D03*
X0117934Y0015060D03*
X0197934Y0015060D03*
X0219934Y0015060D03*
X0299934Y0015060D03*
X0299934Y0117060D03*
X0219934Y0117060D03*
X0197934Y0117060D03*
X0117934Y0117060D03*
X0095934Y0117060D03*
X0015934Y0117060D03*
X0015934Y0219060D03*
X0095934Y0219060D03*
X0117934Y0219060D03*
X0197934Y0219060D03*
X0219934Y0219060D03*
X0299934Y0219060D03*
D17*
X0304759Y0183433D02*
X0304759Y0180687D01*
X0302013Y0180687D01*
X0302013Y0183433D01*
X0304759Y0183433D01*
X0304759Y0182577D02*
X0302013Y0182577D01*
X0297854Y0183433D02*
X0297854Y0180687D01*
X0295108Y0180687D01*
X0295108Y0183433D01*
X0297854Y0183433D01*
X0297854Y0182577D02*
X0295108Y0182577D01*
X0202759Y0183433D02*
X0202759Y0180687D01*
X0200013Y0180687D01*
X0200013Y0183433D01*
X0202759Y0183433D01*
X0202759Y0182577D02*
X0200013Y0182577D01*
X0195854Y0183433D02*
X0195854Y0180687D01*
X0193108Y0180687D01*
X0193108Y0183433D01*
X0195854Y0183433D01*
X0195854Y0182577D02*
X0193108Y0182577D01*
X0100759Y0183433D02*
X0100759Y0180687D01*
X0098013Y0180687D01*
X0098013Y0183433D01*
X0100759Y0183433D01*
X0100759Y0182577D02*
X0098013Y0182577D01*
X0093854Y0183433D02*
X0093854Y0180687D01*
X0091108Y0180687D01*
X0091108Y0183433D01*
X0093854Y0183433D01*
X0093854Y0182577D02*
X0091108Y0182577D01*
X0093854Y0282687D02*
X0093854Y0285433D01*
X0093854Y0282687D02*
X0091108Y0282687D01*
X0091108Y0285433D01*
X0093854Y0285433D01*
X0093854Y0284577D02*
X0091108Y0284577D01*
X0100759Y0285433D02*
X0100759Y0282687D01*
X0098013Y0282687D01*
X0098013Y0285433D01*
X0100759Y0285433D01*
X0100759Y0284577D02*
X0098013Y0284577D01*
X0195854Y0285433D02*
X0195854Y0282687D01*
X0193108Y0282687D01*
X0193108Y0285433D01*
X0195854Y0285433D01*
X0195854Y0284577D02*
X0193108Y0284577D01*
X0202759Y0285433D02*
X0202759Y0282687D01*
X0200013Y0282687D01*
X0200013Y0285433D01*
X0202759Y0285433D01*
X0202759Y0284577D02*
X0200013Y0284577D01*
X0297854Y0285433D02*
X0297854Y0282687D01*
X0295108Y0282687D01*
X0295108Y0285433D01*
X0297854Y0285433D01*
X0297854Y0284577D02*
X0295108Y0284577D01*
X0304759Y0285433D02*
X0304759Y0282687D01*
X0302013Y0282687D01*
X0302013Y0285433D01*
X0304759Y0285433D01*
X0304759Y0284577D02*
X0302013Y0284577D01*
X0304759Y0081433D02*
X0304759Y0078687D01*
X0302013Y0078687D01*
X0302013Y0081433D01*
X0304759Y0081433D01*
X0304759Y0080577D02*
X0302013Y0080577D01*
X0297854Y0081433D02*
X0297854Y0078687D01*
X0295108Y0078687D01*
X0295108Y0081433D01*
X0297854Y0081433D01*
X0297854Y0080577D02*
X0295108Y0080577D01*
X0202759Y0081433D02*
X0202759Y0078687D01*
X0200013Y0078687D01*
X0200013Y0081433D01*
X0202759Y0081433D01*
X0202759Y0080577D02*
X0200013Y0080577D01*
X0195854Y0081433D02*
X0195854Y0078687D01*
X0193108Y0078687D01*
X0193108Y0081433D01*
X0195854Y0081433D01*
X0195854Y0080577D02*
X0193108Y0080577D01*
X0100759Y0081433D02*
X0100759Y0078687D01*
X0098013Y0078687D01*
X0098013Y0081433D01*
X0100759Y0081433D01*
X0100759Y0080577D02*
X0098013Y0080577D01*
X0093854Y0081433D02*
X0093854Y0078687D01*
X0091108Y0078687D01*
X0091108Y0081433D01*
X0093854Y0081433D01*
X0093854Y0080577D02*
X0091108Y0080577D01*
D18*
X0100402Y0066084D03*
X0113465Y0066084D03*
X0113465Y0044036D03*
X0100402Y0044036D03*
X0011465Y0044036D03*
X0011465Y0066084D03*
X0011465Y0146036D03*
X0011465Y0168084D03*
X0100402Y0168084D03*
X0113465Y0168084D03*
X0113465Y0146036D03*
X0100402Y0146036D03*
X0202402Y0146036D03*
X0215465Y0146036D03*
X0215465Y0168084D03*
X0202402Y0168084D03*
X0304402Y0168084D03*
X0304402Y0146036D03*
X0304402Y0066084D03*
X0304402Y0044036D03*
X0215465Y0044036D03*
X0202402Y0044036D03*
X0202402Y0066084D03*
X0215465Y0066084D03*
X0215465Y0248036D03*
X0202402Y0248036D03*
X0202402Y0270084D03*
X0215465Y0270084D03*
X0304402Y0270084D03*
X0304402Y0248036D03*
X0113465Y0248036D03*
X0100402Y0248036D03*
X0100402Y0270084D03*
X0113465Y0270084D03*
X0011465Y0270084D03*
X0011465Y0248036D03*
D19*
X0025934Y0253154D03*
X0025934Y0257091D03*
X0025934Y0261028D03*
X0025934Y0264966D03*
X0085934Y0264966D03*
X0085934Y0261028D03*
X0085934Y0257091D03*
X0085934Y0253154D03*
X0127934Y0253154D03*
X0127934Y0257091D03*
X0127934Y0261028D03*
X0127934Y0264966D03*
X0187934Y0264966D03*
X0187934Y0261028D03*
X0187934Y0257091D03*
X0187934Y0253154D03*
X0229934Y0253154D03*
X0229934Y0257091D03*
X0229934Y0261028D03*
X0229934Y0264966D03*
X0289934Y0264966D03*
X0289934Y0261028D03*
X0289934Y0257091D03*
X0289934Y0253154D03*
X0289934Y0162966D03*
X0289934Y0159028D03*
X0289934Y0155091D03*
X0289934Y0151154D03*
X0229934Y0151154D03*
X0229934Y0155091D03*
X0229934Y0159028D03*
X0229934Y0162966D03*
X0187934Y0162966D03*
X0187934Y0159028D03*
X0187934Y0155091D03*
X0187934Y0151154D03*
X0127934Y0151154D03*
X0127934Y0155091D03*
X0127934Y0159028D03*
X0127934Y0162966D03*
X0085934Y0162966D03*
X0085934Y0159028D03*
X0085934Y0155091D03*
X0085934Y0151154D03*
X0025934Y0151154D03*
X0025934Y0155091D03*
X0025934Y0159028D03*
X0025934Y0162966D03*
X0025934Y0060966D03*
X0025934Y0057028D03*
X0025934Y0053091D03*
X0025934Y0049154D03*
X0085934Y0049154D03*
X0085934Y0053091D03*
X0085934Y0057028D03*
X0085934Y0060966D03*
X0127934Y0060966D03*
X0127934Y0057028D03*
X0127934Y0053091D03*
X0127934Y0049154D03*
X0187934Y0049154D03*
X0187934Y0053091D03*
X0187934Y0057028D03*
X0187934Y0060966D03*
X0229934Y0060966D03*
X0229934Y0057028D03*
X0229934Y0053091D03*
X0229934Y0049154D03*
X0289934Y0049154D03*
X0289934Y0053091D03*
X0289934Y0057028D03*
X0289934Y0060966D03*
D20*
X0279934Y0010060D03*
X0269934Y0010060D03*
X0259934Y0010060D03*
X0249934Y0010060D03*
X0239934Y0010060D03*
X0177934Y0010060D03*
X0167934Y0010060D03*
X0157934Y0010060D03*
X0147934Y0010060D03*
X0137934Y0010060D03*
X0075934Y0010060D03*
X0065934Y0010060D03*
X0055934Y0010060D03*
X0045934Y0010060D03*
X0035934Y0010060D03*
X0035934Y0112060D03*
X0045934Y0112060D03*
X0055934Y0112060D03*
X0065934Y0112060D03*
X0075934Y0112060D03*
X0137934Y0112060D03*
X0147934Y0112060D03*
X0157934Y0112060D03*
X0167934Y0112060D03*
X0177934Y0112060D03*
X0239934Y0112060D03*
X0249934Y0112060D03*
X0259934Y0112060D03*
X0269934Y0112060D03*
X0279934Y0112060D03*
X0279934Y0214060D03*
X0269934Y0214060D03*
X0259934Y0214060D03*
X0249934Y0214060D03*
X0239934Y0214060D03*
X0177934Y0214060D03*
X0167934Y0214060D03*
X0157934Y0214060D03*
X0147934Y0214060D03*
X0137934Y0214060D03*
X0075934Y0214060D03*
X0065934Y0214060D03*
X0055934Y0214060D03*
X0045934Y0214060D03*
X0035934Y0214060D03*
M02*
