G75*
%MOIN*%
%OFA0B0*%
%FSLAX25Y25*%
%IPPOS*%
%LPD*%
%AMOC8*
5,1,8,0,0,1.08239X$1,22.5*
%
%ADD10C,0.00800*%
%ADD11C,0.01500*%
%ADD12C,0.01100*%
%ADD13C,0.01000*%
%ADD14C,0.00000*%
D10*
X0028750Y0028750D02*
X0128750Y0028750D01*
X0128750Y0128750D01*
X0028750Y0128750D01*
X0028750Y0028750D01*
X0130750Y0028750D02*
X0230750Y0028750D01*
X0230750Y0128750D01*
X0130750Y0128750D01*
X0130750Y0028750D01*
X0232750Y0028750D02*
X0332750Y0028750D01*
X0332750Y0128750D01*
X0232750Y0128750D01*
X0232750Y0028750D01*
X0232750Y0130750D02*
X0332750Y0130750D01*
X0332750Y0230750D01*
X0232750Y0230750D01*
X0232750Y0130750D01*
X0230750Y0130750D02*
X0130750Y0130750D01*
X0130750Y0230750D01*
X0230750Y0230750D01*
X0230750Y0130750D01*
X0128750Y0130750D02*
X0028750Y0130750D01*
X0028750Y0230750D01*
X0128750Y0230750D01*
X0128750Y0130750D01*
X0128750Y0232750D02*
X0028750Y0232750D01*
X0028750Y0332750D01*
X0128750Y0332750D01*
X0128750Y0232750D01*
X0130750Y0232750D02*
X0230750Y0232750D01*
X0230750Y0332750D01*
X0130750Y0332750D01*
X0130750Y0232750D01*
X0232750Y0232750D02*
X0332750Y0232750D01*
X0332750Y0332750D01*
X0232750Y0332750D01*
X0232750Y0232750D01*
D11*
X0384750Y0231750D02*
X0001750Y0231750D01*
X0001750Y0129750D02*
X0384750Y0129750D01*
X0384750Y0027750D02*
X0001750Y0027750D01*
X0027750Y0001750D02*
X0027750Y0384750D01*
X0001750Y0333750D02*
X0384750Y0333750D01*
X0333750Y0384750D02*
X0333750Y0001750D01*
X0231750Y0001750D02*
X0231750Y0384750D01*
X0129750Y0384750D02*
X0129750Y0001750D01*
D12*
X0397541Y0028733D02*
X0398852Y0024800D01*
X0400163Y0028733D01*
X0402834Y0027094D02*
X0406768Y0027094D01*
X0410136Y0027094D02*
X0411774Y0026439D01*
X0411775Y0026439D02*
X0411827Y0026416D01*
X0411878Y0026389D01*
X0411927Y0026359D01*
X0411974Y0026326D01*
X0412019Y0026290D01*
X0412061Y0026250D01*
X0412100Y0026208D01*
X0412136Y0026164D01*
X0412169Y0026117D01*
X0412199Y0026067D01*
X0412226Y0026016D01*
X0412249Y0025964D01*
X0412268Y0025910D01*
X0412284Y0025854D01*
X0412296Y0025798D01*
X0412304Y0025741D01*
X0412308Y0025684D01*
X0412309Y0025626D01*
X0412305Y0025569D01*
X0412298Y0025512D01*
X0412286Y0025455D01*
X0412271Y0025400D01*
X0412253Y0025345D01*
X0412230Y0025292D01*
X0412204Y0025241D01*
X0412175Y0025192D01*
X0412142Y0025144D01*
X0412106Y0025099D01*
X0412068Y0025057D01*
X0412026Y0025017D01*
X0411982Y0024980D01*
X0411935Y0024946D01*
X0411887Y0024915D01*
X0411836Y0024888D01*
X0411784Y0024864D01*
X0411730Y0024844D01*
X0411675Y0024828D01*
X0411619Y0024815D01*
X0411562Y0024806D01*
X0411504Y0024801D01*
X0411447Y0024800D01*
X0411938Y0028405D02*
X0411831Y0028451D01*
X0411722Y0028494D01*
X0411612Y0028534D01*
X0411500Y0028570D01*
X0411388Y0028602D01*
X0411274Y0028631D01*
X0411160Y0028657D01*
X0411045Y0028678D01*
X0410930Y0028697D01*
X0410813Y0028711D01*
X0410697Y0028722D01*
X0410580Y0028729D01*
X0410463Y0028733D01*
X0410463Y0028734D02*
X0410406Y0028733D01*
X0410348Y0028728D01*
X0410291Y0028719D01*
X0410235Y0028706D01*
X0410180Y0028690D01*
X0410126Y0028670D01*
X0410074Y0028646D01*
X0410023Y0028619D01*
X0409975Y0028588D01*
X0409928Y0028554D01*
X0409884Y0028517D01*
X0409842Y0028477D01*
X0409804Y0028435D01*
X0409768Y0028390D01*
X0409735Y0028342D01*
X0409706Y0028293D01*
X0409680Y0028242D01*
X0409657Y0028189D01*
X0409639Y0028134D01*
X0409624Y0028079D01*
X0409612Y0028022D01*
X0409605Y0027965D01*
X0409601Y0027908D01*
X0409602Y0027850D01*
X0409606Y0027793D01*
X0409614Y0027736D01*
X0409626Y0027680D01*
X0409642Y0027624D01*
X0409661Y0027570D01*
X0409684Y0027518D01*
X0409711Y0027467D01*
X0409741Y0027417D01*
X0409774Y0027370D01*
X0409810Y0027326D01*
X0409849Y0027284D01*
X0409891Y0027244D01*
X0409936Y0027208D01*
X0409983Y0027175D01*
X0410032Y0027145D01*
X0410083Y0027118D01*
X0410135Y0027095D01*
X0409644Y0025128D02*
X0409778Y0025082D01*
X0409913Y0025039D01*
X0410049Y0025000D01*
X0410186Y0024964D01*
X0410323Y0024932D01*
X0410462Y0024903D01*
X0410601Y0024877D01*
X0410741Y0024856D01*
X0410882Y0024837D01*
X0411022Y0024823D01*
X0411164Y0024812D01*
X0411305Y0024804D01*
X0411447Y0024801D01*
X0414988Y0025783D02*
X0414988Y0027750D01*
X0414990Y0027812D01*
X0414996Y0027873D01*
X0415005Y0027934D01*
X0415019Y0027994D01*
X0415036Y0028054D01*
X0415057Y0028112D01*
X0415082Y0028169D01*
X0415110Y0028224D01*
X0415141Y0028277D01*
X0415176Y0028328D01*
X0415214Y0028377D01*
X0415254Y0028423D01*
X0415298Y0028467D01*
X0415344Y0028507D01*
X0415393Y0028545D01*
X0415444Y0028580D01*
X0415497Y0028611D01*
X0415552Y0028639D01*
X0415609Y0028664D01*
X0415667Y0028685D01*
X0415727Y0028702D01*
X0415787Y0028716D01*
X0415848Y0028725D01*
X0415909Y0028731D01*
X0415971Y0028733D01*
X0417282Y0028733D01*
X0419695Y0027422D02*
X0419695Y0026111D01*
X0419696Y0026111D02*
X0419698Y0026040D01*
X0419704Y0025969D01*
X0419713Y0025899D01*
X0419727Y0025829D01*
X0419744Y0025760D01*
X0419765Y0025692D01*
X0419789Y0025626D01*
X0419817Y0025561D01*
X0419849Y0025497D01*
X0419884Y0025435D01*
X0419922Y0025375D01*
X0419963Y0025318D01*
X0420008Y0025262D01*
X0420055Y0025209D01*
X0420105Y0025159D01*
X0420158Y0025112D01*
X0420214Y0025067D01*
X0420271Y0025026D01*
X0420331Y0024988D01*
X0420393Y0024953D01*
X0420457Y0024921D01*
X0420522Y0024893D01*
X0420588Y0024869D01*
X0420656Y0024848D01*
X0420725Y0024831D01*
X0420795Y0024817D01*
X0420865Y0024808D01*
X0420936Y0024802D01*
X0421007Y0024800D01*
X0421078Y0024802D01*
X0421149Y0024808D01*
X0421219Y0024817D01*
X0421289Y0024831D01*
X0421358Y0024848D01*
X0421426Y0024869D01*
X0421492Y0024893D01*
X0421557Y0024921D01*
X0421621Y0024953D01*
X0421683Y0024988D01*
X0421743Y0025026D01*
X0421800Y0025067D01*
X0421856Y0025112D01*
X0421909Y0025159D01*
X0421959Y0025209D01*
X0422006Y0025262D01*
X0422051Y0025318D01*
X0422092Y0025375D01*
X0422130Y0025435D01*
X0422165Y0025497D01*
X0422197Y0025561D01*
X0422225Y0025626D01*
X0422249Y0025692D01*
X0422270Y0025760D01*
X0422287Y0025829D01*
X0422301Y0025899D01*
X0422310Y0025969D01*
X0422316Y0026040D01*
X0422318Y0026111D01*
X0422318Y0027422D01*
X0422316Y0027493D01*
X0422310Y0027564D01*
X0422301Y0027634D01*
X0422287Y0027704D01*
X0422270Y0027773D01*
X0422249Y0027841D01*
X0422225Y0027907D01*
X0422197Y0027972D01*
X0422165Y0028036D01*
X0422130Y0028098D01*
X0422092Y0028158D01*
X0422051Y0028215D01*
X0422006Y0028271D01*
X0421959Y0028324D01*
X0421909Y0028374D01*
X0421856Y0028421D01*
X0421800Y0028466D01*
X0421743Y0028507D01*
X0421683Y0028545D01*
X0421621Y0028580D01*
X0421557Y0028612D01*
X0421492Y0028640D01*
X0421426Y0028664D01*
X0421358Y0028685D01*
X0421289Y0028702D01*
X0421219Y0028716D01*
X0421149Y0028725D01*
X0421078Y0028731D01*
X0421007Y0028733D01*
X0420936Y0028731D01*
X0420865Y0028725D01*
X0420795Y0028716D01*
X0420725Y0028702D01*
X0420656Y0028685D01*
X0420588Y0028664D01*
X0420522Y0028640D01*
X0420457Y0028612D01*
X0420393Y0028580D01*
X0420331Y0028545D01*
X0420271Y0028507D01*
X0420214Y0028466D01*
X0420158Y0028421D01*
X0420105Y0028374D01*
X0420055Y0028324D01*
X0420008Y0028271D01*
X0419963Y0028215D01*
X0419922Y0028158D01*
X0419884Y0028098D01*
X0419849Y0028036D01*
X0419817Y0027972D01*
X0419789Y0027907D01*
X0419765Y0027841D01*
X0419744Y0027773D01*
X0419727Y0027704D01*
X0419713Y0027634D01*
X0419704Y0027564D01*
X0419698Y0027493D01*
X0419696Y0027422D01*
X0417282Y0024800D02*
X0415971Y0024800D01*
X0415909Y0024802D01*
X0415848Y0024808D01*
X0415787Y0024817D01*
X0415727Y0024831D01*
X0415667Y0024848D01*
X0415609Y0024869D01*
X0415552Y0024894D01*
X0415497Y0024922D01*
X0415444Y0024953D01*
X0415393Y0024988D01*
X0415344Y0025026D01*
X0415298Y0025066D01*
X0415254Y0025110D01*
X0415214Y0025156D01*
X0415176Y0025205D01*
X0415141Y0025256D01*
X0415110Y0025309D01*
X0415082Y0025364D01*
X0415057Y0025421D01*
X0415036Y0025479D01*
X0415019Y0025539D01*
X0415005Y0025599D01*
X0414996Y0025660D01*
X0414990Y0025721D01*
X0414988Y0025783D01*
X0425284Y0024800D02*
X0425284Y0028733D01*
X0427251Y0028733D01*
X0427251Y0028078D01*
X0429337Y0027422D02*
X0429337Y0025783D01*
X0429339Y0025721D01*
X0429345Y0025660D01*
X0429354Y0025599D01*
X0429368Y0025539D01*
X0429385Y0025479D01*
X0429406Y0025421D01*
X0429431Y0025364D01*
X0429459Y0025309D01*
X0429490Y0025256D01*
X0429525Y0025205D01*
X0429563Y0025156D01*
X0429603Y0025110D01*
X0429647Y0025066D01*
X0429693Y0025026D01*
X0429742Y0024988D01*
X0429793Y0024953D01*
X0429846Y0024922D01*
X0429901Y0024894D01*
X0429958Y0024869D01*
X0430016Y0024848D01*
X0430076Y0024831D01*
X0430136Y0024817D01*
X0430197Y0024808D01*
X0430258Y0024802D01*
X0430320Y0024800D01*
X0431959Y0024800D01*
X0431959Y0026767D02*
X0429337Y0026767D01*
X0429337Y0027422D02*
X0429339Y0027493D01*
X0429345Y0027564D01*
X0429354Y0027634D01*
X0429368Y0027704D01*
X0429385Y0027773D01*
X0429406Y0027841D01*
X0429430Y0027907D01*
X0429458Y0027972D01*
X0429490Y0028036D01*
X0429525Y0028098D01*
X0429563Y0028158D01*
X0429604Y0028215D01*
X0429649Y0028271D01*
X0429696Y0028324D01*
X0429746Y0028374D01*
X0429799Y0028421D01*
X0429855Y0028466D01*
X0429912Y0028507D01*
X0429972Y0028545D01*
X0430034Y0028580D01*
X0430098Y0028612D01*
X0430163Y0028640D01*
X0430229Y0028664D01*
X0430297Y0028685D01*
X0430366Y0028702D01*
X0430436Y0028716D01*
X0430506Y0028725D01*
X0430577Y0028731D01*
X0430648Y0028733D01*
X0430719Y0028731D01*
X0430790Y0028725D01*
X0430860Y0028716D01*
X0430930Y0028702D01*
X0430999Y0028685D01*
X0431067Y0028664D01*
X0431133Y0028640D01*
X0431198Y0028612D01*
X0431262Y0028580D01*
X0431324Y0028545D01*
X0431384Y0028507D01*
X0431441Y0028466D01*
X0431497Y0028421D01*
X0431550Y0028374D01*
X0431600Y0028324D01*
X0431647Y0028271D01*
X0431692Y0028215D01*
X0431733Y0028158D01*
X0431771Y0028098D01*
X0431806Y0028036D01*
X0431838Y0027972D01*
X0431866Y0027907D01*
X0431890Y0027841D01*
X0431911Y0027773D01*
X0431928Y0027704D01*
X0431942Y0027634D01*
X0431951Y0027564D01*
X0431957Y0027493D01*
X0431959Y0027422D01*
X0431959Y0026767D01*
X0431959Y0126800D02*
X0430320Y0126800D01*
X0430258Y0126802D01*
X0430197Y0126808D01*
X0430136Y0126817D01*
X0430076Y0126831D01*
X0430016Y0126848D01*
X0429958Y0126869D01*
X0429901Y0126894D01*
X0429846Y0126922D01*
X0429793Y0126953D01*
X0429742Y0126988D01*
X0429693Y0127026D01*
X0429647Y0127066D01*
X0429603Y0127110D01*
X0429563Y0127156D01*
X0429525Y0127205D01*
X0429490Y0127256D01*
X0429459Y0127309D01*
X0429431Y0127364D01*
X0429406Y0127421D01*
X0429385Y0127479D01*
X0429368Y0127539D01*
X0429354Y0127599D01*
X0429345Y0127660D01*
X0429339Y0127721D01*
X0429337Y0127783D01*
X0429337Y0129422D01*
X0429337Y0128767D02*
X0431959Y0128767D01*
X0431959Y0129422D01*
X0431957Y0129493D01*
X0431951Y0129564D01*
X0431942Y0129634D01*
X0431928Y0129704D01*
X0431911Y0129773D01*
X0431890Y0129841D01*
X0431866Y0129907D01*
X0431838Y0129972D01*
X0431806Y0130036D01*
X0431771Y0130098D01*
X0431733Y0130158D01*
X0431692Y0130215D01*
X0431647Y0130271D01*
X0431600Y0130324D01*
X0431550Y0130374D01*
X0431497Y0130421D01*
X0431441Y0130466D01*
X0431384Y0130507D01*
X0431324Y0130545D01*
X0431262Y0130580D01*
X0431198Y0130612D01*
X0431133Y0130640D01*
X0431067Y0130664D01*
X0430999Y0130685D01*
X0430930Y0130702D01*
X0430860Y0130716D01*
X0430790Y0130725D01*
X0430719Y0130731D01*
X0430648Y0130733D01*
X0430577Y0130731D01*
X0430506Y0130725D01*
X0430436Y0130716D01*
X0430366Y0130702D01*
X0430297Y0130685D01*
X0430229Y0130664D01*
X0430163Y0130640D01*
X0430098Y0130612D01*
X0430034Y0130580D01*
X0429972Y0130545D01*
X0429912Y0130507D01*
X0429855Y0130466D01*
X0429799Y0130421D01*
X0429746Y0130374D01*
X0429696Y0130324D01*
X0429649Y0130271D01*
X0429604Y0130215D01*
X0429563Y0130158D01*
X0429525Y0130098D01*
X0429490Y0130036D01*
X0429458Y0129972D01*
X0429430Y0129907D01*
X0429406Y0129841D01*
X0429385Y0129773D01*
X0429368Y0129704D01*
X0429354Y0129634D01*
X0429345Y0129564D01*
X0429339Y0129493D01*
X0429337Y0129422D01*
X0427251Y0130078D02*
X0427251Y0130733D01*
X0425284Y0130733D01*
X0425284Y0126800D01*
X0422318Y0128111D02*
X0422318Y0129422D01*
X0422316Y0129493D01*
X0422310Y0129564D01*
X0422301Y0129634D01*
X0422287Y0129704D01*
X0422270Y0129773D01*
X0422249Y0129841D01*
X0422225Y0129907D01*
X0422197Y0129972D01*
X0422165Y0130036D01*
X0422130Y0130098D01*
X0422092Y0130158D01*
X0422051Y0130215D01*
X0422006Y0130271D01*
X0421959Y0130324D01*
X0421909Y0130374D01*
X0421856Y0130421D01*
X0421800Y0130466D01*
X0421743Y0130507D01*
X0421683Y0130545D01*
X0421621Y0130580D01*
X0421557Y0130612D01*
X0421492Y0130640D01*
X0421426Y0130664D01*
X0421358Y0130685D01*
X0421289Y0130702D01*
X0421219Y0130716D01*
X0421149Y0130725D01*
X0421078Y0130731D01*
X0421007Y0130733D01*
X0420936Y0130731D01*
X0420865Y0130725D01*
X0420795Y0130716D01*
X0420725Y0130702D01*
X0420656Y0130685D01*
X0420588Y0130664D01*
X0420522Y0130640D01*
X0420457Y0130612D01*
X0420393Y0130580D01*
X0420331Y0130545D01*
X0420271Y0130507D01*
X0420214Y0130466D01*
X0420158Y0130421D01*
X0420105Y0130374D01*
X0420055Y0130324D01*
X0420008Y0130271D01*
X0419963Y0130215D01*
X0419922Y0130158D01*
X0419884Y0130098D01*
X0419849Y0130036D01*
X0419817Y0129972D01*
X0419789Y0129907D01*
X0419765Y0129841D01*
X0419744Y0129773D01*
X0419727Y0129704D01*
X0419713Y0129634D01*
X0419704Y0129564D01*
X0419698Y0129493D01*
X0419696Y0129422D01*
X0419695Y0129422D02*
X0419695Y0128111D01*
X0419696Y0128111D02*
X0419698Y0128040D01*
X0419704Y0127969D01*
X0419713Y0127899D01*
X0419727Y0127829D01*
X0419744Y0127760D01*
X0419765Y0127692D01*
X0419789Y0127626D01*
X0419817Y0127561D01*
X0419849Y0127497D01*
X0419884Y0127435D01*
X0419922Y0127375D01*
X0419963Y0127318D01*
X0420008Y0127262D01*
X0420055Y0127209D01*
X0420105Y0127159D01*
X0420158Y0127112D01*
X0420214Y0127067D01*
X0420271Y0127026D01*
X0420331Y0126988D01*
X0420393Y0126953D01*
X0420457Y0126921D01*
X0420522Y0126893D01*
X0420588Y0126869D01*
X0420656Y0126848D01*
X0420725Y0126831D01*
X0420795Y0126817D01*
X0420865Y0126808D01*
X0420936Y0126802D01*
X0421007Y0126800D01*
X0421078Y0126802D01*
X0421149Y0126808D01*
X0421219Y0126817D01*
X0421289Y0126831D01*
X0421358Y0126848D01*
X0421426Y0126869D01*
X0421492Y0126893D01*
X0421557Y0126921D01*
X0421621Y0126953D01*
X0421683Y0126988D01*
X0421743Y0127026D01*
X0421800Y0127067D01*
X0421856Y0127112D01*
X0421909Y0127159D01*
X0421959Y0127209D01*
X0422006Y0127262D01*
X0422051Y0127318D01*
X0422092Y0127375D01*
X0422130Y0127435D01*
X0422165Y0127497D01*
X0422197Y0127561D01*
X0422225Y0127626D01*
X0422249Y0127692D01*
X0422270Y0127760D01*
X0422287Y0127829D01*
X0422301Y0127899D01*
X0422310Y0127969D01*
X0422316Y0128040D01*
X0422318Y0128111D01*
X0417282Y0126800D02*
X0415971Y0126800D01*
X0415909Y0126802D01*
X0415848Y0126808D01*
X0415787Y0126817D01*
X0415727Y0126831D01*
X0415667Y0126848D01*
X0415609Y0126869D01*
X0415552Y0126894D01*
X0415497Y0126922D01*
X0415444Y0126953D01*
X0415393Y0126988D01*
X0415344Y0127026D01*
X0415298Y0127066D01*
X0415254Y0127110D01*
X0415214Y0127156D01*
X0415176Y0127205D01*
X0415141Y0127256D01*
X0415110Y0127309D01*
X0415082Y0127364D01*
X0415057Y0127421D01*
X0415036Y0127479D01*
X0415019Y0127539D01*
X0415005Y0127599D01*
X0414996Y0127660D01*
X0414990Y0127721D01*
X0414988Y0127783D01*
X0414988Y0129750D01*
X0414990Y0129812D01*
X0414996Y0129873D01*
X0415005Y0129934D01*
X0415019Y0129994D01*
X0415036Y0130054D01*
X0415057Y0130112D01*
X0415082Y0130169D01*
X0415110Y0130224D01*
X0415141Y0130277D01*
X0415176Y0130328D01*
X0415214Y0130377D01*
X0415254Y0130423D01*
X0415298Y0130467D01*
X0415344Y0130507D01*
X0415393Y0130545D01*
X0415444Y0130580D01*
X0415497Y0130611D01*
X0415552Y0130639D01*
X0415609Y0130664D01*
X0415667Y0130685D01*
X0415727Y0130702D01*
X0415787Y0130716D01*
X0415848Y0130725D01*
X0415909Y0130731D01*
X0415971Y0130733D01*
X0417282Y0130733D01*
X0411774Y0128439D02*
X0410136Y0129094D01*
X0410135Y0129095D02*
X0410083Y0129118D01*
X0410032Y0129145D01*
X0409983Y0129175D01*
X0409936Y0129208D01*
X0409891Y0129244D01*
X0409849Y0129284D01*
X0409810Y0129326D01*
X0409774Y0129370D01*
X0409741Y0129417D01*
X0409711Y0129467D01*
X0409684Y0129518D01*
X0409661Y0129570D01*
X0409642Y0129624D01*
X0409626Y0129680D01*
X0409614Y0129736D01*
X0409606Y0129793D01*
X0409602Y0129850D01*
X0409601Y0129908D01*
X0409605Y0129965D01*
X0409612Y0130022D01*
X0409624Y0130079D01*
X0409639Y0130134D01*
X0409657Y0130189D01*
X0409680Y0130242D01*
X0409706Y0130293D01*
X0409735Y0130342D01*
X0409768Y0130390D01*
X0409804Y0130435D01*
X0409842Y0130477D01*
X0409884Y0130517D01*
X0409928Y0130554D01*
X0409975Y0130588D01*
X0410023Y0130619D01*
X0410074Y0130646D01*
X0410126Y0130670D01*
X0410180Y0130690D01*
X0410235Y0130706D01*
X0410291Y0130719D01*
X0410348Y0130728D01*
X0410406Y0130733D01*
X0410463Y0130734D01*
X0409644Y0127128D02*
X0409778Y0127082D01*
X0409913Y0127039D01*
X0410049Y0127000D01*
X0410186Y0126964D01*
X0410323Y0126932D01*
X0410462Y0126903D01*
X0410601Y0126877D01*
X0410741Y0126856D01*
X0410882Y0126837D01*
X0411022Y0126823D01*
X0411164Y0126812D01*
X0411305Y0126804D01*
X0411447Y0126801D01*
X0411447Y0126800D02*
X0411504Y0126801D01*
X0411562Y0126806D01*
X0411619Y0126815D01*
X0411675Y0126828D01*
X0411730Y0126844D01*
X0411784Y0126864D01*
X0411836Y0126888D01*
X0411887Y0126915D01*
X0411935Y0126946D01*
X0411982Y0126980D01*
X0412026Y0127017D01*
X0412068Y0127057D01*
X0412106Y0127099D01*
X0412142Y0127144D01*
X0412175Y0127192D01*
X0412204Y0127241D01*
X0412230Y0127292D01*
X0412253Y0127345D01*
X0412271Y0127400D01*
X0412286Y0127455D01*
X0412298Y0127512D01*
X0412305Y0127569D01*
X0412309Y0127626D01*
X0412308Y0127684D01*
X0412304Y0127741D01*
X0412296Y0127798D01*
X0412284Y0127854D01*
X0412268Y0127910D01*
X0412249Y0127964D01*
X0412226Y0128016D01*
X0412199Y0128067D01*
X0412169Y0128117D01*
X0412136Y0128164D01*
X0412100Y0128208D01*
X0412061Y0128250D01*
X0412019Y0128290D01*
X0411974Y0128326D01*
X0411927Y0128359D01*
X0411878Y0128389D01*
X0411827Y0128416D01*
X0411775Y0128439D01*
X0411938Y0130405D02*
X0411831Y0130451D01*
X0411722Y0130494D01*
X0411612Y0130534D01*
X0411500Y0130570D01*
X0411388Y0130602D01*
X0411274Y0130631D01*
X0411160Y0130657D01*
X0411045Y0130678D01*
X0410930Y0130697D01*
X0410813Y0130711D01*
X0410697Y0130722D01*
X0410580Y0130729D01*
X0410463Y0130733D01*
X0406768Y0129094D02*
X0402834Y0129094D01*
X0400163Y0130733D02*
X0398852Y0126800D01*
X0397541Y0130733D01*
X0398852Y0228800D02*
X0400163Y0232733D01*
X0397541Y0232733D02*
X0398852Y0228800D01*
X0402834Y0231094D02*
X0406768Y0231094D01*
X0410136Y0231094D02*
X0411774Y0230439D01*
X0411775Y0230439D02*
X0411827Y0230416D01*
X0411878Y0230389D01*
X0411927Y0230359D01*
X0411974Y0230326D01*
X0412019Y0230290D01*
X0412061Y0230250D01*
X0412100Y0230208D01*
X0412136Y0230164D01*
X0412169Y0230117D01*
X0412199Y0230067D01*
X0412226Y0230016D01*
X0412249Y0229964D01*
X0412268Y0229910D01*
X0412284Y0229854D01*
X0412296Y0229798D01*
X0412304Y0229741D01*
X0412308Y0229684D01*
X0412309Y0229626D01*
X0412305Y0229569D01*
X0412298Y0229512D01*
X0412286Y0229455D01*
X0412271Y0229400D01*
X0412253Y0229345D01*
X0412230Y0229292D01*
X0412204Y0229241D01*
X0412175Y0229192D01*
X0412142Y0229144D01*
X0412106Y0229099D01*
X0412068Y0229057D01*
X0412026Y0229017D01*
X0411982Y0228980D01*
X0411935Y0228946D01*
X0411887Y0228915D01*
X0411836Y0228888D01*
X0411784Y0228864D01*
X0411730Y0228844D01*
X0411675Y0228828D01*
X0411619Y0228815D01*
X0411562Y0228806D01*
X0411504Y0228801D01*
X0411447Y0228800D01*
X0411938Y0232405D02*
X0411831Y0232451D01*
X0411722Y0232494D01*
X0411612Y0232534D01*
X0411500Y0232570D01*
X0411388Y0232602D01*
X0411274Y0232631D01*
X0411160Y0232657D01*
X0411045Y0232678D01*
X0410930Y0232697D01*
X0410813Y0232711D01*
X0410697Y0232722D01*
X0410580Y0232729D01*
X0410463Y0232733D01*
X0410463Y0232734D02*
X0410406Y0232733D01*
X0410348Y0232728D01*
X0410291Y0232719D01*
X0410235Y0232706D01*
X0410180Y0232690D01*
X0410126Y0232670D01*
X0410074Y0232646D01*
X0410023Y0232619D01*
X0409975Y0232588D01*
X0409928Y0232554D01*
X0409884Y0232517D01*
X0409842Y0232477D01*
X0409804Y0232435D01*
X0409768Y0232390D01*
X0409735Y0232342D01*
X0409706Y0232293D01*
X0409680Y0232242D01*
X0409657Y0232189D01*
X0409639Y0232134D01*
X0409624Y0232079D01*
X0409612Y0232022D01*
X0409605Y0231965D01*
X0409601Y0231908D01*
X0409602Y0231850D01*
X0409606Y0231793D01*
X0409614Y0231736D01*
X0409626Y0231680D01*
X0409642Y0231624D01*
X0409661Y0231570D01*
X0409684Y0231518D01*
X0409711Y0231467D01*
X0409741Y0231417D01*
X0409774Y0231370D01*
X0409810Y0231326D01*
X0409849Y0231284D01*
X0409891Y0231244D01*
X0409936Y0231208D01*
X0409983Y0231175D01*
X0410032Y0231145D01*
X0410083Y0231118D01*
X0410135Y0231095D01*
X0409644Y0229128D02*
X0409778Y0229082D01*
X0409913Y0229039D01*
X0410049Y0229000D01*
X0410186Y0228964D01*
X0410323Y0228932D01*
X0410462Y0228903D01*
X0410601Y0228877D01*
X0410741Y0228856D01*
X0410882Y0228837D01*
X0411022Y0228823D01*
X0411164Y0228812D01*
X0411305Y0228804D01*
X0411447Y0228801D01*
X0414988Y0229783D02*
X0414988Y0231750D01*
X0414990Y0231812D01*
X0414996Y0231873D01*
X0415005Y0231934D01*
X0415019Y0231994D01*
X0415036Y0232054D01*
X0415057Y0232112D01*
X0415082Y0232169D01*
X0415110Y0232224D01*
X0415141Y0232277D01*
X0415176Y0232328D01*
X0415214Y0232377D01*
X0415254Y0232423D01*
X0415298Y0232467D01*
X0415344Y0232507D01*
X0415393Y0232545D01*
X0415444Y0232580D01*
X0415497Y0232611D01*
X0415552Y0232639D01*
X0415609Y0232664D01*
X0415667Y0232685D01*
X0415727Y0232702D01*
X0415787Y0232716D01*
X0415848Y0232725D01*
X0415909Y0232731D01*
X0415971Y0232733D01*
X0417282Y0232733D01*
X0419695Y0231422D02*
X0419695Y0230111D01*
X0419696Y0230111D02*
X0419698Y0230040D01*
X0419704Y0229969D01*
X0419713Y0229899D01*
X0419727Y0229829D01*
X0419744Y0229760D01*
X0419765Y0229692D01*
X0419789Y0229626D01*
X0419817Y0229561D01*
X0419849Y0229497D01*
X0419884Y0229435D01*
X0419922Y0229375D01*
X0419963Y0229318D01*
X0420008Y0229262D01*
X0420055Y0229209D01*
X0420105Y0229159D01*
X0420158Y0229112D01*
X0420214Y0229067D01*
X0420271Y0229026D01*
X0420331Y0228988D01*
X0420393Y0228953D01*
X0420457Y0228921D01*
X0420522Y0228893D01*
X0420588Y0228869D01*
X0420656Y0228848D01*
X0420725Y0228831D01*
X0420795Y0228817D01*
X0420865Y0228808D01*
X0420936Y0228802D01*
X0421007Y0228800D01*
X0421078Y0228802D01*
X0421149Y0228808D01*
X0421219Y0228817D01*
X0421289Y0228831D01*
X0421358Y0228848D01*
X0421426Y0228869D01*
X0421492Y0228893D01*
X0421557Y0228921D01*
X0421621Y0228953D01*
X0421683Y0228988D01*
X0421743Y0229026D01*
X0421800Y0229067D01*
X0421856Y0229112D01*
X0421909Y0229159D01*
X0421959Y0229209D01*
X0422006Y0229262D01*
X0422051Y0229318D01*
X0422092Y0229375D01*
X0422130Y0229435D01*
X0422165Y0229497D01*
X0422197Y0229561D01*
X0422225Y0229626D01*
X0422249Y0229692D01*
X0422270Y0229760D01*
X0422287Y0229829D01*
X0422301Y0229899D01*
X0422310Y0229969D01*
X0422316Y0230040D01*
X0422318Y0230111D01*
X0422318Y0231422D01*
X0422316Y0231493D01*
X0422310Y0231564D01*
X0422301Y0231634D01*
X0422287Y0231704D01*
X0422270Y0231773D01*
X0422249Y0231841D01*
X0422225Y0231907D01*
X0422197Y0231972D01*
X0422165Y0232036D01*
X0422130Y0232098D01*
X0422092Y0232158D01*
X0422051Y0232215D01*
X0422006Y0232271D01*
X0421959Y0232324D01*
X0421909Y0232374D01*
X0421856Y0232421D01*
X0421800Y0232466D01*
X0421743Y0232507D01*
X0421683Y0232545D01*
X0421621Y0232580D01*
X0421557Y0232612D01*
X0421492Y0232640D01*
X0421426Y0232664D01*
X0421358Y0232685D01*
X0421289Y0232702D01*
X0421219Y0232716D01*
X0421149Y0232725D01*
X0421078Y0232731D01*
X0421007Y0232733D01*
X0420936Y0232731D01*
X0420865Y0232725D01*
X0420795Y0232716D01*
X0420725Y0232702D01*
X0420656Y0232685D01*
X0420588Y0232664D01*
X0420522Y0232640D01*
X0420457Y0232612D01*
X0420393Y0232580D01*
X0420331Y0232545D01*
X0420271Y0232507D01*
X0420214Y0232466D01*
X0420158Y0232421D01*
X0420105Y0232374D01*
X0420055Y0232324D01*
X0420008Y0232271D01*
X0419963Y0232215D01*
X0419922Y0232158D01*
X0419884Y0232098D01*
X0419849Y0232036D01*
X0419817Y0231972D01*
X0419789Y0231907D01*
X0419765Y0231841D01*
X0419744Y0231773D01*
X0419727Y0231704D01*
X0419713Y0231634D01*
X0419704Y0231564D01*
X0419698Y0231493D01*
X0419696Y0231422D01*
X0417282Y0228800D02*
X0415971Y0228800D01*
X0415909Y0228802D01*
X0415848Y0228808D01*
X0415787Y0228817D01*
X0415727Y0228831D01*
X0415667Y0228848D01*
X0415609Y0228869D01*
X0415552Y0228894D01*
X0415497Y0228922D01*
X0415444Y0228953D01*
X0415393Y0228988D01*
X0415344Y0229026D01*
X0415298Y0229066D01*
X0415254Y0229110D01*
X0415214Y0229156D01*
X0415176Y0229205D01*
X0415141Y0229256D01*
X0415110Y0229309D01*
X0415082Y0229364D01*
X0415057Y0229421D01*
X0415036Y0229479D01*
X0415019Y0229539D01*
X0415005Y0229599D01*
X0414996Y0229660D01*
X0414990Y0229721D01*
X0414988Y0229783D01*
X0425284Y0228800D02*
X0425284Y0232733D01*
X0427251Y0232733D01*
X0427251Y0232078D01*
X0429337Y0231422D02*
X0429337Y0229783D01*
X0429339Y0229721D01*
X0429345Y0229660D01*
X0429354Y0229599D01*
X0429368Y0229539D01*
X0429385Y0229479D01*
X0429406Y0229421D01*
X0429431Y0229364D01*
X0429459Y0229309D01*
X0429490Y0229256D01*
X0429525Y0229205D01*
X0429563Y0229156D01*
X0429603Y0229110D01*
X0429647Y0229066D01*
X0429693Y0229026D01*
X0429742Y0228988D01*
X0429793Y0228953D01*
X0429846Y0228922D01*
X0429901Y0228894D01*
X0429958Y0228869D01*
X0430016Y0228848D01*
X0430076Y0228831D01*
X0430136Y0228817D01*
X0430197Y0228808D01*
X0430258Y0228802D01*
X0430320Y0228800D01*
X0431959Y0228800D01*
X0431959Y0230767D02*
X0429337Y0230767D01*
X0429337Y0231422D02*
X0429339Y0231493D01*
X0429345Y0231564D01*
X0429354Y0231634D01*
X0429368Y0231704D01*
X0429385Y0231773D01*
X0429406Y0231841D01*
X0429430Y0231907D01*
X0429458Y0231972D01*
X0429490Y0232036D01*
X0429525Y0232098D01*
X0429563Y0232158D01*
X0429604Y0232215D01*
X0429649Y0232271D01*
X0429696Y0232324D01*
X0429746Y0232374D01*
X0429799Y0232421D01*
X0429855Y0232466D01*
X0429912Y0232507D01*
X0429972Y0232545D01*
X0430034Y0232580D01*
X0430098Y0232612D01*
X0430163Y0232640D01*
X0430229Y0232664D01*
X0430297Y0232685D01*
X0430366Y0232702D01*
X0430436Y0232716D01*
X0430506Y0232725D01*
X0430577Y0232731D01*
X0430648Y0232733D01*
X0430719Y0232731D01*
X0430790Y0232725D01*
X0430860Y0232716D01*
X0430930Y0232702D01*
X0430999Y0232685D01*
X0431067Y0232664D01*
X0431133Y0232640D01*
X0431198Y0232612D01*
X0431262Y0232580D01*
X0431324Y0232545D01*
X0431384Y0232507D01*
X0431441Y0232466D01*
X0431497Y0232421D01*
X0431550Y0232374D01*
X0431600Y0232324D01*
X0431647Y0232271D01*
X0431692Y0232215D01*
X0431733Y0232158D01*
X0431771Y0232098D01*
X0431806Y0232036D01*
X0431838Y0231972D01*
X0431866Y0231907D01*
X0431890Y0231841D01*
X0431911Y0231773D01*
X0431928Y0231704D01*
X0431942Y0231634D01*
X0431951Y0231564D01*
X0431957Y0231493D01*
X0431959Y0231422D01*
X0431959Y0230767D01*
X0431959Y0330800D02*
X0430320Y0330800D01*
X0430258Y0330802D01*
X0430197Y0330808D01*
X0430136Y0330817D01*
X0430076Y0330831D01*
X0430016Y0330848D01*
X0429958Y0330869D01*
X0429901Y0330894D01*
X0429846Y0330922D01*
X0429793Y0330953D01*
X0429742Y0330988D01*
X0429693Y0331026D01*
X0429647Y0331066D01*
X0429603Y0331110D01*
X0429563Y0331156D01*
X0429525Y0331205D01*
X0429490Y0331256D01*
X0429459Y0331309D01*
X0429431Y0331364D01*
X0429406Y0331421D01*
X0429385Y0331479D01*
X0429368Y0331539D01*
X0429354Y0331599D01*
X0429345Y0331660D01*
X0429339Y0331721D01*
X0429337Y0331783D01*
X0429337Y0333422D01*
X0429337Y0332767D02*
X0431959Y0332767D01*
X0431959Y0333422D01*
X0431957Y0333493D01*
X0431951Y0333564D01*
X0431942Y0333634D01*
X0431928Y0333704D01*
X0431911Y0333773D01*
X0431890Y0333841D01*
X0431866Y0333907D01*
X0431838Y0333972D01*
X0431806Y0334036D01*
X0431771Y0334098D01*
X0431733Y0334158D01*
X0431692Y0334215D01*
X0431647Y0334271D01*
X0431600Y0334324D01*
X0431550Y0334374D01*
X0431497Y0334421D01*
X0431441Y0334466D01*
X0431384Y0334507D01*
X0431324Y0334545D01*
X0431262Y0334580D01*
X0431198Y0334612D01*
X0431133Y0334640D01*
X0431067Y0334664D01*
X0430999Y0334685D01*
X0430930Y0334702D01*
X0430860Y0334716D01*
X0430790Y0334725D01*
X0430719Y0334731D01*
X0430648Y0334733D01*
X0430577Y0334731D01*
X0430506Y0334725D01*
X0430436Y0334716D01*
X0430366Y0334702D01*
X0430297Y0334685D01*
X0430229Y0334664D01*
X0430163Y0334640D01*
X0430098Y0334612D01*
X0430034Y0334580D01*
X0429972Y0334545D01*
X0429912Y0334507D01*
X0429855Y0334466D01*
X0429799Y0334421D01*
X0429746Y0334374D01*
X0429696Y0334324D01*
X0429649Y0334271D01*
X0429604Y0334215D01*
X0429563Y0334158D01*
X0429525Y0334098D01*
X0429490Y0334036D01*
X0429458Y0333972D01*
X0429430Y0333907D01*
X0429406Y0333841D01*
X0429385Y0333773D01*
X0429368Y0333704D01*
X0429354Y0333634D01*
X0429345Y0333564D01*
X0429339Y0333493D01*
X0429337Y0333422D01*
X0427251Y0334078D02*
X0427251Y0334733D01*
X0425284Y0334733D01*
X0425284Y0330800D01*
X0422318Y0332111D02*
X0422318Y0333422D01*
X0422316Y0333493D01*
X0422310Y0333564D01*
X0422301Y0333634D01*
X0422287Y0333704D01*
X0422270Y0333773D01*
X0422249Y0333841D01*
X0422225Y0333907D01*
X0422197Y0333972D01*
X0422165Y0334036D01*
X0422130Y0334098D01*
X0422092Y0334158D01*
X0422051Y0334215D01*
X0422006Y0334271D01*
X0421959Y0334324D01*
X0421909Y0334374D01*
X0421856Y0334421D01*
X0421800Y0334466D01*
X0421743Y0334507D01*
X0421683Y0334545D01*
X0421621Y0334580D01*
X0421557Y0334612D01*
X0421492Y0334640D01*
X0421426Y0334664D01*
X0421358Y0334685D01*
X0421289Y0334702D01*
X0421219Y0334716D01*
X0421149Y0334725D01*
X0421078Y0334731D01*
X0421007Y0334733D01*
X0420936Y0334731D01*
X0420865Y0334725D01*
X0420795Y0334716D01*
X0420725Y0334702D01*
X0420656Y0334685D01*
X0420588Y0334664D01*
X0420522Y0334640D01*
X0420457Y0334612D01*
X0420393Y0334580D01*
X0420331Y0334545D01*
X0420271Y0334507D01*
X0420214Y0334466D01*
X0420158Y0334421D01*
X0420105Y0334374D01*
X0420055Y0334324D01*
X0420008Y0334271D01*
X0419963Y0334215D01*
X0419922Y0334158D01*
X0419884Y0334098D01*
X0419849Y0334036D01*
X0419817Y0333972D01*
X0419789Y0333907D01*
X0419765Y0333841D01*
X0419744Y0333773D01*
X0419727Y0333704D01*
X0419713Y0333634D01*
X0419704Y0333564D01*
X0419698Y0333493D01*
X0419696Y0333422D01*
X0419695Y0333422D02*
X0419695Y0332111D01*
X0419696Y0332111D02*
X0419698Y0332040D01*
X0419704Y0331969D01*
X0419713Y0331899D01*
X0419727Y0331829D01*
X0419744Y0331760D01*
X0419765Y0331692D01*
X0419789Y0331626D01*
X0419817Y0331561D01*
X0419849Y0331497D01*
X0419884Y0331435D01*
X0419922Y0331375D01*
X0419963Y0331318D01*
X0420008Y0331262D01*
X0420055Y0331209D01*
X0420105Y0331159D01*
X0420158Y0331112D01*
X0420214Y0331067D01*
X0420271Y0331026D01*
X0420331Y0330988D01*
X0420393Y0330953D01*
X0420457Y0330921D01*
X0420522Y0330893D01*
X0420588Y0330869D01*
X0420656Y0330848D01*
X0420725Y0330831D01*
X0420795Y0330817D01*
X0420865Y0330808D01*
X0420936Y0330802D01*
X0421007Y0330800D01*
X0421078Y0330802D01*
X0421149Y0330808D01*
X0421219Y0330817D01*
X0421289Y0330831D01*
X0421358Y0330848D01*
X0421426Y0330869D01*
X0421492Y0330893D01*
X0421557Y0330921D01*
X0421621Y0330953D01*
X0421683Y0330988D01*
X0421743Y0331026D01*
X0421800Y0331067D01*
X0421856Y0331112D01*
X0421909Y0331159D01*
X0421959Y0331209D01*
X0422006Y0331262D01*
X0422051Y0331318D01*
X0422092Y0331375D01*
X0422130Y0331435D01*
X0422165Y0331497D01*
X0422197Y0331561D01*
X0422225Y0331626D01*
X0422249Y0331692D01*
X0422270Y0331760D01*
X0422287Y0331829D01*
X0422301Y0331899D01*
X0422310Y0331969D01*
X0422316Y0332040D01*
X0422318Y0332111D01*
X0417282Y0330800D02*
X0415971Y0330800D01*
X0415909Y0330802D01*
X0415848Y0330808D01*
X0415787Y0330817D01*
X0415727Y0330831D01*
X0415667Y0330848D01*
X0415609Y0330869D01*
X0415552Y0330894D01*
X0415497Y0330922D01*
X0415444Y0330953D01*
X0415393Y0330988D01*
X0415344Y0331026D01*
X0415298Y0331066D01*
X0415254Y0331110D01*
X0415214Y0331156D01*
X0415176Y0331205D01*
X0415141Y0331256D01*
X0415110Y0331309D01*
X0415082Y0331364D01*
X0415057Y0331421D01*
X0415036Y0331479D01*
X0415019Y0331539D01*
X0415005Y0331599D01*
X0414996Y0331660D01*
X0414990Y0331721D01*
X0414988Y0331783D01*
X0414988Y0333750D01*
X0414990Y0333812D01*
X0414996Y0333873D01*
X0415005Y0333934D01*
X0415019Y0333994D01*
X0415036Y0334054D01*
X0415057Y0334112D01*
X0415082Y0334169D01*
X0415110Y0334224D01*
X0415141Y0334277D01*
X0415176Y0334328D01*
X0415214Y0334377D01*
X0415254Y0334423D01*
X0415298Y0334467D01*
X0415344Y0334507D01*
X0415393Y0334545D01*
X0415444Y0334580D01*
X0415497Y0334611D01*
X0415552Y0334639D01*
X0415609Y0334664D01*
X0415667Y0334685D01*
X0415727Y0334702D01*
X0415787Y0334716D01*
X0415848Y0334725D01*
X0415909Y0334731D01*
X0415971Y0334733D01*
X0417282Y0334733D01*
X0411774Y0332439D02*
X0410136Y0333094D01*
X0410135Y0333095D02*
X0410083Y0333118D01*
X0410032Y0333145D01*
X0409983Y0333175D01*
X0409936Y0333208D01*
X0409891Y0333244D01*
X0409849Y0333284D01*
X0409810Y0333326D01*
X0409774Y0333370D01*
X0409741Y0333417D01*
X0409711Y0333467D01*
X0409684Y0333518D01*
X0409661Y0333570D01*
X0409642Y0333624D01*
X0409626Y0333680D01*
X0409614Y0333736D01*
X0409606Y0333793D01*
X0409602Y0333850D01*
X0409601Y0333908D01*
X0409605Y0333965D01*
X0409612Y0334022D01*
X0409624Y0334079D01*
X0409639Y0334134D01*
X0409657Y0334189D01*
X0409680Y0334242D01*
X0409706Y0334293D01*
X0409735Y0334342D01*
X0409768Y0334390D01*
X0409804Y0334435D01*
X0409842Y0334477D01*
X0409884Y0334517D01*
X0409928Y0334554D01*
X0409975Y0334588D01*
X0410023Y0334619D01*
X0410074Y0334646D01*
X0410126Y0334670D01*
X0410180Y0334690D01*
X0410235Y0334706D01*
X0410291Y0334719D01*
X0410348Y0334728D01*
X0410406Y0334733D01*
X0410463Y0334734D01*
X0409644Y0331128D02*
X0409778Y0331082D01*
X0409913Y0331039D01*
X0410049Y0331000D01*
X0410186Y0330964D01*
X0410323Y0330932D01*
X0410462Y0330903D01*
X0410601Y0330877D01*
X0410741Y0330856D01*
X0410882Y0330837D01*
X0411022Y0330823D01*
X0411164Y0330812D01*
X0411305Y0330804D01*
X0411447Y0330801D01*
X0411447Y0330800D02*
X0411504Y0330801D01*
X0411562Y0330806D01*
X0411619Y0330815D01*
X0411675Y0330828D01*
X0411730Y0330844D01*
X0411784Y0330864D01*
X0411836Y0330888D01*
X0411887Y0330915D01*
X0411935Y0330946D01*
X0411982Y0330980D01*
X0412026Y0331017D01*
X0412068Y0331057D01*
X0412106Y0331099D01*
X0412142Y0331144D01*
X0412175Y0331192D01*
X0412204Y0331241D01*
X0412230Y0331292D01*
X0412253Y0331345D01*
X0412271Y0331400D01*
X0412286Y0331455D01*
X0412298Y0331512D01*
X0412305Y0331569D01*
X0412309Y0331626D01*
X0412308Y0331684D01*
X0412304Y0331741D01*
X0412296Y0331798D01*
X0412284Y0331854D01*
X0412268Y0331910D01*
X0412249Y0331964D01*
X0412226Y0332016D01*
X0412199Y0332067D01*
X0412169Y0332117D01*
X0412136Y0332164D01*
X0412100Y0332208D01*
X0412061Y0332250D01*
X0412019Y0332290D01*
X0411974Y0332326D01*
X0411927Y0332359D01*
X0411878Y0332389D01*
X0411827Y0332416D01*
X0411775Y0332439D01*
X0411938Y0334405D02*
X0411831Y0334451D01*
X0411722Y0334494D01*
X0411612Y0334534D01*
X0411500Y0334570D01*
X0411388Y0334602D01*
X0411274Y0334631D01*
X0411160Y0334657D01*
X0411045Y0334678D01*
X0410930Y0334697D01*
X0410813Y0334711D01*
X0410697Y0334722D01*
X0410580Y0334729D01*
X0410463Y0334733D01*
X0406768Y0333094D02*
X0402834Y0333094D01*
X0400163Y0334733D02*
X0398852Y0330800D01*
X0397541Y0334733D01*
X0350959Y0390800D02*
X0349320Y0390800D01*
X0349258Y0390802D01*
X0349197Y0390808D01*
X0349136Y0390817D01*
X0349076Y0390831D01*
X0349016Y0390848D01*
X0348958Y0390869D01*
X0348901Y0390894D01*
X0348846Y0390922D01*
X0348793Y0390953D01*
X0348742Y0390988D01*
X0348693Y0391026D01*
X0348647Y0391066D01*
X0348603Y0391110D01*
X0348563Y0391156D01*
X0348525Y0391205D01*
X0348490Y0391256D01*
X0348459Y0391309D01*
X0348431Y0391364D01*
X0348406Y0391421D01*
X0348385Y0391479D01*
X0348368Y0391539D01*
X0348354Y0391599D01*
X0348345Y0391660D01*
X0348339Y0391721D01*
X0348337Y0391783D01*
X0348337Y0393422D01*
X0348337Y0392767D02*
X0350959Y0392767D01*
X0350959Y0393422D01*
X0350957Y0393493D01*
X0350951Y0393564D01*
X0350942Y0393634D01*
X0350928Y0393704D01*
X0350911Y0393773D01*
X0350890Y0393841D01*
X0350866Y0393907D01*
X0350838Y0393972D01*
X0350806Y0394036D01*
X0350771Y0394098D01*
X0350733Y0394158D01*
X0350692Y0394215D01*
X0350647Y0394271D01*
X0350600Y0394324D01*
X0350550Y0394374D01*
X0350497Y0394421D01*
X0350441Y0394466D01*
X0350384Y0394507D01*
X0350324Y0394545D01*
X0350262Y0394580D01*
X0350198Y0394612D01*
X0350133Y0394640D01*
X0350067Y0394664D01*
X0349999Y0394685D01*
X0349930Y0394702D01*
X0349860Y0394716D01*
X0349790Y0394725D01*
X0349719Y0394731D01*
X0349648Y0394733D01*
X0349577Y0394731D01*
X0349506Y0394725D01*
X0349436Y0394716D01*
X0349366Y0394702D01*
X0349297Y0394685D01*
X0349229Y0394664D01*
X0349163Y0394640D01*
X0349098Y0394612D01*
X0349034Y0394580D01*
X0348972Y0394545D01*
X0348912Y0394507D01*
X0348855Y0394466D01*
X0348799Y0394421D01*
X0348746Y0394374D01*
X0348696Y0394324D01*
X0348649Y0394271D01*
X0348604Y0394215D01*
X0348563Y0394158D01*
X0348525Y0394098D01*
X0348490Y0394036D01*
X0348458Y0393972D01*
X0348430Y0393907D01*
X0348406Y0393841D01*
X0348385Y0393773D01*
X0348368Y0393704D01*
X0348354Y0393634D01*
X0348345Y0393564D01*
X0348339Y0393493D01*
X0348337Y0393422D01*
X0346251Y0394078D02*
X0346251Y0394733D01*
X0344284Y0394733D01*
X0344284Y0390800D01*
X0341318Y0392111D02*
X0341318Y0393422D01*
X0341316Y0393493D01*
X0341310Y0393564D01*
X0341301Y0393634D01*
X0341287Y0393704D01*
X0341270Y0393773D01*
X0341249Y0393841D01*
X0341225Y0393907D01*
X0341197Y0393972D01*
X0341165Y0394036D01*
X0341130Y0394098D01*
X0341092Y0394158D01*
X0341051Y0394215D01*
X0341006Y0394271D01*
X0340959Y0394324D01*
X0340909Y0394374D01*
X0340856Y0394421D01*
X0340800Y0394466D01*
X0340743Y0394507D01*
X0340683Y0394545D01*
X0340621Y0394580D01*
X0340557Y0394612D01*
X0340492Y0394640D01*
X0340426Y0394664D01*
X0340358Y0394685D01*
X0340289Y0394702D01*
X0340219Y0394716D01*
X0340149Y0394725D01*
X0340078Y0394731D01*
X0340007Y0394733D01*
X0339936Y0394731D01*
X0339865Y0394725D01*
X0339795Y0394716D01*
X0339725Y0394702D01*
X0339656Y0394685D01*
X0339588Y0394664D01*
X0339522Y0394640D01*
X0339457Y0394612D01*
X0339393Y0394580D01*
X0339331Y0394545D01*
X0339271Y0394507D01*
X0339214Y0394466D01*
X0339158Y0394421D01*
X0339105Y0394374D01*
X0339055Y0394324D01*
X0339008Y0394271D01*
X0338963Y0394215D01*
X0338922Y0394158D01*
X0338884Y0394098D01*
X0338849Y0394036D01*
X0338817Y0393972D01*
X0338789Y0393907D01*
X0338765Y0393841D01*
X0338744Y0393773D01*
X0338727Y0393704D01*
X0338713Y0393634D01*
X0338704Y0393564D01*
X0338698Y0393493D01*
X0338696Y0393422D01*
X0338695Y0393422D02*
X0338695Y0392111D01*
X0338696Y0392111D02*
X0338698Y0392040D01*
X0338704Y0391969D01*
X0338713Y0391899D01*
X0338727Y0391829D01*
X0338744Y0391760D01*
X0338765Y0391692D01*
X0338789Y0391626D01*
X0338817Y0391561D01*
X0338849Y0391497D01*
X0338884Y0391435D01*
X0338922Y0391375D01*
X0338963Y0391318D01*
X0339008Y0391262D01*
X0339055Y0391209D01*
X0339105Y0391159D01*
X0339158Y0391112D01*
X0339214Y0391067D01*
X0339271Y0391026D01*
X0339331Y0390988D01*
X0339393Y0390953D01*
X0339457Y0390921D01*
X0339522Y0390893D01*
X0339588Y0390869D01*
X0339656Y0390848D01*
X0339725Y0390831D01*
X0339795Y0390817D01*
X0339865Y0390808D01*
X0339936Y0390802D01*
X0340007Y0390800D01*
X0340078Y0390802D01*
X0340149Y0390808D01*
X0340219Y0390817D01*
X0340289Y0390831D01*
X0340358Y0390848D01*
X0340426Y0390869D01*
X0340492Y0390893D01*
X0340557Y0390921D01*
X0340621Y0390953D01*
X0340683Y0390988D01*
X0340743Y0391026D01*
X0340800Y0391067D01*
X0340856Y0391112D01*
X0340909Y0391159D01*
X0340959Y0391209D01*
X0341006Y0391262D01*
X0341051Y0391318D01*
X0341092Y0391375D01*
X0341130Y0391435D01*
X0341165Y0391497D01*
X0341197Y0391561D01*
X0341225Y0391626D01*
X0341249Y0391692D01*
X0341270Y0391760D01*
X0341287Y0391829D01*
X0341301Y0391899D01*
X0341310Y0391969D01*
X0341316Y0392040D01*
X0341318Y0392111D01*
X0336282Y0390800D02*
X0334971Y0390800D01*
X0334909Y0390802D01*
X0334848Y0390808D01*
X0334787Y0390817D01*
X0334727Y0390831D01*
X0334667Y0390848D01*
X0334609Y0390869D01*
X0334552Y0390894D01*
X0334497Y0390922D01*
X0334444Y0390953D01*
X0334393Y0390988D01*
X0334344Y0391026D01*
X0334298Y0391066D01*
X0334254Y0391110D01*
X0334214Y0391156D01*
X0334176Y0391205D01*
X0334141Y0391256D01*
X0334110Y0391309D01*
X0334082Y0391364D01*
X0334057Y0391421D01*
X0334036Y0391479D01*
X0334019Y0391539D01*
X0334005Y0391599D01*
X0333996Y0391660D01*
X0333990Y0391721D01*
X0333988Y0391783D01*
X0333988Y0393750D01*
X0333990Y0393812D01*
X0333996Y0393873D01*
X0334005Y0393934D01*
X0334019Y0393994D01*
X0334036Y0394054D01*
X0334057Y0394112D01*
X0334082Y0394169D01*
X0334110Y0394224D01*
X0334141Y0394277D01*
X0334176Y0394328D01*
X0334214Y0394377D01*
X0334254Y0394423D01*
X0334298Y0394467D01*
X0334344Y0394507D01*
X0334393Y0394545D01*
X0334444Y0394580D01*
X0334497Y0394611D01*
X0334552Y0394639D01*
X0334609Y0394664D01*
X0334667Y0394685D01*
X0334727Y0394702D01*
X0334787Y0394716D01*
X0334848Y0394725D01*
X0334909Y0394731D01*
X0334971Y0394733D01*
X0336282Y0394733D01*
X0330774Y0392439D02*
X0329136Y0393094D01*
X0329135Y0393095D02*
X0329083Y0393118D01*
X0329032Y0393145D01*
X0328983Y0393175D01*
X0328936Y0393208D01*
X0328891Y0393244D01*
X0328849Y0393284D01*
X0328810Y0393326D01*
X0328774Y0393370D01*
X0328741Y0393417D01*
X0328711Y0393467D01*
X0328684Y0393518D01*
X0328661Y0393570D01*
X0328642Y0393624D01*
X0328626Y0393680D01*
X0328614Y0393736D01*
X0328606Y0393793D01*
X0328602Y0393850D01*
X0328601Y0393908D01*
X0328605Y0393965D01*
X0328612Y0394022D01*
X0328624Y0394079D01*
X0328639Y0394134D01*
X0328657Y0394189D01*
X0328680Y0394242D01*
X0328706Y0394293D01*
X0328735Y0394342D01*
X0328768Y0394390D01*
X0328804Y0394435D01*
X0328842Y0394477D01*
X0328884Y0394517D01*
X0328928Y0394554D01*
X0328975Y0394588D01*
X0329023Y0394619D01*
X0329074Y0394646D01*
X0329126Y0394670D01*
X0329180Y0394690D01*
X0329235Y0394706D01*
X0329291Y0394719D01*
X0329348Y0394728D01*
X0329406Y0394733D01*
X0329463Y0394734D01*
X0328644Y0391128D02*
X0328778Y0391082D01*
X0328913Y0391039D01*
X0329049Y0391000D01*
X0329186Y0390964D01*
X0329323Y0390932D01*
X0329462Y0390903D01*
X0329601Y0390877D01*
X0329741Y0390856D01*
X0329882Y0390837D01*
X0330022Y0390823D01*
X0330164Y0390812D01*
X0330305Y0390804D01*
X0330447Y0390801D01*
X0330447Y0390800D02*
X0330504Y0390801D01*
X0330562Y0390806D01*
X0330619Y0390815D01*
X0330675Y0390828D01*
X0330730Y0390844D01*
X0330784Y0390864D01*
X0330836Y0390888D01*
X0330887Y0390915D01*
X0330935Y0390946D01*
X0330982Y0390980D01*
X0331026Y0391017D01*
X0331068Y0391057D01*
X0331106Y0391099D01*
X0331142Y0391144D01*
X0331175Y0391192D01*
X0331204Y0391241D01*
X0331230Y0391292D01*
X0331253Y0391345D01*
X0331271Y0391400D01*
X0331286Y0391455D01*
X0331298Y0391512D01*
X0331305Y0391569D01*
X0331309Y0391626D01*
X0331308Y0391684D01*
X0331304Y0391741D01*
X0331296Y0391798D01*
X0331284Y0391854D01*
X0331268Y0391910D01*
X0331249Y0391964D01*
X0331226Y0392016D01*
X0331199Y0392067D01*
X0331169Y0392117D01*
X0331136Y0392164D01*
X0331100Y0392208D01*
X0331061Y0392250D01*
X0331019Y0392290D01*
X0330974Y0392326D01*
X0330927Y0392359D01*
X0330878Y0392389D01*
X0330827Y0392416D01*
X0330775Y0392439D01*
X0330938Y0394405D02*
X0330831Y0394451D01*
X0330722Y0394494D01*
X0330612Y0394534D01*
X0330500Y0394570D01*
X0330388Y0394602D01*
X0330274Y0394631D01*
X0330160Y0394657D01*
X0330045Y0394678D01*
X0329930Y0394697D01*
X0329813Y0394711D01*
X0329697Y0394722D01*
X0329580Y0394729D01*
X0329463Y0394733D01*
X0325768Y0393094D02*
X0321834Y0393094D01*
X0319163Y0394733D02*
X0317852Y0390800D01*
X0316541Y0394733D01*
X0248959Y0393422D02*
X0248959Y0392767D01*
X0246337Y0392767D01*
X0246337Y0393422D02*
X0246337Y0391783D01*
X0246339Y0391721D01*
X0246345Y0391660D01*
X0246354Y0391599D01*
X0246368Y0391539D01*
X0246385Y0391479D01*
X0246406Y0391421D01*
X0246431Y0391364D01*
X0246459Y0391309D01*
X0246490Y0391256D01*
X0246525Y0391205D01*
X0246563Y0391156D01*
X0246603Y0391110D01*
X0246647Y0391066D01*
X0246693Y0391026D01*
X0246742Y0390988D01*
X0246793Y0390953D01*
X0246846Y0390922D01*
X0246901Y0390894D01*
X0246958Y0390869D01*
X0247016Y0390848D01*
X0247076Y0390831D01*
X0247136Y0390817D01*
X0247197Y0390808D01*
X0247258Y0390802D01*
X0247320Y0390800D01*
X0248959Y0390800D01*
X0248959Y0393422D02*
X0248957Y0393493D01*
X0248951Y0393564D01*
X0248942Y0393634D01*
X0248928Y0393704D01*
X0248911Y0393773D01*
X0248890Y0393841D01*
X0248866Y0393907D01*
X0248838Y0393972D01*
X0248806Y0394036D01*
X0248771Y0394098D01*
X0248733Y0394158D01*
X0248692Y0394215D01*
X0248647Y0394271D01*
X0248600Y0394324D01*
X0248550Y0394374D01*
X0248497Y0394421D01*
X0248441Y0394466D01*
X0248384Y0394507D01*
X0248324Y0394545D01*
X0248262Y0394580D01*
X0248198Y0394612D01*
X0248133Y0394640D01*
X0248067Y0394664D01*
X0247999Y0394685D01*
X0247930Y0394702D01*
X0247860Y0394716D01*
X0247790Y0394725D01*
X0247719Y0394731D01*
X0247648Y0394733D01*
X0247577Y0394731D01*
X0247506Y0394725D01*
X0247436Y0394716D01*
X0247366Y0394702D01*
X0247297Y0394685D01*
X0247229Y0394664D01*
X0247163Y0394640D01*
X0247098Y0394612D01*
X0247034Y0394580D01*
X0246972Y0394545D01*
X0246912Y0394507D01*
X0246855Y0394466D01*
X0246799Y0394421D01*
X0246746Y0394374D01*
X0246696Y0394324D01*
X0246649Y0394271D01*
X0246604Y0394215D01*
X0246563Y0394158D01*
X0246525Y0394098D01*
X0246490Y0394036D01*
X0246458Y0393972D01*
X0246430Y0393907D01*
X0246406Y0393841D01*
X0246385Y0393773D01*
X0246368Y0393704D01*
X0246354Y0393634D01*
X0246345Y0393564D01*
X0246339Y0393493D01*
X0246337Y0393422D01*
X0244251Y0394078D02*
X0244251Y0394733D01*
X0242284Y0394733D01*
X0242284Y0390800D01*
X0239318Y0392111D02*
X0239318Y0393422D01*
X0239316Y0393493D01*
X0239310Y0393564D01*
X0239301Y0393634D01*
X0239287Y0393704D01*
X0239270Y0393773D01*
X0239249Y0393841D01*
X0239225Y0393907D01*
X0239197Y0393972D01*
X0239165Y0394036D01*
X0239130Y0394098D01*
X0239092Y0394158D01*
X0239051Y0394215D01*
X0239006Y0394271D01*
X0238959Y0394324D01*
X0238909Y0394374D01*
X0238856Y0394421D01*
X0238800Y0394466D01*
X0238743Y0394507D01*
X0238683Y0394545D01*
X0238621Y0394580D01*
X0238557Y0394612D01*
X0238492Y0394640D01*
X0238426Y0394664D01*
X0238358Y0394685D01*
X0238289Y0394702D01*
X0238219Y0394716D01*
X0238149Y0394725D01*
X0238078Y0394731D01*
X0238007Y0394733D01*
X0237936Y0394731D01*
X0237865Y0394725D01*
X0237795Y0394716D01*
X0237725Y0394702D01*
X0237656Y0394685D01*
X0237588Y0394664D01*
X0237522Y0394640D01*
X0237457Y0394612D01*
X0237393Y0394580D01*
X0237331Y0394545D01*
X0237271Y0394507D01*
X0237214Y0394466D01*
X0237158Y0394421D01*
X0237105Y0394374D01*
X0237055Y0394324D01*
X0237008Y0394271D01*
X0236963Y0394215D01*
X0236922Y0394158D01*
X0236884Y0394098D01*
X0236849Y0394036D01*
X0236817Y0393972D01*
X0236789Y0393907D01*
X0236765Y0393841D01*
X0236744Y0393773D01*
X0236727Y0393704D01*
X0236713Y0393634D01*
X0236704Y0393564D01*
X0236698Y0393493D01*
X0236696Y0393422D01*
X0236695Y0393422D02*
X0236695Y0392111D01*
X0236696Y0392111D02*
X0236698Y0392040D01*
X0236704Y0391969D01*
X0236713Y0391899D01*
X0236727Y0391829D01*
X0236744Y0391760D01*
X0236765Y0391692D01*
X0236789Y0391626D01*
X0236817Y0391561D01*
X0236849Y0391497D01*
X0236884Y0391435D01*
X0236922Y0391375D01*
X0236963Y0391318D01*
X0237008Y0391262D01*
X0237055Y0391209D01*
X0237105Y0391159D01*
X0237158Y0391112D01*
X0237214Y0391067D01*
X0237271Y0391026D01*
X0237331Y0390988D01*
X0237393Y0390953D01*
X0237457Y0390921D01*
X0237522Y0390893D01*
X0237588Y0390869D01*
X0237656Y0390848D01*
X0237725Y0390831D01*
X0237795Y0390817D01*
X0237865Y0390808D01*
X0237936Y0390802D01*
X0238007Y0390800D01*
X0238078Y0390802D01*
X0238149Y0390808D01*
X0238219Y0390817D01*
X0238289Y0390831D01*
X0238358Y0390848D01*
X0238426Y0390869D01*
X0238492Y0390893D01*
X0238557Y0390921D01*
X0238621Y0390953D01*
X0238683Y0390988D01*
X0238743Y0391026D01*
X0238800Y0391067D01*
X0238856Y0391112D01*
X0238909Y0391159D01*
X0238959Y0391209D01*
X0239006Y0391262D01*
X0239051Y0391318D01*
X0239092Y0391375D01*
X0239130Y0391435D01*
X0239165Y0391497D01*
X0239197Y0391561D01*
X0239225Y0391626D01*
X0239249Y0391692D01*
X0239270Y0391760D01*
X0239287Y0391829D01*
X0239301Y0391899D01*
X0239310Y0391969D01*
X0239316Y0392040D01*
X0239318Y0392111D01*
X0234282Y0390800D02*
X0232971Y0390800D01*
X0232909Y0390802D01*
X0232848Y0390808D01*
X0232787Y0390817D01*
X0232727Y0390831D01*
X0232667Y0390848D01*
X0232609Y0390869D01*
X0232552Y0390894D01*
X0232497Y0390922D01*
X0232444Y0390953D01*
X0232393Y0390988D01*
X0232344Y0391026D01*
X0232298Y0391066D01*
X0232254Y0391110D01*
X0232214Y0391156D01*
X0232176Y0391205D01*
X0232141Y0391256D01*
X0232110Y0391309D01*
X0232082Y0391364D01*
X0232057Y0391421D01*
X0232036Y0391479D01*
X0232019Y0391539D01*
X0232005Y0391599D01*
X0231996Y0391660D01*
X0231990Y0391721D01*
X0231988Y0391783D01*
X0231988Y0393750D01*
X0231990Y0393812D01*
X0231996Y0393873D01*
X0232005Y0393934D01*
X0232019Y0393994D01*
X0232036Y0394054D01*
X0232057Y0394112D01*
X0232082Y0394169D01*
X0232110Y0394224D01*
X0232141Y0394277D01*
X0232176Y0394328D01*
X0232214Y0394377D01*
X0232254Y0394423D01*
X0232298Y0394467D01*
X0232344Y0394507D01*
X0232393Y0394545D01*
X0232444Y0394580D01*
X0232497Y0394611D01*
X0232552Y0394639D01*
X0232609Y0394664D01*
X0232667Y0394685D01*
X0232727Y0394702D01*
X0232787Y0394716D01*
X0232848Y0394725D01*
X0232909Y0394731D01*
X0232971Y0394733D01*
X0234282Y0394733D01*
X0228774Y0392439D02*
X0227136Y0393094D01*
X0227135Y0393095D02*
X0227083Y0393118D01*
X0227032Y0393145D01*
X0226983Y0393175D01*
X0226936Y0393208D01*
X0226891Y0393244D01*
X0226849Y0393284D01*
X0226810Y0393326D01*
X0226774Y0393370D01*
X0226741Y0393417D01*
X0226711Y0393467D01*
X0226684Y0393518D01*
X0226661Y0393570D01*
X0226642Y0393624D01*
X0226626Y0393680D01*
X0226614Y0393736D01*
X0226606Y0393793D01*
X0226602Y0393850D01*
X0226601Y0393908D01*
X0226605Y0393965D01*
X0226612Y0394022D01*
X0226624Y0394079D01*
X0226639Y0394134D01*
X0226657Y0394189D01*
X0226680Y0394242D01*
X0226706Y0394293D01*
X0226735Y0394342D01*
X0226768Y0394390D01*
X0226804Y0394435D01*
X0226842Y0394477D01*
X0226884Y0394517D01*
X0226928Y0394554D01*
X0226975Y0394588D01*
X0227023Y0394619D01*
X0227074Y0394646D01*
X0227126Y0394670D01*
X0227180Y0394690D01*
X0227235Y0394706D01*
X0227291Y0394719D01*
X0227348Y0394728D01*
X0227406Y0394733D01*
X0227463Y0394734D01*
X0226644Y0391128D02*
X0226778Y0391082D01*
X0226913Y0391039D01*
X0227049Y0391000D01*
X0227186Y0390964D01*
X0227323Y0390932D01*
X0227462Y0390903D01*
X0227601Y0390877D01*
X0227741Y0390856D01*
X0227882Y0390837D01*
X0228022Y0390823D01*
X0228164Y0390812D01*
X0228305Y0390804D01*
X0228447Y0390801D01*
X0228447Y0390800D02*
X0228504Y0390801D01*
X0228562Y0390806D01*
X0228619Y0390815D01*
X0228675Y0390828D01*
X0228730Y0390844D01*
X0228784Y0390864D01*
X0228836Y0390888D01*
X0228887Y0390915D01*
X0228935Y0390946D01*
X0228982Y0390980D01*
X0229026Y0391017D01*
X0229068Y0391057D01*
X0229106Y0391099D01*
X0229142Y0391144D01*
X0229175Y0391192D01*
X0229204Y0391241D01*
X0229230Y0391292D01*
X0229253Y0391345D01*
X0229271Y0391400D01*
X0229286Y0391455D01*
X0229298Y0391512D01*
X0229305Y0391569D01*
X0229309Y0391626D01*
X0229308Y0391684D01*
X0229304Y0391741D01*
X0229296Y0391798D01*
X0229284Y0391854D01*
X0229268Y0391910D01*
X0229249Y0391964D01*
X0229226Y0392016D01*
X0229199Y0392067D01*
X0229169Y0392117D01*
X0229136Y0392164D01*
X0229100Y0392208D01*
X0229061Y0392250D01*
X0229019Y0392290D01*
X0228974Y0392326D01*
X0228927Y0392359D01*
X0228878Y0392389D01*
X0228827Y0392416D01*
X0228775Y0392439D01*
X0228938Y0394405D02*
X0228831Y0394451D01*
X0228722Y0394494D01*
X0228612Y0394534D01*
X0228500Y0394570D01*
X0228388Y0394602D01*
X0228274Y0394631D01*
X0228160Y0394657D01*
X0228045Y0394678D01*
X0227930Y0394697D01*
X0227813Y0394711D01*
X0227697Y0394722D01*
X0227580Y0394729D01*
X0227463Y0394733D01*
X0223768Y0393094D02*
X0219834Y0393094D01*
X0217163Y0394733D02*
X0215852Y0390800D01*
X0214541Y0394733D01*
X0146959Y0393422D02*
X0146959Y0392767D01*
X0144337Y0392767D01*
X0144337Y0393422D02*
X0144337Y0391783D01*
X0144339Y0391721D01*
X0144345Y0391660D01*
X0144354Y0391599D01*
X0144368Y0391539D01*
X0144385Y0391479D01*
X0144406Y0391421D01*
X0144431Y0391364D01*
X0144459Y0391309D01*
X0144490Y0391256D01*
X0144525Y0391205D01*
X0144563Y0391156D01*
X0144603Y0391110D01*
X0144647Y0391066D01*
X0144693Y0391026D01*
X0144742Y0390988D01*
X0144793Y0390953D01*
X0144846Y0390922D01*
X0144901Y0390894D01*
X0144958Y0390869D01*
X0145016Y0390848D01*
X0145076Y0390831D01*
X0145136Y0390817D01*
X0145197Y0390808D01*
X0145258Y0390802D01*
X0145320Y0390800D01*
X0146959Y0390800D01*
X0146959Y0393422D02*
X0146957Y0393493D01*
X0146951Y0393564D01*
X0146942Y0393634D01*
X0146928Y0393704D01*
X0146911Y0393773D01*
X0146890Y0393841D01*
X0146866Y0393907D01*
X0146838Y0393972D01*
X0146806Y0394036D01*
X0146771Y0394098D01*
X0146733Y0394158D01*
X0146692Y0394215D01*
X0146647Y0394271D01*
X0146600Y0394324D01*
X0146550Y0394374D01*
X0146497Y0394421D01*
X0146441Y0394466D01*
X0146384Y0394507D01*
X0146324Y0394545D01*
X0146262Y0394580D01*
X0146198Y0394612D01*
X0146133Y0394640D01*
X0146067Y0394664D01*
X0145999Y0394685D01*
X0145930Y0394702D01*
X0145860Y0394716D01*
X0145790Y0394725D01*
X0145719Y0394731D01*
X0145648Y0394733D01*
X0145577Y0394731D01*
X0145506Y0394725D01*
X0145436Y0394716D01*
X0145366Y0394702D01*
X0145297Y0394685D01*
X0145229Y0394664D01*
X0145163Y0394640D01*
X0145098Y0394612D01*
X0145034Y0394580D01*
X0144972Y0394545D01*
X0144912Y0394507D01*
X0144855Y0394466D01*
X0144799Y0394421D01*
X0144746Y0394374D01*
X0144696Y0394324D01*
X0144649Y0394271D01*
X0144604Y0394215D01*
X0144563Y0394158D01*
X0144525Y0394098D01*
X0144490Y0394036D01*
X0144458Y0393972D01*
X0144430Y0393907D01*
X0144406Y0393841D01*
X0144385Y0393773D01*
X0144368Y0393704D01*
X0144354Y0393634D01*
X0144345Y0393564D01*
X0144339Y0393493D01*
X0144337Y0393422D01*
X0142251Y0394078D02*
X0142251Y0394733D01*
X0140284Y0394733D01*
X0140284Y0390800D01*
X0137318Y0392111D02*
X0137318Y0393422D01*
X0137316Y0393493D01*
X0137310Y0393564D01*
X0137301Y0393634D01*
X0137287Y0393704D01*
X0137270Y0393773D01*
X0137249Y0393841D01*
X0137225Y0393907D01*
X0137197Y0393972D01*
X0137165Y0394036D01*
X0137130Y0394098D01*
X0137092Y0394158D01*
X0137051Y0394215D01*
X0137006Y0394271D01*
X0136959Y0394324D01*
X0136909Y0394374D01*
X0136856Y0394421D01*
X0136800Y0394466D01*
X0136743Y0394507D01*
X0136683Y0394545D01*
X0136621Y0394580D01*
X0136557Y0394612D01*
X0136492Y0394640D01*
X0136426Y0394664D01*
X0136358Y0394685D01*
X0136289Y0394702D01*
X0136219Y0394716D01*
X0136149Y0394725D01*
X0136078Y0394731D01*
X0136007Y0394733D01*
X0135936Y0394731D01*
X0135865Y0394725D01*
X0135795Y0394716D01*
X0135725Y0394702D01*
X0135656Y0394685D01*
X0135588Y0394664D01*
X0135522Y0394640D01*
X0135457Y0394612D01*
X0135393Y0394580D01*
X0135331Y0394545D01*
X0135271Y0394507D01*
X0135214Y0394466D01*
X0135158Y0394421D01*
X0135105Y0394374D01*
X0135055Y0394324D01*
X0135008Y0394271D01*
X0134963Y0394215D01*
X0134922Y0394158D01*
X0134884Y0394098D01*
X0134849Y0394036D01*
X0134817Y0393972D01*
X0134789Y0393907D01*
X0134765Y0393841D01*
X0134744Y0393773D01*
X0134727Y0393704D01*
X0134713Y0393634D01*
X0134704Y0393564D01*
X0134698Y0393493D01*
X0134696Y0393422D01*
X0134695Y0393422D02*
X0134695Y0392111D01*
X0134696Y0392111D02*
X0134698Y0392040D01*
X0134704Y0391969D01*
X0134713Y0391899D01*
X0134727Y0391829D01*
X0134744Y0391760D01*
X0134765Y0391692D01*
X0134789Y0391626D01*
X0134817Y0391561D01*
X0134849Y0391497D01*
X0134884Y0391435D01*
X0134922Y0391375D01*
X0134963Y0391318D01*
X0135008Y0391262D01*
X0135055Y0391209D01*
X0135105Y0391159D01*
X0135158Y0391112D01*
X0135214Y0391067D01*
X0135271Y0391026D01*
X0135331Y0390988D01*
X0135393Y0390953D01*
X0135457Y0390921D01*
X0135522Y0390893D01*
X0135588Y0390869D01*
X0135656Y0390848D01*
X0135725Y0390831D01*
X0135795Y0390817D01*
X0135865Y0390808D01*
X0135936Y0390802D01*
X0136007Y0390800D01*
X0136078Y0390802D01*
X0136149Y0390808D01*
X0136219Y0390817D01*
X0136289Y0390831D01*
X0136358Y0390848D01*
X0136426Y0390869D01*
X0136492Y0390893D01*
X0136557Y0390921D01*
X0136621Y0390953D01*
X0136683Y0390988D01*
X0136743Y0391026D01*
X0136800Y0391067D01*
X0136856Y0391112D01*
X0136909Y0391159D01*
X0136959Y0391209D01*
X0137006Y0391262D01*
X0137051Y0391318D01*
X0137092Y0391375D01*
X0137130Y0391435D01*
X0137165Y0391497D01*
X0137197Y0391561D01*
X0137225Y0391626D01*
X0137249Y0391692D01*
X0137270Y0391760D01*
X0137287Y0391829D01*
X0137301Y0391899D01*
X0137310Y0391969D01*
X0137316Y0392040D01*
X0137318Y0392111D01*
X0132282Y0390800D02*
X0130971Y0390800D01*
X0130909Y0390802D01*
X0130848Y0390808D01*
X0130787Y0390817D01*
X0130727Y0390831D01*
X0130667Y0390848D01*
X0130609Y0390869D01*
X0130552Y0390894D01*
X0130497Y0390922D01*
X0130444Y0390953D01*
X0130393Y0390988D01*
X0130344Y0391026D01*
X0130298Y0391066D01*
X0130254Y0391110D01*
X0130214Y0391156D01*
X0130176Y0391205D01*
X0130141Y0391256D01*
X0130110Y0391309D01*
X0130082Y0391364D01*
X0130057Y0391421D01*
X0130036Y0391479D01*
X0130019Y0391539D01*
X0130005Y0391599D01*
X0129996Y0391660D01*
X0129990Y0391721D01*
X0129988Y0391783D01*
X0129988Y0393750D01*
X0129990Y0393812D01*
X0129996Y0393873D01*
X0130005Y0393934D01*
X0130019Y0393994D01*
X0130036Y0394054D01*
X0130057Y0394112D01*
X0130082Y0394169D01*
X0130110Y0394224D01*
X0130141Y0394277D01*
X0130176Y0394328D01*
X0130214Y0394377D01*
X0130254Y0394423D01*
X0130298Y0394467D01*
X0130344Y0394507D01*
X0130393Y0394545D01*
X0130444Y0394580D01*
X0130497Y0394611D01*
X0130552Y0394639D01*
X0130609Y0394664D01*
X0130667Y0394685D01*
X0130727Y0394702D01*
X0130787Y0394716D01*
X0130848Y0394725D01*
X0130909Y0394731D01*
X0130971Y0394733D01*
X0132282Y0394733D01*
X0126774Y0392439D02*
X0125136Y0393094D01*
X0125135Y0393095D02*
X0125083Y0393118D01*
X0125032Y0393145D01*
X0124983Y0393175D01*
X0124936Y0393208D01*
X0124891Y0393244D01*
X0124849Y0393284D01*
X0124810Y0393326D01*
X0124774Y0393370D01*
X0124741Y0393417D01*
X0124711Y0393467D01*
X0124684Y0393518D01*
X0124661Y0393570D01*
X0124642Y0393624D01*
X0124626Y0393680D01*
X0124614Y0393736D01*
X0124606Y0393793D01*
X0124602Y0393850D01*
X0124601Y0393908D01*
X0124605Y0393965D01*
X0124612Y0394022D01*
X0124624Y0394079D01*
X0124639Y0394134D01*
X0124657Y0394189D01*
X0124680Y0394242D01*
X0124706Y0394293D01*
X0124735Y0394342D01*
X0124768Y0394390D01*
X0124804Y0394435D01*
X0124842Y0394477D01*
X0124884Y0394517D01*
X0124928Y0394554D01*
X0124975Y0394588D01*
X0125023Y0394619D01*
X0125074Y0394646D01*
X0125126Y0394670D01*
X0125180Y0394690D01*
X0125235Y0394706D01*
X0125291Y0394719D01*
X0125348Y0394728D01*
X0125406Y0394733D01*
X0125463Y0394734D01*
X0124644Y0391128D02*
X0124778Y0391082D01*
X0124913Y0391039D01*
X0125049Y0391000D01*
X0125186Y0390964D01*
X0125323Y0390932D01*
X0125462Y0390903D01*
X0125601Y0390877D01*
X0125741Y0390856D01*
X0125882Y0390837D01*
X0126022Y0390823D01*
X0126164Y0390812D01*
X0126305Y0390804D01*
X0126447Y0390801D01*
X0126447Y0390800D02*
X0126504Y0390801D01*
X0126562Y0390806D01*
X0126619Y0390815D01*
X0126675Y0390828D01*
X0126730Y0390844D01*
X0126784Y0390864D01*
X0126836Y0390888D01*
X0126887Y0390915D01*
X0126935Y0390946D01*
X0126982Y0390980D01*
X0127026Y0391017D01*
X0127068Y0391057D01*
X0127106Y0391099D01*
X0127142Y0391144D01*
X0127175Y0391192D01*
X0127204Y0391241D01*
X0127230Y0391292D01*
X0127253Y0391345D01*
X0127271Y0391400D01*
X0127286Y0391455D01*
X0127298Y0391512D01*
X0127305Y0391569D01*
X0127309Y0391626D01*
X0127308Y0391684D01*
X0127304Y0391741D01*
X0127296Y0391798D01*
X0127284Y0391854D01*
X0127268Y0391910D01*
X0127249Y0391964D01*
X0127226Y0392016D01*
X0127199Y0392067D01*
X0127169Y0392117D01*
X0127136Y0392164D01*
X0127100Y0392208D01*
X0127061Y0392250D01*
X0127019Y0392290D01*
X0126974Y0392326D01*
X0126927Y0392359D01*
X0126878Y0392389D01*
X0126827Y0392416D01*
X0126775Y0392439D01*
X0126938Y0394405D02*
X0126831Y0394451D01*
X0126722Y0394494D01*
X0126612Y0394534D01*
X0126500Y0394570D01*
X0126388Y0394602D01*
X0126274Y0394631D01*
X0126160Y0394657D01*
X0126045Y0394678D01*
X0125930Y0394697D01*
X0125813Y0394711D01*
X0125697Y0394722D01*
X0125580Y0394729D01*
X0125463Y0394733D01*
X0121768Y0393094D02*
X0117834Y0393094D01*
X0115163Y0394733D02*
X0113852Y0390800D01*
X0112541Y0394733D01*
X0044959Y0393422D02*
X0044959Y0392767D01*
X0042337Y0392767D01*
X0042337Y0393422D02*
X0042337Y0391783D01*
X0042339Y0391721D01*
X0042345Y0391660D01*
X0042354Y0391599D01*
X0042368Y0391539D01*
X0042385Y0391479D01*
X0042406Y0391421D01*
X0042431Y0391364D01*
X0042459Y0391309D01*
X0042490Y0391256D01*
X0042525Y0391205D01*
X0042563Y0391156D01*
X0042603Y0391110D01*
X0042647Y0391066D01*
X0042693Y0391026D01*
X0042742Y0390988D01*
X0042793Y0390953D01*
X0042846Y0390922D01*
X0042901Y0390894D01*
X0042958Y0390869D01*
X0043016Y0390848D01*
X0043076Y0390831D01*
X0043136Y0390817D01*
X0043197Y0390808D01*
X0043258Y0390802D01*
X0043320Y0390800D01*
X0044959Y0390800D01*
X0044959Y0393422D02*
X0044957Y0393493D01*
X0044951Y0393564D01*
X0044942Y0393634D01*
X0044928Y0393704D01*
X0044911Y0393773D01*
X0044890Y0393841D01*
X0044866Y0393907D01*
X0044838Y0393972D01*
X0044806Y0394036D01*
X0044771Y0394098D01*
X0044733Y0394158D01*
X0044692Y0394215D01*
X0044647Y0394271D01*
X0044600Y0394324D01*
X0044550Y0394374D01*
X0044497Y0394421D01*
X0044441Y0394466D01*
X0044384Y0394507D01*
X0044324Y0394545D01*
X0044262Y0394580D01*
X0044198Y0394612D01*
X0044133Y0394640D01*
X0044067Y0394664D01*
X0043999Y0394685D01*
X0043930Y0394702D01*
X0043860Y0394716D01*
X0043790Y0394725D01*
X0043719Y0394731D01*
X0043648Y0394733D01*
X0043577Y0394731D01*
X0043506Y0394725D01*
X0043436Y0394716D01*
X0043366Y0394702D01*
X0043297Y0394685D01*
X0043229Y0394664D01*
X0043163Y0394640D01*
X0043098Y0394612D01*
X0043034Y0394580D01*
X0042972Y0394545D01*
X0042912Y0394507D01*
X0042855Y0394466D01*
X0042799Y0394421D01*
X0042746Y0394374D01*
X0042696Y0394324D01*
X0042649Y0394271D01*
X0042604Y0394215D01*
X0042563Y0394158D01*
X0042525Y0394098D01*
X0042490Y0394036D01*
X0042458Y0393972D01*
X0042430Y0393907D01*
X0042406Y0393841D01*
X0042385Y0393773D01*
X0042368Y0393704D01*
X0042354Y0393634D01*
X0042345Y0393564D01*
X0042339Y0393493D01*
X0042337Y0393422D01*
X0040251Y0394078D02*
X0040251Y0394733D01*
X0038284Y0394733D01*
X0038284Y0390800D01*
X0035318Y0392111D02*
X0035318Y0393422D01*
X0035316Y0393493D01*
X0035310Y0393564D01*
X0035301Y0393634D01*
X0035287Y0393704D01*
X0035270Y0393773D01*
X0035249Y0393841D01*
X0035225Y0393907D01*
X0035197Y0393972D01*
X0035165Y0394036D01*
X0035130Y0394098D01*
X0035092Y0394158D01*
X0035051Y0394215D01*
X0035006Y0394271D01*
X0034959Y0394324D01*
X0034909Y0394374D01*
X0034856Y0394421D01*
X0034800Y0394466D01*
X0034743Y0394507D01*
X0034683Y0394545D01*
X0034621Y0394580D01*
X0034557Y0394612D01*
X0034492Y0394640D01*
X0034426Y0394664D01*
X0034358Y0394685D01*
X0034289Y0394702D01*
X0034219Y0394716D01*
X0034149Y0394725D01*
X0034078Y0394731D01*
X0034007Y0394733D01*
X0033936Y0394731D01*
X0033865Y0394725D01*
X0033795Y0394716D01*
X0033725Y0394702D01*
X0033656Y0394685D01*
X0033588Y0394664D01*
X0033522Y0394640D01*
X0033457Y0394612D01*
X0033393Y0394580D01*
X0033331Y0394545D01*
X0033271Y0394507D01*
X0033214Y0394466D01*
X0033158Y0394421D01*
X0033105Y0394374D01*
X0033055Y0394324D01*
X0033008Y0394271D01*
X0032963Y0394215D01*
X0032922Y0394158D01*
X0032884Y0394098D01*
X0032849Y0394036D01*
X0032817Y0393972D01*
X0032789Y0393907D01*
X0032765Y0393841D01*
X0032744Y0393773D01*
X0032727Y0393704D01*
X0032713Y0393634D01*
X0032704Y0393564D01*
X0032698Y0393493D01*
X0032696Y0393422D01*
X0032695Y0393422D02*
X0032695Y0392111D01*
X0032696Y0392111D02*
X0032698Y0392040D01*
X0032704Y0391969D01*
X0032713Y0391899D01*
X0032727Y0391829D01*
X0032744Y0391760D01*
X0032765Y0391692D01*
X0032789Y0391626D01*
X0032817Y0391561D01*
X0032849Y0391497D01*
X0032884Y0391435D01*
X0032922Y0391375D01*
X0032963Y0391318D01*
X0033008Y0391262D01*
X0033055Y0391209D01*
X0033105Y0391159D01*
X0033158Y0391112D01*
X0033214Y0391067D01*
X0033271Y0391026D01*
X0033331Y0390988D01*
X0033393Y0390953D01*
X0033457Y0390921D01*
X0033522Y0390893D01*
X0033588Y0390869D01*
X0033656Y0390848D01*
X0033725Y0390831D01*
X0033795Y0390817D01*
X0033865Y0390808D01*
X0033936Y0390802D01*
X0034007Y0390800D01*
X0034078Y0390802D01*
X0034149Y0390808D01*
X0034219Y0390817D01*
X0034289Y0390831D01*
X0034358Y0390848D01*
X0034426Y0390869D01*
X0034492Y0390893D01*
X0034557Y0390921D01*
X0034621Y0390953D01*
X0034683Y0390988D01*
X0034743Y0391026D01*
X0034800Y0391067D01*
X0034856Y0391112D01*
X0034909Y0391159D01*
X0034959Y0391209D01*
X0035006Y0391262D01*
X0035051Y0391318D01*
X0035092Y0391375D01*
X0035130Y0391435D01*
X0035165Y0391497D01*
X0035197Y0391561D01*
X0035225Y0391626D01*
X0035249Y0391692D01*
X0035270Y0391760D01*
X0035287Y0391829D01*
X0035301Y0391899D01*
X0035310Y0391969D01*
X0035316Y0392040D01*
X0035318Y0392111D01*
X0030282Y0390800D02*
X0028971Y0390800D01*
X0028909Y0390802D01*
X0028848Y0390808D01*
X0028787Y0390817D01*
X0028727Y0390831D01*
X0028667Y0390848D01*
X0028609Y0390869D01*
X0028552Y0390894D01*
X0028497Y0390922D01*
X0028444Y0390953D01*
X0028393Y0390988D01*
X0028344Y0391026D01*
X0028298Y0391066D01*
X0028254Y0391110D01*
X0028214Y0391156D01*
X0028176Y0391205D01*
X0028141Y0391256D01*
X0028110Y0391309D01*
X0028082Y0391364D01*
X0028057Y0391421D01*
X0028036Y0391479D01*
X0028019Y0391539D01*
X0028005Y0391599D01*
X0027996Y0391660D01*
X0027990Y0391721D01*
X0027988Y0391783D01*
X0027988Y0393750D01*
X0027990Y0393812D01*
X0027996Y0393873D01*
X0028005Y0393934D01*
X0028019Y0393994D01*
X0028036Y0394054D01*
X0028057Y0394112D01*
X0028082Y0394169D01*
X0028110Y0394224D01*
X0028141Y0394277D01*
X0028176Y0394328D01*
X0028214Y0394377D01*
X0028254Y0394423D01*
X0028298Y0394467D01*
X0028344Y0394507D01*
X0028393Y0394545D01*
X0028444Y0394580D01*
X0028497Y0394611D01*
X0028552Y0394639D01*
X0028609Y0394664D01*
X0028667Y0394685D01*
X0028727Y0394702D01*
X0028787Y0394716D01*
X0028848Y0394725D01*
X0028909Y0394731D01*
X0028971Y0394733D01*
X0030282Y0394733D01*
X0024774Y0392439D02*
X0023136Y0393094D01*
X0023135Y0393095D02*
X0023083Y0393118D01*
X0023032Y0393145D01*
X0022983Y0393175D01*
X0022936Y0393208D01*
X0022891Y0393244D01*
X0022849Y0393284D01*
X0022810Y0393326D01*
X0022774Y0393370D01*
X0022741Y0393417D01*
X0022711Y0393467D01*
X0022684Y0393518D01*
X0022661Y0393570D01*
X0022642Y0393624D01*
X0022626Y0393680D01*
X0022614Y0393736D01*
X0022606Y0393793D01*
X0022602Y0393850D01*
X0022601Y0393908D01*
X0022605Y0393965D01*
X0022612Y0394022D01*
X0022624Y0394079D01*
X0022639Y0394134D01*
X0022657Y0394189D01*
X0022680Y0394242D01*
X0022706Y0394293D01*
X0022735Y0394342D01*
X0022768Y0394390D01*
X0022804Y0394435D01*
X0022842Y0394477D01*
X0022884Y0394517D01*
X0022928Y0394554D01*
X0022975Y0394588D01*
X0023023Y0394619D01*
X0023074Y0394646D01*
X0023126Y0394670D01*
X0023180Y0394690D01*
X0023235Y0394706D01*
X0023291Y0394719D01*
X0023348Y0394728D01*
X0023406Y0394733D01*
X0023463Y0394734D01*
X0022644Y0391128D02*
X0022778Y0391082D01*
X0022913Y0391039D01*
X0023049Y0391000D01*
X0023186Y0390964D01*
X0023323Y0390932D01*
X0023462Y0390903D01*
X0023601Y0390877D01*
X0023741Y0390856D01*
X0023882Y0390837D01*
X0024022Y0390823D01*
X0024164Y0390812D01*
X0024305Y0390804D01*
X0024447Y0390801D01*
X0024447Y0390800D02*
X0024504Y0390801D01*
X0024562Y0390806D01*
X0024619Y0390815D01*
X0024675Y0390828D01*
X0024730Y0390844D01*
X0024784Y0390864D01*
X0024836Y0390888D01*
X0024887Y0390915D01*
X0024935Y0390946D01*
X0024982Y0390980D01*
X0025026Y0391017D01*
X0025068Y0391057D01*
X0025106Y0391099D01*
X0025142Y0391144D01*
X0025175Y0391192D01*
X0025204Y0391241D01*
X0025230Y0391292D01*
X0025253Y0391345D01*
X0025271Y0391400D01*
X0025286Y0391455D01*
X0025298Y0391512D01*
X0025305Y0391569D01*
X0025309Y0391626D01*
X0025308Y0391684D01*
X0025304Y0391741D01*
X0025296Y0391798D01*
X0025284Y0391854D01*
X0025268Y0391910D01*
X0025249Y0391964D01*
X0025226Y0392016D01*
X0025199Y0392067D01*
X0025169Y0392117D01*
X0025136Y0392164D01*
X0025100Y0392208D01*
X0025061Y0392250D01*
X0025019Y0392290D01*
X0024974Y0392326D01*
X0024927Y0392359D01*
X0024878Y0392389D01*
X0024827Y0392416D01*
X0024775Y0392439D01*
X0024938Y0394405D02*
X0024831Y0394451D01*
X0024722Y0394494D01*
X0024612Y0394534D01*
X0024500Y0394570D01*
X0024388Y0394602D01*
X0024274Y0394631D01*
X0024160Y0394657D01*
X0024045Y0394678D01*
X0023930Y0394697D01*
X0023813Y0394711D01*
X0023697Y0394722D01*
X0023580Y0394729D01*
X0023463Y0394733D01*
X0019768Y0393094D02*
X0015834Y0393094D01*
X0013163Y0394733D02*
X0011852Y0390800D01*
X0010541Y0394733D01*
D13*
X0001750Y0026750D02*
X0001750Y0001750D01*
X0359750Y0001750D01*
X0359750Y0026750D01*
X0001750Y0026750D01*
X0001750Y0028750D02*
X0001750Y0332750D01*
X0026750Y0332750D01*
X0026750Y0028750D01*
X0001750Y0028750D01*
X0001750Y0334750D02*
X0001750Y0359750D01*
X0359750Y0359750D01*
X0359750Y0334750D01*
X0001750Y0334750D01*
X0334750Y0332750D02*
X0334750Y0028750D01*
X0359750Y0028750D01*
X0359750Y0332750D01*
X0334750Y0332750D01*
D14*
X0316750Y0242750D02*
X0316752Y0242904D01*
X0316758Y0243059D01*
X0316768Y0243213D01*
X0316782Y0243367D01*
X0316800Y0243520D01*
X0316821Y0243673D01*
X0316847Y0243826D01*
X0316877Y0243977D01*
X0316910Y0244128D01*
X0316948Y0244278D01*
X0316989Y0244427D01*
X0317034Y0244575D01*
X0317083Y0244721D01*
X0317136Y0244867D01*
X0317192Y0245010D01*
X0317252Y0245153D01*
X0317316Y0245293D01*
X0317383Y0245433D01*
X0317454Y0245570D01*
X0317528Y0245705D01*
X0317606Y0245839D01*
X0317687Y0245970D01*
X0317772Y0246099D01*
X0317860Y0246227D01*
X0317951Y0246351D01*
X0318045Y0246474D01*
X0318143Y0246594D01*
X0318243Y0246711D01*
X0318347Y0246826D01*
X0318453Y0246938D01*
X0318562Y0247047D01*
X0318674Y0247153D01*
X0318789Y0247257D01*
X0318906Y0247357D01*
X0319026Y0247455D01*
X0319149Y0247549D01*
X0319273Y0247640D01*
X0319401Y0247728D01*
X0319530Y0247813D01*
X0319661Y0247894D01*
X0319795Y0247972D01*
X0319930Y0248046D01*
X0320067Y0248117D01*
X0320207Y0248184D01*
X0320347Y0248248D01*
X0320490Y0248308D01*
X0320633Y0248364D01*
X0320779Y0248417D01*
X0320925Y0248466D01*
X0321073Y0248511D01*
X0321222Y0248552D01*
X0321372Y0248590D01*
X0321523Y0248623D01*
X0321674Y0248653D01*
X0321827Y0248679D01*
X0321980Y0248700D01*
X0322133Y0248718D01*
X0322287Y0248732D01*
X0322441Y0248742D01*
X0322596Y0248748D01*
X0322750Y0248750D01*
X0322904Y0248748D01*
X0323059Y0248742D01*
X0323213Y0248732D01*
X0323367Y0248718D01*
X0323520Y0248700D01*
X0323673Y0248679D01*
X0323826Y0248653D01*
X0323977Y0248623D01*
X0324128Y0248590D01*
X0324278Y0248552D01*
X0324427Y0248511D01*
X0324575Y0248466D01*
X0324721Y0248417D01*
X0324867Y0248364D01*
X0325010Y0248308D01*
X0325153Y0248248D01*
X0325293Y0248184D01*
X0325433Y0248117D01*
X0325570Y0248046D01*
X0325705Y0247972D01*
X0325839Y0247894D01*
X0325970Y0247813D01*
X0326099Y0247728D01*
X0326227Y0247640D01*
X0326351Y0247549D01*
X0326474Y0247455D01*
X0326594Y0247357D01*
X0326711Y0247257D01*
X0326826Y0247153D01*
X0326938Y0247047D01*
X0327047Y0246938D01*
X0327153Y0246826D01*
X0327257Y0246711D01*
X0327357Y0246594D01*
X0327455Y0246474D01*
X0327549Y0246351D01*
X0327640Y0246227D01*
X0327728Y0246099D01*
X0327813Y0245970D01*
X0327894Y0245839D01*
X0327972Y0245705D01*
X0328046Y0245570D01*
X0328117Y0245433D01*
X0328184Y0245293D01*
X0328248Y0245153D01*
X0328308Y0245010D01*
X0328364Y0244867D01*
X0328417Y0244721D01*
X0328466Y0244575D01*
X0328511Y0244427D01*
X0328552Y0244278D01*
X0328590Y0244128D01*
X0328623Y0243977D01*
X0328653Y0243826D01*
X0328679Y0243673D01*
X0328700Y0243520D01*
X0328718Y0243367D01*
X0328732Y0243213D01*
X0328742Y0243059D01*
X0328748Y0242904D01*
X0328750Y0242750D01*
X0328748Y0242596D01*
X0328742Y0242441D01*
X0328732Y0242287D01*
X0328718Y0242133D01*
X0328700Y0241980D01*
X0328679Y0241827D01*
X0328653Y0241674D01*
X0328623Y0241523D01*
X0328590Y0241372D01*
X0328552Y0241222D01*
X0328511Y0241073D01*
X0328466Y0240925D01*
X0328417Y0240779D01*
X0328364Y0240633D01*
X0328308Y0240490D01*
X0328248Y0240347D01*
X0328184Y0240207D01*
X0328117Y0240067D01*
X0328046Y0239930D01*
X0327972Y0239795D01*
X0327894Y0239661D01*
X0327813Y0239530D01*
X0327728Y0239401D01*
X0327640Y0239273D01*
X0327549Y0239149D01*
X0327455Y0239026D01*
X0327357Y0238906D01*
X0327257Y0238789D01*
X0327153Y0238674D01*
X0327047Y0238562D01*
X0326938Y0238453D01*
X0326826Y0238347D01*
X0326711Y0238243D01*
X0326594Y0238143D01*
X0326474Y0238045D01*
X0326351Y0237951D01*
X0326227Y0237860D01*
X0326099Y0237772D01*
X0325970Y0237687D01*
X0325839Y0237606D01*
X0325705Y0237528D01*
X0325570Y0237454D01*
X0325433Y0237383D01*
X0325293Y0237316D01*
X0325153Y0237252D01*
X0325010Y0237192D01*
X0324867Y0237136D01*
X0324721Y0237083D01*
X0324575Y0237034D01*
X0324427Y0236989D01*
X0324278Y0236948D01*
X0324128Y0236910D01*
X0323977Y0236877D01*
X0323826Y0236847D01*
X0323673Y0236821D01*
X0323520Y0236800D01*
X0323367Y0236782D01*
X0323213Y0236768D01*
X0323059Y0236758D01*
X0322904Y0236752D01*
X0322750Y0236750D01*
X0322596Y0236752D01*
X0322441Y0236758D01*
X0322287Y0236768D01*
X0322133Y0236782D01*
X0321980Y0236800D01*
X0321827Y0236821D01*
X0321674Y0236847D01*
X0321523Y0236877D01*
X0321372Y0236910D01*
X0321222Y0236948D01*
X0321073Y0236989D01*
X0320925Y0237034D01*
X0320779Y0237083D01*
X0320633Y0237136D01*
X0320490Y0237192D01*
X0320347Y0237252D01*
X0320207Y0237316D01*
X0320067Y0237383D01*
X0319930Y0237454D01*
X0319795Y0237528D01*
X0319661Y0237606D01*
X0319530Y0237687D01*
X0319401Y0237772D01*
X0319273Y0237860D01*
X0319149Y0237951D01*
X0319026Y0238045D01*
X0318906Y0238143D01*
X0318789Y0238243D01*
X0318674Y0238347D01*
X0318562Y0238453D01*
X0318453Y0238562D01*
X0318347Y0238674D01*
X0318243Y0238789D01*
X0318143Y0238906D01*
X0318045Y0239026D01*
X0317951Y0239149D01*
X0317860Y0239273D01*
X0317772Y0239401D01*
X0317687Y0239530D01*
X0317606Y0239661D01*
X0317528Y0239795D01*
X0317454Y0239930D01*
X0317383Y0240067D01*
X0317316Y0240207D01*
X0317252Y0240347D01*
X0317192Y0240490D01*
X0317136Y0240633D01*
X0317083Y0240779D01*
X0317034Y0240925D01*
X0316989Y0241073D01*
X0316948Y0241222D01*
X0316910Y0241372D01*
X0316877Y0241523D01*
X0316847Y0241674D01*
X0316821Y0241827D01*
X0316800Y0241980D01*
X0316782Y0242133D01*
X0316768Y0242287D01*
X0316758Y0242441D01*
X0316752Y0242596D01*
X0316750Y0242750D01*
X0236750Y0242750D02*
X0236752Y0242904D01*
X0236758Y0243059D01*
X0236768Y0243213D01*
X0236782Y0243367D01*
X0236800Y0243520D01*
X0236821Y0243673D01*
X0236847Y0243826D01*
X0236877Y0243977D01*
X0236910Y0244128D01*
X0236948Y0244278D01*
X0236989Y0244427D01*
X0237034Y0244575D01*
X0237083Y0244721D01*
X0237136Y0244867D01*
X0237192Y0245010D01*
X0237252Y0245153D01*
X0237316Y0245293D01*
X0237383Y0245433D01*
X0237454Y0245570D01*
X0237528Y0245705D01*
X0237606Y0245839D01*
X0237687Y0245970D01*
X0237772Y0246099D01*
X0237860Y0246227D01*
X0237951Y0246351D01*
X0238045Y0246474D01*
X0238143Y0246594D01*
X0238243Y0246711D01*
X0238347Y0246826D01*
X0238453Y0246938D01*
X0238562Y0247047D01*
X0238674Y0247153D01*
X0238789Y0247257D01*
X0238906Y0247357D01*
X0239026Y0247455D01*
X0239149Y0247549D01*
X0239273Y0247640D01*
X0239401Y0247728D01*
X0239530Y0247813D01*
X0239661Y0247894D01*
X0239795Y0247972D01*
X0239930Y0248046D01*
X0240067Y0248117D01*
X0240207Y0248184D01*
X0240347Y0248248D01*
X0240490Y0248308D01*
X0240633Y0248364D01*
X0240779Y0248417D01*
X0240925Y0248466D01*
X0241073Y0248511D01*
X0241222Y0248552D01*
X0241372Y0248590D01*
X0241523Y0248623D01*
X0241674Y0248653D01*
X0241827Y0248679D01*
X0241980Y0248700D01*
X0242133Y0248718D01*
X0242287Y0248732D01*
X0242441Y0248742D01*
X0242596Y0248748D01*
X0242750Y0248750D01*
X0242904Y0248748D01*
X0243059Y0248742D01*
X0243213Y0248732D01*
X0243367Y0248718D01*
X0243520Y0248700D01*
X0243673Y0248679D01*
X0243826Y0248653D01*
X0243977Y0248623D01*
X0244128Y0248590D01*
X0244278Y0248552D01*
X0244427Y0248511D01*
X0244575Y0248466D01*
X0244721Y0248417D01*
X0244867Y0248364D01*
X0245010Y0248308D01*
X0245153Y0248248D01*
X0245293Y0248184D01*
X0245433Y0248117D01*
X0245570Y0248046D01*
X0245705Y0247972D01*
X0245839Y0247894D01*
X0245970Y0247813D01*
X0246099Y0247728D01*
X0246227Y0247640D01*
X0246351Y0247549D01*
X0246474Y0247455D01*
X0246594Y0247357D01*
X0246711Y0247257D01*
X0246826Y0247153D01*
X0246938Y0247047D01*
X0247047Y0246938D01*
X0247153Y0246826D01*
X0247257Y0246711D01*
X0247357Y0246594D01*
X0247455Y0246474D01*
X0247549Y0246351D01*
X0247640Y0246227D01*
X0247728Y0246099D01*
X0247813Y0245970D01*
X0247894Y0245839D01*
X0247972Y0245705D01*
X0248046Y0245570D01*
X0248117Y0245433D01*
X0248184Y0245293D01*
X0248248Y0245153D01*
X0248308Y0245010D01*
X0248364Y0244867D01*
X0248417Y0244721D01*
X0248466Y0244575D01*
X0248511Y0244427D01*
X0248552Y0244278D01*
X0248590Y0244128D01*
X0248623Y0243977D01*
X0248653Y0243826D01*
X0248679Y0243673D01*
X0248700Y0243520D01*
X0248718Y0243367D01*
X0248732Y0243213D01*
X0248742Y0243059D01*
X0248748Y0242904D01*
X0248750Y0242750D01*
X0248748Y0242596D01*
X0248742Y0242441D01*
X0248732Y0242287D01*
X0248718Y0242133D01*
X0248700Y0241980D01*
X0248679Y0241827D01*
X0248653Y0241674D01*
X0248623Y0241523D01*
X0248590Y0241372D01*
X0248552Y0241222D01*
X0248511Y0241073D01*
X0248466Y0240925D01*
X0248417Y0240779D01*
X0248364Y0240633D01*
X0248308Y0240490D01*
X0248248Y0240347D01*
X0248184Y0240207D01*
X0248117Y0240067D01*
X0248046Y0239930D01*
X0247972Y0239795D01*
X0247894Y0239661D01*
X0247813Y0239530D01*
X0247728Y0239401D01*
X0247640Y0239273D01*
X0247549Y0239149D01*
X0247455Y0239026D01*
X0247357Y0238906D01*
X0247257Y0238789D01*
X0247153Y0238674D01*
X0247047Y0238562D01*
X0246938Y0238453D01*
X0246826Y0238347D01*
X0246711Y0238243D01*
X0246594Y0238143D01*
X0246474Y0238045D01*
X0246351Y0237951D01*
X0246227Y0237860D01*
X0246099Y0237772D01*
X0245970Y0237687D01*
X0245839Y0237606D01*
X0245705Y0237528D01*
X0245570Y0237454D01*
X0245433Y0237383D01*
X0245293Y0237316D01*
X0245153Y0237252D01*
X0245010Y0237192D01*
X0244867Y0237136D01*
X0244721Y0237083D01*
X0244575Y0237034D01*
X0244427Y0236989D01*
X0244278Y0236948D01*
X0244128Y0236910D01*
X0243977Y0236877D01*
X0243826Y0236847D01*
X0243673Y0236821D01*
X0243520Y0236800D01*
X0243367Y0236782D01*
X0243213Y0236768D01*
X0243059Y0236758D01*
X0242904Y0236752D01*
X0242750Y0236750D01*
X0242596Y0236752D01*
X0242441Y0236758D01*
X0242287Y0236768D01*
X0242133Y0236782D01*
X0241980Y0236800D01*
X0241827Y0236821D01*
X0241674Y0236847D01*
X0241523Y0236877D01*
X0241372Y0236910D01*
X0241222Y0236948D01*
X0241073Y0236989D01*
X0240925Y0237034D01*
X0240779Y0237083D01*
X0240633Y0237136D01*
X0240490Y0237192D01*
X0240347Y0237252D01*
X0240207Y0237316D01*
X0240067Y0237383D01*
X0239930Y0237454D01*
X0239795Y0237528D01*
X0239661Y0237606D01*
X0239530Y0237687D01*
X0239401Y0237772D01*
X0239273Y0237860D01*
X0239149Y0237951D01*
X0239026Y0238045D01*
X0238906Y0238143D01*
X0238789Y0238243D01*
X0238674Y0238347D01*
X0238562Y0238453D01*
X0238453Y0238562D01*
X0238347Y0238674D01*
X0238243Y0238789D01*
X0238143Y0238906D01*
X0238045Y0239026D01*
X0237951Y0239149D01*
X0237860Y0239273D01*
X0237772Y0239401D01*
X0237687Y0239530D01*
X0237606Y0239661D01*
X0237528Y0239795D01*
X0237454Y0239930D01*
X0237383Y0240067D01*
X0237316Y0240207D01*
X0237252Y0240347D01*
X0237192Y0240490D01*
X0237136Y0240633D01*
X0237083Y0240779D01*
X0237034Y0240925D01*
X0236989Y0241073D01*
X0236948Y0241222D01*
X0236910Y0241372D01*
X0236877Y0241523D01*
X0236847Y0241674D01*
X0236821Y0241827D01*
X0236800Y0241980D01*
X0236782Y0242133D01*
X0236768Y0242287D01*
X0236758Y0242441D01*
X0236752Y0242596D01*
X0236750Y0242750D01*
X0214750Y0242750D02*
X0214752Y0242904D01*
X0214758Y0243059D01*
X0214768Y0243213D01*
X0214782Y0243367D01*
X0214800Y0243520D01*
X0214821Y0243673D01*
X0214847Y0243826D01*
X0214877Y0243977D01*
X0214910Y0244128D01*
X0214948Y0244278D01*
X0214989Y0244427D01*
X0215034Y0244575D01*
X0215083Y0244721D01*
X0215136Y0244867D01*
X0215192Y0245010D01*
X0215252Y0245153D01*
X0215316Y0245293D01*
X0215383Y0245433D01*
X0215454Y0245570D01*
X0215528Y0245705D01*
X0215606Y0245839D01*
X0215687Y0245970D01*
X0215772Y0246099D01*
X0215860Y0246227D01*
X0215951Y0246351D01*
X0216045Y0246474D01*
X0216143Y0246594D01*
X0216243Y0246711D01*
X0216347Y0246826D01*
X0216453Y0246938D01*
X0216562Y0247047D01*
X0216674Y0247153D01*
X0216789Y0247257D01*
X0216906Y0247357D01*
X0217026Y0247455D01*
X0217149Y0247549D01*
X0217273Y0247640D01*
X0217401Y0247728D01*
X0217530Y0247813D01*
X0217661Y0247894D01*
X0217795Y0247972D01*
X0217930Y0248046D01*
X0218067Y0248117D01*
X0218207Y0248184D01*
X0218347Y0248248D01*
X0218490Y0248308D01*
X0218633Y0248364D01*
X0218779Y0248417D01*
X0218925Y0248466D01*
X0219073Y0248511D01*
X0219222Y0248552D01*
X0219372Y0248590D01*
X0219523Y0248623D01*
X0219674Y0248653D01*
X0219827Y0248679D01*
X0219980Y0248700D01*
X0220133Y0248718D01*
X0220287Y0248732D01*
X0220441Y0248742D01*
X0220596Y0248748D01*
X0220750Y0248750D01*
X0220904Y0248748D01*
X0221059Y0248742D01*
X0221213Y0248732D01*
X0221367Y0248718D01*
X0221520Y0248700D01*
X0221673Y0248679D01*
X0221826Y0248653D01*
X0221977Y0248623D01*
X0222128Y0248590D01*
X0222278Y0248552D01*
X0222427Y0248511D01*
X0222575Y0248466D01*
X0222721Y0248417D01*
X0222867Y0248364D01*
X0223010Y0248308D01*
X0223153Y0248248D01*
X0223293Y0248184D01*
X0223433Y0248117D01*
X0223570Y0248046D01*
X0223705Y0247972D01*
X0223839Y0247894D01*
X0223970Y0247813D01*
X0224099Y0247728D01*
X0224227Y0247640D01*
X0224351Y0247549D01*
X0224474Y0247455D01*
X0224594Y0247357D01*
X0224711Y0247257D01*
X0224826Y0247153D01*
X0224938Y0247047D01*
X0225047Y0246938D01*
X0225153Y0246826D01*
X0225257Y0246711D01*
X0225357Y0246594D01*
X0225455Y0246474D01*
X0225549Y0246351D01*
X0225640Y0246227D01*
X0225728Y0246099D01*
X0225813Y0245970D01*
X0225894Y0245839D01*
X0225972Y0245705D01*
X0226046Y0245570D01*
X0226117Y0245433D01*
X0226184Y0245293D01*
X0226248Y0245153D01*
X0226308Y0245010D01*
X0226364Y0244867D01*
X0226417Y0244721D01*
X0226466Y0244575D01*
X0226511Y0244427D01*
X0226552Y0244278D01*
X0226590Y0244128D01*
X0226623Y0243977D01*
X0226653Y0243826D01*
X0226679Y0243673D01*
X0226700Y0243520D01*
X0226718Y0243367D01*
X0226732Y0243213D01*
X0226742Y0243059D01*
X0226748Y0242904D01*
X0226750Y0242750D01*
X0226748Y0242596D01*
X0226742Y0242441D01*
X0226732Y0242287D01*
X0226718Y0242133D01*
X0226700Y0241980D01*
X0226679Y0241827D01*
X0226653Y0241674D01*
X0226623Y0241523D01*
X0226590Y0241372D01*
X0226552Y0241222D01*
X0226511Y0241073D01*
X0226466Y0240925D01*
X0226417Y0240779D01*
X0226364Y0240633D01*
X0226308Y0240490D01*
X0226248Y0240347D01*
X0226184Y0240207D01*
X0226117Y0240067D01*
X0226046Y0239930D01*
X0225972Y0239795D01*
X0225894Y0239661D01*
X0225813Y0239530D01*
X0225728Y0239401D01*
X0225640Y0239273D01*
X0225549Y0239149D01*
X0225455Y0239026D01*
X0225357Y0238906D01*
X0225257Y0238789D01*
X0225153Y0238674D01*
X0225047Y0238562D01*
X0224938Y0238453D01*
X0224826Y0238347D01*
X0224711Y0238243D01*
X0224594Y0238143D01*
X0224474Y0238045D01*
X0224351Y0237951D01*
X0224227Y0237860D01*
X0224099Y0237772D01*
X0223970Y0237687D01*
X0223839Y0237606D01*
X0223705Y0237528D01*
X0223570Y0237454D01*
X0223433Y0237383D01*
X0223293Y0237316D01*
X0223153Y0237252D01*
X0223010Y0237192D01*
X0222867Y0237136D01*
X0222721Y0237083D01*
X0222575Y0237034D01*
X0222427Y0236989D01*
X0222278Y0236948D01*
X0222128Y0236910D01*
X0221977Y0236877D01*
X0221826Y0236847D01*
X0221673Y0236821D01*
X0221520Y0236800D01*
X0221367Y0236782D01*
X0221213Y0236768D01*
X0221059Y0236758D01*
X0220904Y0236752D01*
X0220750Y0236750D01*
X0220596Y0236752D01*
X0220441Y0236758D01*
X0220287Y0236768D01*
X0220133Y0236782D01*
X0219980Y0236800D01*
X0219827Y0236821D01*
X0219674Y0236847D01*
X0219523Y0236877D01*
X0219372Y0236910D01*
X0219222Y0236948D01*
X0219073Y0236989D01*
X0218925Y0237034D01*
X0218779Y0237083D01*
X0218633Y0237136D01*
X0218490Y0237192D01*
X0218347Y0237252D01*
X0218207Y0237316D01*
X0218067Y0237383D01*
X0217930Y0237454D01*
X0217795Y0237528D01*
X0217661Y0237606D01*
X0217530Y0237687D01*
X0217401Y0237772D01*
X0217273Y0237860D01*
X0217149Y0237951D01*
X0217026Y0238045D01*
X0216906Y0238143D01*
X0216789Y0238243D01*
X0216674Y0238347D01*
X0216562Y0238453D01*
X0216453Y0238562D01*
X0216347Y0238674D01*
X0216243Y0238789D01*
X0216143Y0238906D01*
X0216045Y0239026D01*
X0215951Y0239149D01*
X0215860Y0239273D01*
X0215772Y0239401D01*
X0215687Y0239530D01*
X0215606Y0239661D01*
X0215528Y0239795D01*
X0215454Y0239930D01*
X0215383Y0240067D01*
X0215316Y0240207D01*
X0215252Y0240347D01*
X0215192Y0240490D01*
X0215136Y0240633D01*
X0215083Y0240779D01*
X0215034Y0240925D01*
X0214989Y0241073D01*
X0214948Y0241222D01*
X0214910Y0241372D01*
X0214877Y0241523D01*
X0214847Y0241674D01*
X0214821Y0241827D01*
X0214800Y0241980D01*
X0214782Y0242133D01*
X0214768Y0242287D01*
X0214758Y0242441D01*
X0214752Y0242596D01*
X0214750Y0242750D01*
X0134750Y0242750D02*
X0134752Y0242904D01*
X0134758Y0243059D01*
X0134768Y0243213D01*
X0134782Y0243367D01*
X0134800Y0243520D01*
X0134821Y0243673D01*
X0134847Y0243826D01*
X0134877Y0243977D01*
X0134910Y0244128D01*
X0134948Y0244278D01*
X0134989Y0244427D01*
X0135034Y0244575D01*
X0135083Y0244721D01*
X0135136Y0244867D01*
X0135192Y0245010D01*
X0135252Y0245153D01*
X0135316Y0245293D01*
X0135383Y0245433D01*
X0135454Y0245570D01*
X0135528Y0245705D01*
X0135606Y0245839D01*
X0135687Y0245970D01*
X0135772Y0246099D01*
X0135860Y0246227D01*
X0135951Y0246351D01*
X0136045Y0246474D01*
X0136143Y0246594D01*
X0136243Y0246711D01*
X0136347Y0246826D01*
X0136453Y0246938D01*
X0136562Y0247047D01*
X0136674Y0247153D01*
X0136789Y0247257D01*
X0136906Y0247357D01*
X0137026Y0247455D01*
X0137149Y0247549D01*
X0137273Y0247640D01*
X0137401Y0247728D01*
X0137530Y0247813D01*
X0137661Y0247894D01*
X0137795Y0247972D01*
X0137930Y0248046D01*
X0138067Y0248117D01*
X0138207Y0248184D01*
X0138347Y0248248D01*
X0138490Y0248308D01*
X0138633Y0248364D01*
X0138779Y0248417D01*
X0138925Y0248466D01*
X0139073Y0248511D01*
X0139222Y0248552D01*
X0139372Y0248590D01*
X0139523Y0248623D01*
X0139674Y0248653D01*
X0139827Y0248679D01*
X0139980Y0248700D01*
X0140133Y0248718D01*
X0140287Y0248732D01*
X0140441Y0248742D01*
X0140596Y0248748D01*
X0140750Y0248750D01*
X0140904Y0248748D01*
X0141059Y0248742D01*
X0141213Y0248732D01*
X0141367Y0248718D01*
X0141520Y0248700D01*
X0141673Y0248679D01*
X0141826Y0248653D01*
X0141977Y0248623D01*
X0142128Y0248590D01*
X0142278Y0248552D01*
X0142427Y0248511D01*
X0142575Y0248466D01*
X0142721Y0248417D01*
X0142867Y0248364D01*
X0143010Y0248308D01*
X0143153Y0248248D01*
X0143293Y0248184D01*
X0143433Y0248117D01*
X0143570Y0248046D01*
X0143705Y0247972D01*
X0143839Y0247894D01*
X0143970Y0247813D01*
X0144099Y0247728D01*
X0144227Y0247640D01*
X0144351Y0247549D01*
X0144474Y0247455D01*
X0144594Y0247357D01*
X0144711Y0247257D01*
X0144826Y0247153D01*
X0144938Y0247047D01*
X0145047Y0246938D01*
X0145153Y0246826D01*
X0145257Y0246711D01*
X0145357Y0246594D01*
X0145455Y0246474D01*
X0145549Y0246351D01*
X0145640Y0246227D01*
X0145728Y0246099D01*
X0145813Y0245970D01*
X0145894Y0245839D01*
X0145972Y0245705D01*
X0146046Y0245570D01*
X0146117Y0245433D01*
X0146184Y0245293D01*
X0146248Y0245153D01*
X0146308Y0245010D01*
X0146364Y0244867D01*
X0146417Y0244721D01*
X0146466Y0244575D01*
X0146511Y0244427D01*
X0146552Y0244278D01*
X0146590Y0244128D01*
X0146623Y0243977D01*
X0146653Y0243826D01*
X0146679Y0243673D01*
X0146700Y0243520D01*
X0146718Y0243367D01*
X0146732Y0243213D01*
X0146742Y0243059D01*
X0146748Y0242904D01*
X0146750Y0242750D01*
X0146748Y0242596D01*
X0146742Y0242441D01*
X0146732Y0242287D01*
X0146718Y0242133D01*
X0146700Y0241980D01*
X0146679Y0241827D01*
X0146653Y0241674D01*
X0146623Y0241523D01*
X0146590Y0241372D01*
X0146552Y0241222D01*
X0146511Y0241073D01*
X0146466Y0240925D01*
X0146417Y0240779D01*
X0146364Y0240633D01*
X0146308Y0240490D01*
X0146248Y0240347D01*
X0146184Y0240207D01*
X0146117Y0240067D01*
X0146046Y0239930D01*
X0145972Y0239795D01*
X0145894Y0239661D01*
X0145813Y0239530D01*
X0145728Y0239401D01*
X0145640Y0239273D01*
X0145549Y0239149D01*
X0145455Y0239026D01*
X0145357Y0238906D01*
X0145257Y0238789D01*
X0145153Y0238674D01*
X0145047Y0238562D01*
X0144938Y0238453D01*
X0144826Y0238347D01*
X0144711Y0238243D01*
X0144594Y0238143D01*
X0144474Y0238045D01*
X0144351Y0237951D01*
X0144227Y0237860D01*
X0144099Y0237772D01*
X0143970Y0237687D01*
X0143839Y0237606D01*
X0143705Y0237528D01*
X0143570Y0237454D01*
X0143433Y0237383D01*
X0143293Y0237316D01*
X0143153Y0237252D01*
X0143010Y0237192D01*
X0142867Y0237136D01*
X0142721Y0237083D01*
X0142575Y0237034D01*
X0142427Y0236989D01*
X0142278Y0236948D01*
X0142128Y0236910D01*
X0141977Y0236877D01*
X0141826Y0236847D01*
X0141673Y0236821D01*
X0141520Y0236800D01*
X0141367Y0236782D01*
X0141213Y0236768D01*
X0141059Y0236758D01*
X0140904Y0236752D01*
X0140750Y0236750D01*
X0140596Y0236752D01*
X0140441Y0236758D01*
X0140287Y0236768D01*
X0140133Y0236782D01*
X0139980Y0236800D01*
X0139827Y0236821D01*
X0139674Y0236847D01*
X0139523Y0236877D01*
X0139372Y0236910D01*
X0139222Y0236948D01*
X0139073Y0236989D01*
X0138925Y0237034D01*
X0138779Y0237083D01*
X0138633Y0237136D01*
X0138490Y0237192D01*
X0138347Y0237252D01*
X0138207Y0237316D01*
X0138067Y0237383D01*
X0137930Y0237454D01*
X0137795Y0237528D01*
X0137661Y0237606D01*
X0137530Y0237687D01*
X0137401Y0237772D01*
X0137273Y0237860D01*
X0137149Y0237951D01*
X0137026Y0238045D01*
X0136906Y0238143D01*
X0136789Y0238243D01*
X0136674Y0238347D01*
X0136562Y0238453D01*
X0136453Y0238562D01*
X0136347Y0238674D01*
X0136243Y0238789D01*
X0136143Y0238906D01*
X0136045Y0239026D01*
X0135951Y0239149D01*
X0135860Y0239273D01*
X0135772Y0239401D01*
X0135687Y0239530D01*
X0135606Y0239661D01*
X0135528Y0239795D01*
X0135454Y0239930D01*
X0135383Y0240067D01*
X0135316Y0240207D01*
X0135252Y0240347D01*
X0135192Y0240490D01*
X0135136Y0240633D01*
X0135083Y0240779D01*
X0135034Y0240925D01*
X0134989Y0241073D01*
X0134948Y0241222D01*
X0134910Y0241372D01*
X0134877Y0241523D01*
X0134847Y0241674D01*
X0134821Y0241827D01*
X0134800Y0241980D01*
X0134782Y0242133D01*
X0134768Y0242287D01*
X0134758Y0242441D01*
X0134752Y0242596D01*
X0134750Y0242750D01*
X0112750Y0242750D02*
X0112752Y0242904D01*
X0112758Y0243059D01*
X0112768Y0243213D01*
X0112782Y0243367D01*
X0112800Y0243520D01*
X0112821Y0243673D01*
X0112847Y0243826D01*
X0112877Y0243977D01*
X0112910Y0244128D01*
X0112948Y0244278D01*
X0112989Y0244427D01*
X0113034Y0244575D01*
X0113083Y0244721D01*
X0113136Y0244867D01*
X0113192Y0245010D01*
X0113252Y0245153D01*
X0113316Y0245293D01*
X0113383Y0245433D01*
X0113454Y0245570D01*
X0113528Y0245705D01*
X0113606Y0245839D01*
X0113687Y0245970D01*
X0113772Y0246099D01*
X0113860Y0246227D01*
X0113951Y0246351D01*
X0114045Y0246474D01*
X0114143Y0246594D01*
X0114243Y0246711D01*
X0114347Y0246826D01*
X0114453Y0246938D01*
X0114562Y0247047D01*
X0114674Y0247153D01*
X0114789Y0247257D01*
X0114906Y0247357D01*
X0115026Y0247455D01*
X0115149Y0247549D01*
X0115273Y0247640D01*
X0115401Y0247728D01*
X0115530Y0247813D01*
X0115661Y0247894D01*
X0115795Y0247972D01*
X0115930Y0248046D01*
X0116067Y0248117D01*
X0116207Y0248184D01*
X0116347Y0248248D01*
X0116490Y0248308D01*
X0116633Y0248364D01*
X0116779Y0248417D01*
X0116925Y0248466D01*
X0117073Y0248511D01*
X0117222Y0248552D01*
X0117372Y0248590D01*
X0117523Y0248623D01*
X0117674Y0248653D01*
X0117827Y0248679D01*
X0117980Y0248700D01*
X0118133Y0248718D01*
X0118287Y0248732D01*
X0118441Y0248742D01*
X0118596Y0248748D01*
X0118750Y0248750D01*
X0118904Y0248748D01*
X0119059Y0248742D01*
X0119213Y0248732D01*
X0119367Y0248718D01*
X0119520Y0248700D01*
X0119673Y0248679D01*
X0119826Y0248653D01*
X0119977Y0248623D01*
X0120128Y0248590D01*
X0120278Y0248552D01*
X0120427Y0248511D01*
X0120575Y0248466D01*
X0120721Y0248417D01*
X0120867Y0248364D01*
X0121010Y0248308D01*
X0121153Y0248248D01*
X0121293Y0248184D01*
X0121433Y0248117D01*
X0121570Y0248046D01*
X0121705Y0247972D01*
X0121839Y0247894D01*
X0121970Y0247813D01*
X0122099Y0247728D01*
X0122227Y0247640D01*
X0122351Y0247549D01*
X0122474Y0247455D01*
X0122594Y0247357D01*
X0122711Y0247257D01*
X0122826Y0247153D01*
X0122938Y0247047D01*
X0123047Y0246938D01*
X0123153Y0246826D01*
X0123257Y0246711D01*
X0123357Y0246594D01*
X0123455Y0246474D01*
X0123549Y0246351D01*
X0123640Y0246227D01*
X0123728Y0246099D01*
X0123813Y0245970D01*
X0123894Y0245839D01*
X0123972Y0245705D01*
X0124046Y0245570D01*
X0124117Y0245433D01*
X0124184Y0245293D01*
X0124248Y0245153D01*
X0124308Y0245010D01*
X0124364Y0244867D01*
X0124417Y0244721D01*
X0124466Y0244575D01*
X0124511Y0244427D01*
X0124552Y0244278D01*
X0124590Y0244128D01*
X0124623Y0243977D01*
X0124653Y0243826D01*
X0124679Y0243673D01*
X0124700Y0243520D01*
X0124718Y0243367D01*
X0124732Y0243213D01*
X0124742Y0243059D01*
X0124748Y0242904D01*
X0124750Y0242750D01*
X0124748Y0242596D01*
X0124742Y0242441D01*
X0124732Y0242287D01*
X0124718Y0242133D01*
X0124700Y0241980D01*
X0124679Y0241827D01*
X0124653Y0241674D01*
X0124623Y0241523D01*
X0124590Y0241372D01*
X0124552Y0241222D01*
X0124511Y0241073D01*
X0124466Y0240925D01*
X0124417Y0240779D01*
X0124364Y0240633D01*
X0124308Y0240490D01*
X0124248Y0240347D01*
X0124184Y0240207D01*
X0124117Y0240067D01*
X0124046Y0239930D01*
X0123972Y0239795D01*
X0123894Y0239661D01*
X0123813Y0239530D01*
X0123728Y0239401D01*
X0123640Y0239273D01*
X0123549Y0239149D01*
X0123455Y0239026D01*
X0123357Y0238906D01*
X0123257Y0238789D01*
X0123153Y0238674D01*
X0123047Y0238562D01*
X0122938Y0238453D01*
X0122826Y0238347D01*
X0122711Y0238243D01*
X0122594Y0238143D01*
X0122474Y0238045D01*
X0122351Y0237951D01*
X0122227Y0237860D01*
X0122099Y0237772D01*
X0121970Y0237687D01*
X0121839Y0237606D01*
X0121705Y0237528D01*
X0121570Y0237454D01*
X0121433Y0237383D01*
X0121293Y0237316D01*
X0121153Y0237252D01*
X0121010Y0237192D01*
X0120867Y0237136D01*
X0120721Y0237083D01*
X0120575Y0237034D01*
X0120427Y0236989D01*
X0120278Y0236948D01*
X0120128Y0236910D01*
X0119977Y0236877D01*
X0119826Y0236847D01*
X0119673Y0236821D01*
X0119520Y0236800D01*
X0119367Y0236782D01*
X0119213Y0236768D01*
X0119059Y0236758D01*
X0118904Y0236752D01*
X0118750Y0236750D01*
X0118596Y0236752D01*
X0118441Y0236758D01*
X0118287Y0236768D01*
X0118133Y0236782D01*
X0117980Y0236800D01*
X0117827Y0236821D01*
X0117674Y0236847D01*
X0117523Y0236877D01*
X0117372Y0236910D01*
X0117222Y0236948D01*
X0117073Y0236989D01*
X0116925Y0237034D01*
X0116779Y0237083D01*
X0116633Y0237136D01*
X0116490Y0237192D01*
X0116347Y0237252D01*
X0116207Y0237316D01*
X0116067Y0237383D01*
X0115930Y0237454D01*
X0115795Y0237528D01*
X0115661Y0237606D01*
X0115530Y0237687D01*
X0115401Y0237772D01*
X0115273Y0237860D01*
X0115149Y0237951D01*
X0115026Y0238045D01*
X0114906Y0238143D01*
X0114789Y0238243D01*
X0114674Y0238347D01*
X0114562Y0238453D01*
X0114453Y0238562D01*
X0114347Y0238674D01*
X0114243Y0238789D01*
X0114143Y0238906D01*
X0114045Y0239026D01*
X0113951Y0239149D01*
X0113860Y0239273D01*
X0113772Y0239401D01*
X0113687Y0239530D01*
X0113606Y0239661D01*
X0113528Y0239795D01*
X0113454Y0239930D01*
X0113383Y0240067D01*
X0113316Y0240207D01*
X0113252Y0240347D01*
X0113192Y0240490D01*
X0113136Y0240633D01*
X0113083Y0240779D01*
X0113034Y0240925D01*
X0112989Y0241073D01*
X0112948Y0241222D01*
X0112910Y0241372D01*
X0112877Y0241523D01*
X0112847Y0241674D01*
X0112821Y0241827D01*
X0112800Y0241980D01*
X0112782Y0242133D01*
X0112768Y0242287D01*
X0112758Y0242441D01*
X0112752Y0242596D01*
X0112750Y0242750D01*
X0032750Y0242750D02*
X0032752Y0242904D01*
X0032758Y0243059D01*
X0032768Y0243213D01*
X0032782Y0243367D01*
X0032800Y0243520D01*
X0032821Y0243673D01*
X0032847Y0243826D01*
X0032877Y0243977D01*
X0032910Y0244128D01*
X0032948Y0244278D01*
X0032989Y0244427D01*
X0033034Y0244575D01*
X0033083Y0244721D01*
X0033136Y0244867D01*
X0033192Y0245010D01*
X0033252Y0245153D01*
X0033316Y0245293D01*
X0033383Y0245433D01*
X0033454Y0245570D01*
X0033528Y0245705D01*
X0033606Y0245839D01*
X0033687Y0245970D01*
X0033772Y0246099D01*
X0033860Y0246227D01*
X0033951Y0246351D01*
X0034045Y0246474D01*
X0034143Y0246594D01*
X0034243Y0246711D01*
X0034347Y0246826D01*
X0034453Y0246938D01*
X0034562Y0247047D01*
X0034674Y0247153D01*
X0034789Y0247257D01*
X0034906Y0247357D01*
X0035026Y0247455D01*
X0035149Y0247549D01*
X0035273Y0247640D01*
X0035401Y0247728D01*
X0035530Y0247813D01*
X0035661Y0247894D01*
X0035795Y0247972D01*
X0035930Y0248046D01*
X0036067Y0248117D01*
X0036207Y0248184D01*
X0036347Y0248248D01*
X0036490Y0248308D01*
X0036633Y0248364D01*
X0036779Y0248417D01*
X0036925Y0248466D01*
X0037073Y0248511D01*
X0037222Y0248552D01*
X0037372Y0248590D01*
X0037523Y0248623D01*
X0037674Y0248653D01*
X0037827Y0248679D01*
X0037980Y0248700D01*
X0038133Y0248718D01*
X0038287Y0248732D01*
X0038441Y0248742D01*
X0038596Y0248748D01*
X0038750Y0248750D01*
X0038904Y0248748D01*
X0039059Y0248742D01*
X0039213Y0248732D01*
X0039367Y0248718D01*
X0039520Y0248700D01*
X0039673Y0248679D01*
X0039826Y0248653D01*
X0039977Y0248623D01*
X0040128Y0248590D01*
X0040278Y0248552D01*
X0040427Y0248511D01*
X0040575Y0248466D01*
X0040721Y0248417D01*
X0040867Y0248364D01*
X0041010Y0248308D01*
X0041153Y0248248D01*
X0041293Y0248184D01*
X0041433Y0248117D01*
X0041570Y0248046D01*
X0041705Y0247972D01*
X0041839Y0247894D01*
X0041970Y0247813D01*
X0042099Y0247728D01*
X0042227Y0247640D01*
X0042351Y0247549D01*
X0042474Y0247455D01*
X0042594Y0247357D01*
X0042711Y0247257D01*
X0042826Y0247153D01*
X0042938Y0247047D01*
X0043047Y0246938D01*
X0043153Y0246826D01*
X0043257Y0246711D01*
X0043357Y0246594D01*
X0043455Y0246474D01*
X0043549Y0246351D01*
X0043640Y0246227D01*
X0043728Y0246099D01*
X0043813Y0245970D01*
X0043894Y0245839D01*
X0043972Y0245705D01*
X0044046Y0245570D01*
X0044117Y0245433D01*
X0044184Y0245293D01*
X0044248Y0245153D01*
X0044308Y0245010D01*
X0044364Y0244867D01*
X0044417Y0244721D01*
X0044466Y0244575D01*
X0044511Y0244427D01*
X0044552Y0244278D01*
X0044590Y0244128D01*
X0044623Y0243977D01*
X0044653Y0243826D01*
X0044679Y0243673D01*
X0044700Y0243520D01*
X0044718Y0243367D01*
X0044732Y0243213D01*
X0044742Y0243059D01*
X0044748Y0242904D01*
X0044750Y0242750D01*
X0044748Y0242596D01*
X0044742Y0242441D01*
X0044732Y0242287D01*
X0044718Y0242133D01*
X0044700Y0241980D01*
X0044679Y0241827D01*
X0044653Y0241674D01*
X0044623Y0241523D01*
X0044590Y0241372D01*
X0044552Y0241222D01*
X0044511Y0241073D01*
X0044466Y0240925D01*
X0044417Y0240779D01*
X0044364Y0240633D01*
X0044308Y0240490D01*
X0044248Y0240347D01*
X0044184Y0240207D01*
X0044117Y0240067D01*
X0044046Y0239930D01*
X0043972Y0239795D01*
X0043894Y0239661D01*
X0043813Y0239530D01*
X0043728Y0239401D01*
X0043640Y0239273D01*
X0043549Y0239149D01*
X0043455Y0239026D01*
X0043357Y0238906D01*
X0043257Y0238789D01*
X0043153Y0238674D01*
X0043047Y0238562D01*
X0042938Y0238453D01*
X0042826Y0238347D01*
X0042711Y0238243D01*
X0042594Y0238143D01*
X0042474Y0238045D01*
X0042351Y0237951D01*
X0042227Y0237860D01*
X0042099Y0237772D01*
X0041970Y0237687D01*
X0041839Y0237606D01*
X0041705Y0237528D01*
X0041570Y0237454D01*
X0041433Y0237383D01*
X0041293Y0237316D01*
X0041153Y0237252D01*
X0041010Y0237192D01*
X0040867Y0237136D01*
X0040721Y0237083D01*
X0040575Y0237034D01*
X0040427Y0236989D01*
X0040278Y0236948D01*
X0040128Y0236910D01*
X0039977Y0236877D01*
X0039826Y0236847D01*
X0039673Y0236821D01*
X0039520Y0236800D01*
X0039367Y0236782D01*
X0039213Y0236768D01*
X0039059Y0236758D01*
X0038904Y0236752D01*
X0038750Y0236750D01*
X0038596Y0236752D01*
X0038441Y0236758D01*
X0038287Y0236768D01*
X0038133Y0236782D01*
X0037980Y0236800D01*
X0037827Y0236821D01*
X0037674Y0236847D01*
X0037523Y0236877D01*
X0037372Y0236910D01*
X0037222Y0236948D01*
X0037073Y0236989D01*
X0036925Y0237034D01*
X0036779Y0237083D01*
X0036633Y0237136D01*
X0036490Y0237192D01*
X0036347Y0237252D01*
X0036207Y0237316D01*
X0036067Y0237383D01*
X0035930Y0237454D01*
X0035795Y0237528D01*
X0035661Y0237606D01*
X0035530Y0237687D01*
X0035401Y0237772D01*
X0035273Y0237860D01*
X0035149Y0237951D01*
X0035026Y0238045D01*
X0034906Y0238143D01*
X0034789Y0238243D01*
X0034674Y0238347D01*
X0034562Y0238453D01*
X0034453Y0238562D01*
X0034347Y0238674D01*
X0034243Y0238789D01*
X0034143Y0238906D01*
X0034045Y0239026D01*
X0033951Y0239149D01*
X0033860Y0239273D01*
X0033772Y0239401D01*
X0033687Y0239530D01*
X0033606Y0239661D01*
X0033528Y0239795D01*
X0033454Y0239930D01*
X0033383Y0240067D01*
X0033316Y0240207D01*
X0033252Y0240347D01*
X0033192Y0240490D01*
X0033136Y0240633D01*
X0033083Y0240779D01*
X0033034Y0240925D01*
X0032989Y0241073D01*
X0032948Y0241222D01*
X0032910Y0241372D01*
X0032877Y0241523D01*
X0032847Y0241674D01*
X0032821Y0241827D01*
X0032800Y0241980D01*
X0032782Y0242133D01*
X0032768Y0242287D01*
X0032758Y0242441D01*
X0032752Y0242596D01*
X0032750Y0242750D01*
X0032750Y0140750D02*
X0032752Y0140904D01*
X0032758Y0141059D01*
X0032768Y0141213D01*
X0032782Y0141367D01*
X0032800Y0141520D01*
X0032821Y0141673D01*
X0032847Y0141826D01*
X0032877Y0141977D01*
X0032910Y0142128D01*
X0032948Y0142278D01*
X0032989Y0142427D01*
X0033034Y0142575D01*
X0033083Y0142721D01*
X0033136Y0142867D01*
X0033192Y0143010D01*
X0033252Y0143153D01*
X0033316Y0143293D01*
X0033383Y0143433D01*
X0033454Y0143570D01*
X0033528Y0143705D01*
X0033606Y0143839D01*
X0033687Y0143970D01*
X0033772Y0144099D01*
X0033860Y0144227D01*
X0033951Y0144351D01*
X0034045Y0144474D01*
X0034143Y0144594D01*
X0034243Y0144711D01*
X0034347Y0144826D01*
X0034453Y0144938D01*
X0034562Y0145047D01*
X0034674Y0145153D01*
X0034789Y0145257D01*
X0034906Y0145357D01*
X0035026Y0145455D01*
X0035149Y0145549D01*
X0035273Y0145640D01*
X0035401Y0145728D01*
X0035530Y0145813D01*
X0035661Y0145894D01*
X0035795Y0145972D01*
X0035930Y0146046D01*
X0036067Y0146117D01*
X0036207Y0146184D01*
X0036347Y0146248D01*
X0036490Y0146308D01*
X0036633Y0146364D01*
X0036779Y0146417D01*
X0036925Y0146466D01*
X0037073Y0146511D01*
X0037222Y0146552D01*
X0037372Y0146590D01*
X0037523Y0146623D01*
X0037674Y0146653D01*
X0037827Y0146679D01*
X0037980Y0146700D01*
X0038133Y0146718D01*
X0038287Y0146732D01*
X0038441Y0146742D01*
X0038596Y0146748D01*
X0038750Y0146750D01*
X0038904Y0146748D01*
X0039059Y0146742D01*
X0039213Y0146732D01*
X0039367Y0146718D01*
X0039520Y0146700D01*
X0039673Y0146679D01*
X0039826Y0146653D01*
X0039977Y0146623D01*
X0040128Y0146590D01*
X0040278Y0146552D01*
X0040427Y0146511D01*
X0040575Y0146466D01*
X0040721Y0146417D01*
X0040867Y0146364D01*
X0041010Y0146308D01*
X0041153Y0146248D01*
X0041293Y0146184D01*
X0041433Y0146117D01*
X0041570Y0146046D01*
X0041705Y0145972D01*
X0041839Y0145894D01*
X0041970Y0145813D01*
X0042099Y0145728D01*
X0042227Y0145640D01*
X0042351Y0145549D01*
X0042474Y0145455D01*
X0042594Y0145357D01*
X0042711Y0145257D01*
X0042826Y0145153D01*
X0042938Y0145047D01*
X0043047Y0144938D01*
X0043153Y0144826D01*
X0043257Y0144711D01*
X0043357Y0144594D01*
X0043455Y0144474D01*
X0043549Y0144351D01*
X0043640Y0144227D01*
X0043728Y0144099D01*
X0043813Y0143970D01*
X0043894Y0143839D01*
X0043972Y0143705D01*
X0044046Y0143570D01*
X0044117Y0143433D01*
X0044184Y0143293D01*
X0044248Y0143153D01*
X0044308Y0143010D01*
X0044364Y0142867D01*
X0044417Y0142721D01*
X0044466Y0142575D01*
X0044511Y0142427D01*
X0044552Y0142278D01*
X0044590Y0142128D01*
X0044623Y0141977D01*
X0044653Y0141826D01*
X0044679Y0141673D01*
X0044700Y0141520D01*
X0044718Y0141367D01*
X0044732Y0141213D01*
X0044742Y0141059D01*
X0044748Y0140904D01*
X0044750Y0140750D01*
X0044748Y0140596D01*
X0044742Y0140441D01*
X0044732Y0140287D01*
X0044718Y0140133D01*
X0044700Y0139980D01*
X0044679Y0139827D01*
X0044653Y0139674D01*
X0044623Y0139523D01*
X0044590Y0139372D01*
X0044552Y0139222D01*
X0044511Y0139073D01*
X0044466Y0138925D01*
X0044417Y0138779D01*
X0044364Y0138633D01*
X0044308Y0138490D01*
X0044248Y0138347D01*
X0044184Y0138207D01*
X0044117Y0138067D01*
X0044046Y0137930D01*
X0043972Y0137795D01*
X0043894Y0137661D01*
X0043813Y0137530D01*
X0043728Y0137401D01*
X0043640Y0137273D01*
X0043549Y0137149D01*
X0043455Y0137026D01*
X0043357Y0136906D01*
X0043257Y0136789D01*
X0043153Y0136674D01*
X0043047Y0136562D01*
X0042938Y0136453D01*
X0042826Y0136347D01*
X0042711Y0136243D01*
X0042594Y0136143D01*
X0042474Y0136045D01*
X0042351Y0135951D01*
X0042227Y0135860D01*
X0042099Y0135772D01*
X0041970Y0135687D01*
X0041839Y0135606D01*
X0041705Y0135528D01*
X0041570Y0135454D01*
X0041433Y0135383D01*
X0041293Y0135316D01*
X0041153Y0135252D01*
X0041010Y0135192D01*
X0040867Y0135136D01*
X0040721Y0135083D01*
X0040575Y0135034D01*
X0040427Y0134989D01*
X0040278Y0134948D01*
X0040128Y0134910D01*
X0039977Y0134877D01*
X0039826Y0134847D01*
X0039673Y0134821D01*
X0039520Y0134800D01*
X0039367Y0134782D01*
X0039213Y0134768D01*
X0039059Y0134758D01*
X0038904Y0134752D01*
X0038750Y0134750D01*
X0038596Y0134752D01*
X0038441Y0134758D01*
X0038287Y0134768D01*
X0038133Y0134782D01*
X0037980Y0134800D01*
X0037827Y0134821D01*
X0037674Y0134847D01*
X0037523Y0134877D01*
X0037372Y0134910D01*
X0037222Y0134948D01*
X0037073Y0134989D01*
X0036925Y0135034D01*
X0036779Y0135083D01*
X0036633Y0135136D01*
X0036490Y0135192D01*
X0036347Y0135252D01*
X0036207Y0135316D01*
X0036067Y0135383D01*
X0035930Y0135454D01*
X0035795Y0135528D01*
X0035661Y0135606D01*
X0035530Y0135687D01*
X0035401Y0135772D01*
X0035273Y0135860D01*
X0035149Y0135951D01*
X0035026Y0136045D01*
X0034906Y0136143D01*
X0034789Y0136243D01*
X0034674Y0136347D01*
X0034562Y0136453D01*
X0034453Y0136562D01*
X0034347Y0136674D01*
X0034243Y0136789D01*
X0034143Y0136906D01*
X0034045Y0137026D01*
X0033951Y0137149D01*
X0033860Y0137273D01*
X0033772Y0137401D01*
X0033687Y0137530D01*
X0033606Y0137661D01*
X0033528Y0137795D01*
X0033454Y0137930D01*
X0033383Y0138067D01*
X0033316Y0138207D01*
X0033252Y0138347D01*
X0033192Y0138490D01*
X0033136Y0138633D01*
X0033083Y0138779D01*
X0033034Y0138925D01*
X0032989Y0139073D01*
X0032948Y0139222D01*
X0032910Y0139372D01*
X0032877Y0139523D01*
X0032847Y0139674D01*
X0032821Y0139827D01*
X0032800Y0139980D01*
X0032782Y0140133D01*
X0032768Y0140287D01*
X0032758Y0140441D01*
X0032752Y0140596D01*
X0032750Y0140750D01*
X0112750Y0140750D02*
X0112752Y0140904D01*
X0112758Y0141059D01*
X0112768Y0141213D01*
X0112782Y0141367D01*
X0112800Y0141520D01*
X0112821Y0141673D01*
X0112847Y0141826D01*
X0112877Y0141977D01*
X0112910Y0142128D01*
X0112948Y0142278D01*
X0112989Y0142427D01*
X0113034Y0142575D01*
X0113083Y0142721D01*
X0113136Y0142867D01*
X0113192Y0143010D01*
X0113252Y0143153D01*
X0113316Y0143293D01*
X0113383Y0143433D01*
X0113454Y0143570D01*
X0113528Y0143705D01*
X0113606Y0143839D01*
X0113687Y0143970D01*
X0113772Y0144099D01*
X0113860Y0144227D01*
X0113951Y0144351D01*
X0114045Y0144474D01*
X0114143Y0144594D01*
X0114243Y0144711D01*
X0114347Y0144826D01*
X0114453Y0144938D01*
X0114562Y0145047D01*
X0114674Y0145153D01*
X0114789Y0145257D01*
X0114906Y0145357D01*
X0115026Y0145455D01*
X0115149Y0145549D01*
X0115273Y0145640D01*
X0115401Y0145728D01*
X0115530Y0145813D01*
X0115661Y0145894D01*
X0115795Y0145972D01*
X0115930Y0146046D01*
X0116067Y0146117D01*
X0116207Y0146184D01*
X0116347Y0146248D01*
X0116490Y0146308D01*
X0116633Y0146364D01*
X0116779Y0146417D01*
X0116925Y0146466D01*
X0117073Y0146511D01*
X0117222Y0146552D01*
X0117372Y0146590D01*
X0117523Y0146623D01*
X0117674Y0146653D01*
X0117827Y0146679D01*
X0117980Y0146700D01*
X0118133Y0146718D01*
X0118287Y0146732D01*
X0118441Y0146742D01*
X0118596Y0146748D01*
X0118750Y0146750D01*
X0118904Y0146748D01*
X0119059Y0146742D01*
X0119213Y0146732D01*
X0119367Y0146718D01*
X0119520Y0146700D01*
X0119673Y0146679D01*
X0119826Y0146653D01*
X0119977Y0146623D01*
X0120128Y0146590D01*
X0120278Y0146552D01*
X0120427Y0146511D01*
X0120575Y0146466D01*
X0120721Y0146417D01*
X0120867Y0146364D01*
X0121010Y0146308D01*
X0121153Y0146248D01*
X0121293Y0146184D01*
X0121433Y0146117D01*
X0121570Y0146046D01*
X0121705Y0145972D01*
X0121839Y0145894D01*
X0121970Y0145813D01*
X0122099Y0145728D01*
X0122227Y0145640D01*
X0122351Y0145549D01*
X0122474Y0145455D01*
X0122594Y0145357D01*
X0122711Y0145257D01*
X0122826Y0145153D01*
X0122938Y0145047D01*
X0123047Y0144938D01*
X0123153Y0144826D01*
X0123257Y0144711D01*
X0123357Y0144594D01*
X0123455Y0144474D01*
X0123549Y0144351D01*
X0123640Y0144227D01*
X0123728Y0144099D01*
X0123813Y0143970D01*
X0123894Y0143839D01*
X0123972Y0143705D01*
X0124046Y0143570D01*
X0124117Y0143433D01*
X0124184Y0143293D01*
X0124248Y0143153D01*
X0124308Y0143010D01*
X0124364Y0142867D01*
X0124417Y0142721D01*
X0124466Y0142575D01*
X0124511Y0142427D01*
X0124552Y0142278D01*
X0124590Y0142128D01*
X0124623Y0141977D01*
X0124653Y0141826D01*
X0124679Y0141673D01*
X0124700Y0141520D01*
X0124718Y0141367D01*
X0124732Y0141213D01*
X0124742Y0141059D01*
X0124748Y0140904D01*
X0124750Y0140750D01*
X0124748Y0140596D01*
X0124742Y0140441D01*
X0124732Y0140287D01*
X0124718Y0140133D01*
X0124700Y0139980D01*
X0124679Y0139827D01*
X0124653Y0139674D01*
X0124623Y0139523D01*
X0124590Y0139372D01*
X0124552Y0139222D01*
X0124511Y0139073D01*
X0124466Y0138925D01*
X0124417Y0138779D01*
X0124364Y0138633D01*
X0124308Y0138490D01*
X0124248Y0138347D01*
X0124184Y0138207D01*
X0124117Y0138067D01*
X0124046Y0137930D01*
X0123972Y0137795D01*
X0123894Y0137661D01*
X0123813Y0137530D01*
X0123728Y0137401D01*
X0123640Y0137273D01*
X0123549Y0137149D01*
X0123455Y0137026D01*
X0123357Y0136906D01*
X0123257Y0136789D01*
X0123153Y0136674D01*
X0123047Y0136562D01*
X0122938Y0136453D01*
X0122826Y0136347D01*
X0122711Y0136243D01*
X0122594Y0136143D01*
X0122474Y0136045D01*
X0122351Y0135951D01*
X0122227Y0135860D01*
X0122099Y0135772D01*
X0121970Y0135687D01*
X0121839Y0135606D01*
X0121705Y0135528D01*
X0121570Y0135454D01*
X0121433Y0135383D01*
X0121293Y0135316D01*
X0121153Y0135252D01*
X0121010Y0135192D01*
X0120867Y0135136D01*
X0120721Y0135083D01*
X0120575Y0135034D01*
X0120427Y0134989D01*
X0120278Y0134948D01*
X0120128Y0134910D01*
X0119977Y0134877D01*
X0119826Y0134847D01*
X0119673Y0134821D01*
X0119520Y0134800D01*
X0119367Y0134782D01*
X0119213Y0134768D01*
X0119059Y0134758D01*
X0118904Y0134752D01*
X0118750Y0134750D01*
X0118596Y0134752D01*
X0118441Y0134758D01*
X0118287Y0134768D01*
X0118133Y0134782D01*
X0117980Y0134800D01*
X0117827Y0134821D01*
X0117674Y0134847D01*
X0117523Y0134877D01*
X0117372Y0134910D01*
X0117222Y0134948D01*
X0117073Y0134989D01*
X0116925Y0135034D01*
X0116779Y0135083D01*
X0116633Y0135136D01*
X0116490Y0135192D01*
X0116347Y0135252D01*
X0116207Y0135316D01*
X0116067Y0135383D01*
X0115930Y0135454D01*
X0115795Y0135528D01*
X0115661Y0135606D01*
X0115530Y0135687D01*
X0115401Y0135772D01*
X0115273Y0135860D01*
X0115149Y0135951D01*
X0115026Y0136045D01*
X0114906Y0136143D01*
X0114789Y0136243D01*
X0114674Y0136347D01*
X0114562Y0136453D01*
X0114453Y0136562D01*
X0114347Y0136674D01*
X0114243Y0136789D01*
X0114143Y0136906D01*
X0114045Y0137026D01*
X0113951Y0137149D01*
X0113860Y0137273D01*
X0113772Y0137401D01*
X0113687Y0137530D01*
X0113606Y0137661D01*
X0113528Y0137795D01*
X0113454Y0137930D01*
X0113383Y0138067D01*
X0113316Y0138207D01*
X0113252Y0138347D01*
X0113192Y0138490D01*
X0113136Y0138633D01*
X0113083Y0138779D01*
X0113034Y0138925D01*
X0112989Y0139073D01*
X0112948Y0139222D01*
X0112910Y0139372D01*
X0112877Y0139523D01*
X0112847Y0139674D01*
X0112821Y0139827D01*
X0112800Y0139980D01*
X0112782Y0140133D01*
X0112768Y0140287D01*
X0112758Y0140441D01*
X0112752Y0140596D01*
X0112750Y0140750D01*
X0134750Y0140750D02*
X0134752Y0140904D01*
X0134758Y0141059D01*
X0134768Y0141213D01*
X0134782Y0141367D01*
X0134800Y0141520D01*
X0134821Y0141673D01*
X0134847Y0141826D01*
X0134877Y0141977D01*
X0134910Y0142128D01*
X0134948Y0142278D01*
X0134989Y0142427D01*
X0135034Y0142575D01*
X0135083Y0142721D01*
X0135136Y0142867D01*
X0135192Y0143010D01*
X0135252Y0143153D01*
X0135316Y0143293D01*
X0135383Y0143433D01*
X0135454Y0143570D01*
X0135528Y0143705D01*
X0135606Y0143839D01*
X0135687Y0143970D01*
X0135772Y0144099D01*
X0135860Y0144227D01*
X0135951Y0144351D01*
X0136045Y0144474D01*
X0136143Y0144594D01*
X0136243Y0144711D01*
X0136347Y0144826D01*
X0136453Y0144938D01*
X0136562Y0145047D01*
X0136674Y0145153D01*
X0136789Y0145257D01*
X0136906Y0145357D01*
X0137026Y0145455D01*
X0137149Y0145549D01*
X0137273Y0145640D01*
X0137401Y0145728D01*
X0137530Y0145813D01*
X0137661Y0145894D01*
X0137795Y0145972D01*
X0137930Y0146046D01*
X0138067Y0146117D01*
X0138207Y0146184D01*
X0138347Y0146248D01*
X0138490Y0146308D01*
X0138633Y0146364D01*
X0138779Y0146417D01*
X0138925Y0146466D01*
X0139073Y0146511D01*
X0139222Y0146552D01*
X0139372Y0146590D01*
X0139523Y0146623D01*
X0139674Y0146653D01*
X0139827Y0146679D01*
X0139980Y0146700D01*
X0140133Y0146718D01*
X0140287Y0146732D01*
X0140441Y0146742D01*
X0140596Y0146748D01*
X0140750Y0146750D01*
X0140904Y0146748D01*
X0141059Y0146742D01*
X0141213Y0146732D01*
X0141367Y0146718D01*
X0141520Y0146700D01*
X0141673Y0146679D01*
X0141826Y0146653D01*
X0141977Y0146623D01*
X0142128Y0146590D01*
X0142278Y0146552D01*
X0142427Y0146511D01*
X0142575Y0146466D01*
X0142721Y0146417D01*
X0142867Y0146364D01*
X0143010Y0146308D01*
X0143153Y0146248D01*
X0143293Y0146184D01*
X0143433Y0146117D01*
X0143570Y0146046D01*
X0143705Y0145972D01*
X0143839Y0145894D01*
X0143970Y0145813D01*
X0144099Y0145728D01*
X0144227Y0145640D01*
X0144351Y0145549D01*
X0144474Y0145455D01*
X0144594Y0145357D01*
X0144711Y0145257D01*
X0144826Y0145153D01*
X0144938Y0145047D01*
X0145047Y0144938D01*
X0145153Y0144826D01*
X0145257Y0144711D01*
X0145357Y0144594D01*
X0145455Y0144474D01*
X0145549Y0144351D01*
X0145640Y0144227D01*
X0145728Y0144099D01*
X0145813Y0143970D01*
X0145894Y0143839D01*
X0145972Y0143705D01*
X0146046Y0143570D01*
X0146117Y0143433D01*
X0146184Y0143293D01*
X0146248Y0143153D01*
X0146308Y0143010D01*
X0146364Y0142867D01*
X0146417Y0142721D01*
X0146466Y0142575D01*
X0146511Y0142427D01*
X0146552Y0142278D01*
X0146590Y0142128D01*
X0146623Y0141977D01*
X0146653Y0141826D01*
X0146679Y0141673D01*
X0146700Y0141520D01*
X0146718Y0141367D01*
X0146732Y0141213D01*
X0146742Y0141059D01*
X0146748Y0140904D01*
X0146750Y0140750D01*
X0146748Y0140596D01*
X0146742Y0140441D01*
X0146732Y0140287D01*
X0146718Y0140133D01*
X0146700Y0139980D01*
X0146679Y0139827D01*
X0146653Y0139674D01*
X0146623Y0139523D01*
X0146590Y0139372D01*
X0146552Y0139222D01*
X0146511Y0139073D01*
X0146466Y0138925D01*
X0146417Y0138779D01*
X0146364Y0138633D01*
X0146308Y0138490D01*
X0146248Y0138347D01*
X0146184Y0138207D01*
X0146117Y0138067D01*
X0146046Y0137930D01*
X0145972Y0137795D01*
X0145894Y0137661D01*
X0145813Y0137530D01*
X0145728Y0137401D01*
X0145640Y0137273D01*
X0145549Y0137149D01*
X0145455Y0137026D01*
X0145357Y0136906D01*
X0145257Y0136789D01*
X0145153Y0136674D01*
X0145047Y0136562D01*
X0144938Y0136453D01*
X0144826Y0136347D01*
X0144711Y0136243D01*
X0144594Y0136143D01*
X0144474Y0136045D01*
X0144351Y0135951D01*
X0144227Y0135860D01*
X0144099Y0135772D01*
X0143970Y0135687D01*
X0143839Y0135606D01*
X0143705Y0135528D01*
X0143570Y0135454D01*
X0143433Y0135383D01*
X0143293Y0135316D01*
X0143153Y0135252D01*
X0143010Y0135192D01*
X0142867Y0135136D01*
X0142721Y0135083D01*
X0142575Y0135034D01*
X0142427Y0134989D01*
X0142278Y0134948D01*
X0142128Y0134910D01*
X0141977Y0134877D01*
X0141826Y0134847D01*
X0141673Y0134821D01*
X0141520Y0134800D01*
X0141367Y0134782D01*
X0141213Y0134768D01*
X0141059Y0134758D01*
X0140904Y0134752D01*
X0140750Y0134750D01*
X0140596Y0134752D01*
X0140441Y0134758D01*
X0140287Y0134768D01*
X0140133Y0134782D01*
X0139980Y0134800D01*
X0139827Y0134821D01*
X0139674Y0134847D01*
X0139523Y0134877D01*
X0139372Y0134910D01*
X0139222Y0134948D01*
X0139073Y0134989D01*
X0138925Y0135034D01*
X0138779Y0135083D01*
X0138633Y0135136D01*
X0138490Y0135192D01*
X0138347Y0135252D01*
X0138207Y0135316D01*
X0138067Y0135383D01*
X0137930Y0135454D01*
X0137795Y0135528D01*
X0137661Y0135606D01*
X0137530Y0135687D01*
X0137401Y0135772D01*
X0137273Y0135860D01*
X0137149Y0135951D01*
X0137026Y0136045D01*
X0136906Y0136143D01*
X0136789Y0136243D01*
X0136674Y0136347D01*
X0136562Y0136453D01*
X0136453Y0136562D01*
X0136347Y0136674D01*
X0136243Y0136789D01*
X0136143Y0136906D01*
X0136045Y0137026D01*
X0135951Y0137149D01*
X0135860Y0137273D01*
X0135772Y0137401D01*
X0135687Y0137530D01*
X0135606Y0137661D01*
X0135528Y0137795D01*
X0135454Y0137930D01*
X0135383Y0138067D01*
X0135316Y0138207D01*
X0135252Y0138347D01*
X0135192Y0138490D01*
X0135136Y0138633D01*
X0135083Y0138779D01*
X0135034Y0138925D01*
X0134989Y0139073D01*
X0134948Y0139222D01*
X0134910Y0139372D01*
X0134877Y0139523D01*
X0134847Y0139674D01*
X0134821Y0139827D01*
X0134800Y0139980D01*
X0134782Y0140133D01*
X0134768Y0140287D01*
X0134758Y0140441D01*
X0134752Y0140596D01*
X0134750Y0140750D01*
X0214750Y0140750D02*
X0214752Y0140904D01*
X0214758Y0141059D01*
X0214768Y0141213D01*
X0214782Y0141367D01*
X0214800Y0141520D01*
X0214821Y0141673D01*
X0214847Y0141826D01*
X0214877Y0141977D01*
X0214910Y0142128D01*
X0214948Y0142278D01*
X0214989Y0142427D01*
X0215034Y0142575D01*
X0215083Y0142721D01*
X0215136Y0142867D01*
X0215192Y0143010D01*
X0215252Y0143153D01*
X0215316Y0143293D01*
X0215383Y0143433D01*
X0215454Y0143570D01*
X0215528Y0143705D01*
X0215606Y0143839D01*
X0215687Y0143970D01*
X0215772Y0144099D01*
X0215860Y0144227D01*
X0215951Y0144351D01*
X0216045Y0144474D01*
X0216143Y0144594D01*
X0216243Y0144711D01*
X0216347Y0144826D01*
X0216453Y0144938D01*
X0216562Y0145047D01*
X0216674Y0145153D01*
X0216789Y0145257D01*
X0216906Y0145357D01*
X0217026Y0145455D01*
X0217149Y0145549D01*
X0217273Y0145640D01*
X0217401Y0145728D01*
X0217530Y0145813D01*
X0217661Y0145894D01*
X0217795Y0145972D01*
X0217930Y0146046D01*
X0218067Y0146117D01*
X0218207Y0146184D01*
X0218347Y0146248D01*
X0218490Y0146308D01*
X0218633Y0146364D01*
X0218779Y0146417D01*
X0218925Y0146466D01*
X0219073Y0146511D01*
X0219222Y0146552D01*
X0219372Y0146590D01*
X0219523Y0146623D01*
X0219674Y0146653D01*
X0219827Y0146679D01*
X0219980Y0146700D01*
X0220133Y0146718D01*
X0220287Y0146732D01*
X0220441Y0146742D01*
X0220596Y0146748D01*
X0220750Y0146750D01*
X0220904Y0146748D01*
X0221059Y0146742D01*
X0221213Y0146732D01*
X0221367Y0146718D01*
X0221520Y0146700D01*
X0221673Y0146679D01*
X0221826Y0146653D01*
X0221977Y0146623D01*
X0222128Y0146590D01*
X0222278Y0146552D01*
X0222427Y0146511D01*
X0222575Y0146466D01*
X0222721Y0146417D01*
X0222867Y0146364D01*
X0223010Y0146308D01*
X0223153Y0146248D01*
X0223293Y0146184D01*
X0223433Y0146117D01*
X0223570Y0146046D01*
X0223705Y0145972D01*
X0223839Y0145894D01*
X0223970Y0145813D01*
X0224099Y0145728D01*
X0224227Y0145640D01*
X0224351Y0145549D01*
X0224474Y0145455D01*
X0224594Y0145357D01*
X0224711Y0145257D01*
X0224826Y0145153D01*
X0224938Y0145047D01*
X0225047Y0144938D01*
X0225153Y0144826D01*
X0225257Y0144711D01*
X0225357Y0144594D01*
X0225455Y0144474D01*
X0225549Y0144351D01*
X0225640Y0144227D01*
X0225728Y0144099D01*
X0225813Y0143970D01*
X0225894Y0143839D01*
X0225972Y0143705D01*
X0226046Y0143570D01*
X0226117Y0143433D01*
X0226184Y0143293D01*
X0226248Y0143153D01*
X0226308Y0143010D01*
X0226364Y0142867D01*
X0226417Y0142721D01*
X0226466Y0142575D01*
X0226511Y0142427D01*
X0226552Y0142278D01*
X0226590Y0142128D01*
X0226623Y0141977D01*
X0226653Y0141826D01*
X0226679Y0141673D01*
X0226700Y0141520D01*
X0226718Y0141367D01*
X0226732Y0141213D01*
X0226742Y0141059D01*
X0226748Y0140904D01*
X0226750Y0140750D01*
X0226748Y0140596D01*
X0226742Y0140441D01*
X0226732Y0140287D01*
X0226718Y0140133D01*
X0226700Y0139980D01*
X0226679Y0139827D01*
X0226653Y0139674D01*
X0226623Y0139523D01*
X0226590Y0139372D01*
X0226552Y0139222D01*
X0226511Y0139073D01*
X0226466Y0138925D01*
X0226417Y0138779D01*
X0226364Y0138633D01*
X0226308Y0138490D01*
X0226248Y0138347D01*
X0226184Y0138207D01*
X0226117Y0138067D01*
X0226046Y0137930D01*
X0225972Y0137795D01*
X0225894Y0137661D01*
X0225813Y0137530D01*
X0225728Y0137401D01*
X0225640Y0137273D01*
X0225549Y0137149D01*
X0225455Y0137026D01*
X0225357Y0136906D01*
X0225257Y0136789D01*
X0225153Y0136674D01*
X0225047Y0136562D01*
X0224938Y0136453D01*
X0224826Y0136347D01*
X0224711Y0136243D01*
X0224594Y0136143D01*
X0224474Y0136045D01*
X0224351Y0135951D01*
X0224227Y0135860D01*
X0224099Y0135772D01*
X0223970Y0135687D01*
X0223839Y0135606D01*
X0223705Y0135528D01*
X0223570Y0135454D01*
X0223433Y0135383D01*
X0223293Y0135316D01*
X0223153Y0135252D01*
X0223010Y0135192D01*
X0222867Y0135136D01*
X0222721Y0135083D01*
X0222575Y0135034D01*
X0222427Y0134989D01*
X0222278Y0134948D01*
X0222128Y0134910D01*
X0221977Y0134877D01*
X0221826Y0134847D01*
X0221673Y0134821D01*
X0221520Y0134800D01*
X0221367Y0134782D01*
X0221213Y0134768D01*
X0221059Y0134758D01*
X0220904Y0134752D01*
X0220750Y0134750D01*
X0220596Y0134752D01*
X0220441Y0134758D01*
X0220287Y0134768D01*
X0220133Y0134782D01*
X0219980Y0134800D01*
X0219827Y0134821D01*
X0219674Y0134847D01*
X0219523Y0134877D01*
X0219372Y0134910D01*
X0219222Y0134948D01*
X0219073Y0134989D01*
X0218925Y0135034D01*
X0218779Y0135083D01*
X0218633Y0135136D01*
X0218490Y0135192D01*
X0218347Y0135252D01*
X0218207Y0135316D01*
X0218067Y0135383D01*
X0217930Y0135454D01*
X0217795Y0135528D01*
X0217661Y0135606D01*
X0217530Y0135687D01*
X0217401Y0135772D01*
X0217273Y0135860D01*
X0217149Y0135951D01*
X0217026Y0136045D01*
X0216906Y0136143D01*
X0216789Y0136243D01*
X0216674Y0136347D01*
X0216562Y0136453D01*
X0216453Y0136562D01*
X0216347Y0136674D01*
X0216243Y0136789D01*
X0216143Y0136906D01*
X0216045Y0137026D01*
X0215951Y0137149D01*
X0215860Y0137273D01*
X0215772Y0137401D01*
X0215687Y0137530D01*
X0215606Y0137661D01*
X0215528Y0137795D01*
X0215454Y0137930D01*
X0215383Y0138067D01*
X0215316Y0138207D01*
X0215252Y0138347D01*
X0215192Y0138490D01*
X0215136Y0138633D01*
X0215083Y0138779D01*
X0215034Y0138925D01*
X0214989Y0139073D01*
X0214948Y0139222D01*
X0214910Y0139372D01*
X0214877Y0139523D01*
X0214847Y0139674D01*
X0214821Y0139827D01*
X0214800Y0139980D01*
X0214782Y0140133D01*
X0214768Y0140287D01*
X0214758Y0140441D01*
X0214752Y0140596D01*
X0214750Y0140750D01*
X0236750Y0140750D02*
X0236752Y0140904D01*
X0236758Y0141059D01*
X0236768Y0141213D01*
X0236782Y0141367D01*
X0236800Y0141520D01*
X0236821Y0141673D01*
X0236847Y0141826D01*
X0236877Y0141977D01*
X0236910Y0142128D01*
X0236948Y0142278D01*
X0236989Y0142427D01*
X0237034Y0142575D01*
X0237083Y0142721D01*
X0237136Y0142867D01*
X0237192Y0143010D01*
X0237252Y0143153D01*
X0237316Y0143293D01*
X0237383Y0143433D01*
X0237454Y0143570D01*
X0237528Y0143705D01*
X0237606Y0143839D01*
X0237687Y0143970D01*
X0237772Y0144099D01*
X0237860Y0144227D01*
X0237951Y0144351D01*
X0238045Y0144474D01*
X0238143Y0144594D01*
X0238243Y0144711D01*
X0238347Y0144826D01*
X0238453Y0144938D01*
X0238562Y0145047D01*
X0238674Y0145153D01*
X0238789Y0145257D01*
X0238906Y0145357D01*
X0239026Y0145455D01*
X0239149Y0145549D01*
X0239273Y0145640D01*
X0239401Y0145728D01*
X0239530Y0145813D01*
X0239661Y0145894D01*
X0239795Y0145972D01*
X0239930Y0146046D01*
X0240067Y0146117D01*
X0240207Y0146184D01*
X0240347Y0146248D01*
X0240490Y0146308D01*
X0240633Y0146364D01*
X0240779Y0146417D01*
X0240925Y0146466D01*
X0241073Y0146511D01*
X0241222Y0146552D01*
X0241372Y0146590D01*
X0241523Y0146623D01*
X0241674Y0146653D01*
X0241827Y0146679D01*
X0241980Y0146700D01*
X0242133Y0146718D01*
X0242287Y0146732D01*
X0242441Y0146742D01*
X0242596Y0146748D01*
X0242750Y0146750D01*
X0242904Y0146748D01*
X0243059Y0146742D01*
X0243213Y0146732D01*
X0243367Y0146718D01*
X0243520Y0146700D01*
X0243673Y0146679D01*
X0243826Y0146653D01*
X0243977Y0146623D01*
X0244128Y0146590D01*
X0244278Y0146552D01*
X0244427Y0146511D01*
X0244575Y0146466D01*
X0244721Y0146417D01*
X0244867Y0146364D01*
X0245010Y0146308D01*
X0245153Y0146248D01*
X0245293Y0146184D01*
X0245433Y0146117D01*
X0245570Y0146046D01*
X0245705Y0145972D01*
X0245839Y0145894D01*
X0245970Y0145813D01*
X0246099Y0145728D01*
X0246227Y0145640D01*
X0246351Y0145549D01*
X0246474Y0145455D01*
X0246594Y0145357D01*
X0246711Y0145257D01*
X0246826Y0145153D01*
X0246938Y0145047D01*
X0247047Y0144938D01*
X0247153Y0144826D01*
X0247257Y0144711D01*
X0247357Y0144594D01*
X0247455Y0144474D01*
X0247549Y0144351D01*
X0247640Y0144227D01*
X0247728Y0144099D01*
X0247813Y0143970D01*
X0247894Y0143839D01*
X0247972Y0143705D01*
X0248046Y0143570D01*
X0248117Y0143433D01*
X0248184Y0143293D01*
X0248248Y0143153D01*
X0248308Y0143010D01*
X0248364Y0142867D01*
X0248417Y0142721D01*
X0248466Y0142575D01*
X0248511Y0142427D01*
X0248552Y0142278D01*
X0248590Y0142128D01*
X0248623Y0141977D01*
X0248653Y0141826D01*
X0248679Y0141673D01*
X0248700Y0141520D01*
X0248718Y0141367D01*
X0248732Y0141213D01*
X0248742Y0141059D01*
X0248748Y0140904D01*
X0248750Y0140750D01*
X0248748Y0140596D01*
X0248742Y0140441D01*
X0248732Y0140287D01*
X0248718Y0140133D01*
X0248700Y0139980D01*
X0248679Y0139827D01*
X0248653Y0139674D01*
X0248623Y0139523D01*
X0248590Y0139372D01*
X0248552Y0139222D01*
X0248511Y0139073D01*
X0248466Y0138925D01*
X0248417Y0138779D01*
X0248364Y0138633D01*
X0248308Y0138490D01*
X0248248Y0138347D01*
X0248184Y0138207D01*
X0248117Y0138067D01*
X0248046Y0137930D01*
X0247972Y0137795D01*
X0247894Y0137661D01*
X0247813Y0137530D01*
X0247728Y0137401D01*
X0247640Y0137273D01*
X0247549Y0137149D01*
X0247455Y0137026D01*
X0247357Y0136906D01*
X0247257Y0136789D01*
X0247153Y0136674D01*
X0247047Y0136562D01*
X0246938Y0136453D01*
X0246826Y0136347D01*
X0246711Y0136243D01*
X0246594Y0136143D01*
X0246474Y0136045D01*
X0246351Y0135951D01*
X0246227Y0135860D01*
X0246099Y0135772D01*
X0245970Y0135687D01*
X0245839Y0135606D01*
X0245705Y0135528D01*
X0245570Y0135454D01*
X0245433Y0135383D01*
X0245293Y0135316D01*
X0245153Y0135252D01*
X0245010Y0135192D01*
X0244867Y0135136D01*
X0244721Y0135083D01*
X0244575Y0135034D01*
X0244427Y0134989D01*
X0244278Y0134948D01*
X0244128Y0134910D01*
X0243977Y0134877D01*
X0243826Y0134847D01*
X0243673Y0134821D01*
X0243520Y0134800D01*
X0243367Y0134782D01*
X0243213Y0134768D01*
X0243059Y0134758D01*
X0242904Y0134752D01*
X0242750Y0134750D01*
X0242596Y0134752D01*
X0242441Y0134758D01*
X0242287Y0134768D01*
X0242133Y0134782D01*
X0241980Y0134800D01*
X0241827Y0134821D01*
X0241674Y0134847D01*
X0241523Y0134877D01*
X0241372Y0134910D01*
X0241222Y0134948D01*
X0241073Y0134989D01*
X0240925Y0135034D01*
X0240779Y0135083D01*
X0240633Y0135136D01*
X0240490Y0135192D01*
X0240347Y0135252D01*
X0240207Y0135316D01*
X0240067Y0135383D01*
X0239930Y0135454D01*
X0239795Y0135528D01*
X0239661Y0135606D01*
X0239530Y0135687D01*
X0239401Y0135772D01*
X0239273Y0135860D01*
X0239149Y0135951D01*
X0239026Y0136045D01*
X0238906Y0136143D01*
X0238789Y0136243D01*
X0238674Y0136347D01*
X0238562Y0136453D01*
X0238453Y0136562D01*
X0238347Y0136674D01*
X0238243Y0136789D01*
X0238143Y0136906D01*
X0238045Y0137026D01*
X0237951Y0137149D01*
X0237860Y0137273D01*
X0237772Y0137401D01*
X0237687Y0137530D01*
X0237606Y0137661D01*
X0237528Y0137795D01*
X0237454Y0137930D01*
X0237383Y0138067D01*
X0237316Y0138207D01*
X0237252Y0138347D01*
X0237192Y0138490D01*
X0237136Y0138633D01*
X0237083Y0138779D01*
X0237034Y0138925D01*
X0236989Y0139073D01*
X0236948Y0139222D01*
X0236910Y0139372D01*
X0236877Y0139523D01*
X0236847Y0139674D01*
X0236821Y0139827D01*
X0236800Y0139980D01*
X0236782Y0140133D01*
X0236768Y0140287D01*
X0236758Y0140441D01*
X0236752Y0140596D01*
X0236750Y0140750D01*
X0316750Y0140750D02*
X0316752Y0140904D01*
X0316758Y0141059D01*
X0316768Y0141213D01*
X0316782Y0141367D01*
X0316800Y0141520D01*
X0316821Y0141673D01*
X0316847Y0141826D01*
X0316877Y0141977D01*
X0316910Y0142128D01*
X0316948Y0142278D01*
X0316989Y0142427D01*
X0317034Y0142575D01*
X0317083Y0142721D01*
X0317136Y0142867D01*
X0317192Y0143010D01*
X0317252Y0143153D01*
X0317316Y0143293D01*
X0317383Y0143433D01*
X0317454Y0143570D01*
X0317528Y0143705D01*
X0317606Y0143839D01*
X0317687Y0143970D01*
X0317772Y0144099D01*
X0317860Y0144227D01*
X0317951Y0144351D01*
X0318045Y0144474D01*
X0318143Y0144594D01*
X0318243Y0144711D01*
X0318347Y0144826D01*
X0318453Y0144938D01*
X0318562Y0145047D01*
X0318674Y0145153D01*
X0318789Y0145257D01*
X0318906Y0145357D01*
X0319026Y0145455D01*
X0319149Y0145549D01*
X0319273Y0145640D01*
X0319401Y0145728D01*
X0319530Y0145813D01*
X0319661Y0145894D01*
X0319795Y0145972D01*
X0319930Y0146046D01*
X0320067Y0146117D01*
X0320207Y0146184D01*
X0320347Y0146248D01*
X0320490Y0146308D01*
X0320633Y0146364D01*
X0320779Y0146417D01*
X0320925Y0146466D01*
X0321073Y0146511D01*
X0321222Y0146552D01*
X0321372Y0146590D01*
X0321523Y0146623D01*
X0321674Y0146653D01*
X0321827Y0146679D01*
X0321980Y0146700D01*
X0322133Y0146718D01*
X0322287Y0146732D01*
X0322441Y0146742D01*
X0322596Y0146748D01*
X0322750Y0146750D01*
X0322904Y0146748D01*
X0323059Y0146742D01*
X0323213Y0146732D01*
X0323367Y0146718D01*
X0323520Y0146700D01*
X0323673Y0146679D01*
X0323826Y0146653D01*
X0323977Y0146623D01*
X0324128Y0146590D01*
X0324278Y0146552D01*
X0324427Y0146511D01*
X0324575Y0146466D01*
X0324721Y0146417D01*
X0324867Y0146364D01*
X0325010Y0146308D01*
X0325153Y0146248D01*
X0325293Y0146184D01*
X0325433Y0146117D01*
X0325570Y0146046D01*
X0325705Y0145972D01*
X0325839Y0145894D01*
X0325970Y0145813D01*
X0326099Y0145728D01*
X0326227Y0145640D01*
X0326351Y0145549D01*
X0326474Y0145455D01*
X0326594Y0145357D01*
X0326711Y0145257D01*
X0326826Y0145153D01*
X0326938Y0145047D01*
X0327047Y0144938D01*
X0327153Y0144826D01*
X0327257Y0144711D01*
X0327357Y0144594D01*
X0327455Y0144474D01*
X0327549Y0144351D01*
X0327640Y0144227D01*
X0327728Y0144099D01*
X0327813Y0143970D01*
X0327894Y0143839D01*
X0327972Y0143705D01*
X0328046Y0143570D01*
X0328117Y0143433D01*
X0328184Y0143293D01*
X0328248Y0143153D01*
X0328308Y0143010D01*
X0328364Y0142867D01*
X0328417Y0142721D01*
X0328466Y0142575D01*
X0328511Y0142427D01*
X0328552Y0142278D01*
X0328590Y0142128D01*
X0328623Y0141977D01*
X0328653Y0141826D01*
X0328679Y0141673D01*
X0328700Y0141520D01*
X0328718Y0141367D01*
X0328732Y0141213D01*
X0328742Y0141059D01*
X0328748Y0140904D01*
X0328750Y0140750D01*
X0328748Y0140596D01*
X0328742Y0140441D01*
X0328732Y0140287D01*
X0328718Y0140133D01*
X0328700Y0139980D01*
X0328679Y0139827D01*
X0328653Y0139674D01*
X0328623Y0139523D01*
X0328590Y0139372D01*
X0328552Y0139222D01*
X0328511Y0139073D01*
X0328466Y0138925D01*
X0328417Y0138779D01*
X0328364Y0138633D01*
X0328308Y0138490D01*
X0328248Y0138347D01*
X0328184Y0138207D01*
X0328117Y0138067D01*
X0328046Y0137930D01*
X0327972Y0137795D01*
X0327894Y0137661D01*
X0327813Y0137530D01*
X0327728Y0137401D01*
X0327640Y0137273D01*
X0327549Y0137149D01*
X0327455Y0137026D01*
X0327357Y0136906D01*
X0327257Y0136789D01*
X0327153Y0136674D01*
X0327047Y0136562D01*
X0326938Y0136453D01*
X0326826Y0136347D01*
X0326711Y0136243D01*
X0326594Y0136143D01*
X0326474Y0136045D01*
X0326351Y0135951D01*
X0326227Y0135860D01*
X0326099Y0135772D01*
X0325970Y0135687D01*
X0325839Y0135606D01*
X0325705Y0135528D01*
X0325570Y0135454D01*
X0325433Y0135383D01*
X0325293Y0135316D01*
X0325153Y0135252D01*
X0325010Y0135192D01*
X0324867Y0135136D01*
X0324721Y0135083D01*
X0324575Y0135034D01*
X0324427Y0134989D01*
X0324278Y0134948D01*
X0324128Y0134910D01*
X0323977Y0134877D01*
X0323826Y0134847D01*
X0323673Y0134821D01*
X0323520Y0134800D01*
X0323367Y0134782D01*
X0323213Y0134768D01*
X0323059Y0134758D01*
X0322904Y0134752D01*
X0322750Y0134750D01*
X0322596Y0134752D01*
X0322441Y0134758D01*
X0322287Y0134768D01*
X0322133Y0134782D01*
X0321980Y0134800D01*
X0321827Y0134821D01*
X0321674Y0134847D01*
X0321523Y0134877D01*
X0321372Y0134910D01*
X0321222Y0134948D01*
X0321073Y0134989D01*
X0320925Y0135034D01*
X0320779Y0135083D01*
X0320633Y0135136D01*
X0320490Y0135192D01*
X0320347Y0135252D01*
X0320207Y0135316D01*
X0320067Y0135383D01*
X0319930Y0135454D01*
X0319795Y0135528D01*
X0319661Y0135606D01*
X0319530Y0135687D01*
X0319401Y0135772D01*
X0319273Y0135860D01*
X0319149Y0135951D01*
X0319026Y0136045D01*
X0318906Y0136143D01*
X0318789Y0136243D01*
X0318674Y0136347D01*
X0318562Y0136453D01*
X0318453Y0136562D01*
X0318347Y0136674D01*
X0318243Y0136789D01*
X0318143Y0136906D01*
X0318045Y0137026D01*
X0317951Y0137149D01*
X0317860Y0137273D01*
X0317772Y0137401D01*
X0317687Y0137530D01*
X0317606Y0137661D01*
X0317528Y0137795D01*
X0317454Y0137930D01*
X0317383Y0138067D01*
X0317316Y0138207D01*
X0317252Y0138347D01*
X0317192Y0138490D01*
X0317136Y0138633D01*
X0317083Y0138779D01*
X0317034Y0138925D01*
X0316989Y0139073D01*
X0316948Y0139222D01*
X0316910Y0139372D01*
X0316877Y0139523D01*
X0316847Y0139674D01*
X0316821Y0139827D01*
X0316800Y0139980D01*
X0316782Y0140133D01*
X0316768Y0140287D01*
X0316758Y0140441D01*
X0316752Y0140596D01*
X0316750Y0140750D01*
X0316750Y0038750D02*
X0316752Y0038904D01*
X0316758Y0039059D01*
X0316768Y0039213D01*
X0316782Y0039367D01*
X0316800Y0039520D01*
X0316821Y0039673D01*
X0316847Y0039826D01*
X0316877Y0039977D01*
X0316910Y0040128D01*
X0316948Y0040278D01*
X0316989Y0040427D01*
X0317034Y0040575D01*
X0317083Y0040721D01*
X0317136Y0040867D01*
X0317192Y0041010D01*
X0317252Y0041153D01*
X0317316Y0041293D01*
X0317383Y0041433D01*
X0317454Y0041570D01*
X0317528Y0041705D01*
X0317606Y0041839D01*
X0317687Y0041970D01*
X0317772Y0042099D01*
X0317860Y0042227D01*
X0317951Y0042351D01*
X0318045Y0042474D01*
X0318143Y0042594D01*
X0318243Y0042711D01*
X0318347Y0042826D01*
X0318453Y0042938D01*
X0318562Y0043047D01*
X0318674Y0043153D01*
X0318789Y0043257D01*
X0318906Y0043357D01*
X0319026Y0043455D01*
X0319149Y0043549D01*
X0319273Y0043640D01*
X0319401Y0043728D01*
X0319530Y0043813D01*
X0319661Y0043894D01*
X0319795Y0043972D01*
X0319930Y0044046D01*
X0320067Y0044117D01*
X0320207Y0044184D01*
X0320347Y0044248D01*
X0320490Y0044308D01*
X0320633Y0044364D01*
X0320779Y0044417D01*
X0320925Y0044466D01*
X0321073Y0044511D01*
X0321222Y0044552D01*
X0321372Y0044590D01*
X0321523Y0044623D01*
X0321674Y0044653D01*
X0321827Y0044679D01*
X0321980Y0044700D01*
X0322133Y0044718D01*
X0322287Y0044732D01*
X0322441Y0044742D01*
X0322596Y0044748D01*
X0322750Y0044750D01*
X0322904Y0044748D01*
X0323059Y0044742D01*
X0323213Y0044732D01*
X0323367Y0044718D01*
X0323520Y0044700D01*
X0323673Y0044679D01*
X0323826Y0044653D01*
X0323977Y0044623D01*
X0324128Y0044590D01*
X0324278Y0044552D01*
X0324427Y0044511D01*
X0324575Y0044466D01*
X0324721Y0044417D01*
X0324867Y0044364D01*
X0325010Y0044308D01*
X0325153Y0044248D01*
X0325293Y0044184D01*
X0325433Y0044117D01*
X0325570Y0044046D01*
X0325705Y0043972D01*
X0325839Y0043894D01*
X0325970Y0043813D01*
X0326099Y0043728D01*
X0326227Y0043640D01*
X0326351Y0043549D01*
X0326474Y0043455D01*
X0326594Y0043357D01*
X0326711Y0043257D01*
X0326826Y0043153D01*
X0326938Y0043047D01*
X0327047Y0042938D01*
X0327153Y0042826D01*
X0327257Y0042711D01*
X0327357Y0042594D01*
X0327455Y0042474D01*
X0327549Y0042351D01*
X0327640Y0042227D01*
X0327728Y0042099D01*
X0327813Y0041970D01*
X0327894Y0041839D01*
X0327972Y0041705D01*
X0328046Y0041570D01*
X0328117Y0041433D01*
X0328184Y0041293D01*
X0328248Y0041153D01*
X0328308Y0041010D01*
X0328364Y0040867D01*
X0328417Y0040721D01*
X0328466Y0040575D01*
X0328511Y0040427D01*
X0328552Y0040278D01*
X0328590Y0040128D01*
X0328623Y0039977D01*
X0328653Y0039826D01*
X0328679Y0039673D01*
X0328700Y0039520D01*
X0328718Y0039367D01*
X0328732Y0039213D01*
X0328742Y0039059D01*
X0328748Y0038904D01*
X0328750Y0038750D01*
X0328748Y0038596D01*
X0328742Y0038441D01*
X0328732Y0038287D01*
X0328718Y0038133D01*
X0328700Y0037980D01*
X0328679Y0037827D01*
X0328653Y0037674D01*
X0328623Y0037523D01*
X0328590Y0037372D01*
X0328552Y0037222D01*
X0328511Y0037073D01*
X0328466Y0036925D01*
X0328417Y0036779D01*
X0328364Y0036633D01*
X0328308Y0036490D01*
X0328248Y0036347D01*
X0328184Y0036207D01*
X0328117Y0036067D01*
X0328046Y0035930D01*
X0327972Y0035795D01*
X0327894Y0035661D01*
X0327813Y0035530D01*
X0327728Y0035401D01*
X0327640Y0035273D01*
X0327549Y0035149D01*
X0327455Y0035026D01*
X0327357Y0034906D01*
X0327257Y0034789D01*
X0327153Y0034674D01*
X0327047Y0034562D01*
X0326938Y0034453D01*
X0326826Y0034347D01*
X0326711Y0034243D01*
X0326594Y0034143D01*
X0326474Y0034045D01*
X0326351Y0033951D01*
X0326227Y0033860D01*
X0326099Y0033772D01*
X0325970Y0033687D01*
X0325839Y0033606D01*
X0325705Y0033528D01*
X0325570Y0033454D01*
X0325433Y0033383D01*
X0325293Y0033316D01*
X0325153Y0033252D01*
X0325010Y0033192D01*
X0324867Y0033136D01*
X0324721Y0033083D01*
X0324575Y0033034D01*
X0324427Y0032989D01*
X0324278Y0032948D01*
X0324128Y0032910D01*
X0323977Y0032877D01*
X0323826Y0032847D01*
X0323673Y0032821D01*
X0323520Y0032800D01*
X0323367Y0032782D01*
X0323213Y0032768D01*
X0323059Y0032758D01*
X0322904Y0032752D01*
X0322750Y0032750D01*
X0322596Y0032752D01*
X0322441Y0032758D01*
X0322287Y0032768D01*
X0322133Y0032782D01*
X0321980Y0032800D01*
X0321827Y0032821D01*
X0321674Y0032847D01*
X0321523Y0032877D01*
X0321372Y0032910D01*
X0321222Y0032948D01*
X0321073Y0032989D01*
X0320925Y0033034D01*
X0320779Y0033083D01*
X0320633Y0033136D01*
X0320490Y0033192D01*
X0320347Y0033252D01*
X0320207Y0033316D01*
X0320067Y0033383D01*
X0319930Y0033454D01*
X0319795Y0033528D01*
X0319661Y0033606D01*
X0319530Y0033687D01*
X0319401Y0033772D01*
X0319273Y0033860D01*
X0319149Y0033951D01*
X0319026Y0034045D01*
X0318906Y0034143D01*
X0318789Y0034243D01*
X0318674Y0034347D01*
X0318562Y0034453D01*
X0318453Y0034562D01*
X0318347Y0034674D01*
X0318243Y0034789D01*
X0318143Y0034906D01*
X0318045Y0035026D01*
X0317951Y0035149D01*
X0317860Y0035273D01*
X0317772Y0035401D01*
X0317687Y0035530D01*
X0317606Y0035661D01*
X0317528Y0035795D01*
X0317454Y0035930D01*
X0317383Y0036067D01*
X0317316Y0036207D01*
X0317252Y0036347D01*
X0317192Y0036490D01*
X0317136Y0036633D01*
X0317083Y0036779D01*
X0317034Y0036925D01*
X0316989Y0037073D01*
X0316948Y0037222D01*
X0316910Y0037372D01*
X0316877Y0037523D01*
X0316847Y0037674D01*
X0316821Y0037827D01*
X0316800Y0037980D01*
X0316782Y0038133D01*
X0316768Y0038287D01*
X0316758Y0038441D01*
X0316752Y0038596D01*
X0316750Y0038750D01*
X0236750Y0038750D02*
X0236752Y0038904D01*
X0236758Y0039059D01*
X0236768Y0039213D01*
X0236782Y0039367D01*
X0236800Y0039520D01*
X0236821Y0039673D01*
X0236847Y0039826D01*
X0236877Y0039977D01*
X0236910Y0040128D01*
X0236948Y0040278D01*
X0236989Y0040427D01*
X0237034Y0040575D01*
X0237083Y0040721D01*
X0237136Y0040867D01*
X0237192Y0041010D01*
X0237252Y0041153D01*
X0237316Y0041293D01*
X0237383Y0041433D01*
X0237454Y0041570D01*
X0237528Y0041705D01*
X0237606Y0041839D01*
X0237687Y0041970D01*
X0237772Y0042099D01*
X0237860Y0042227D01*
X0237951Y0042351D01*
X0238045Y0042474D01*
X0238143Y0042594D01*
X0238243Y0042711D01*
X0238347Y0042826D01*
X0238453Y0042938D01*
X0238562Y0043047D01*
X0238674Y0043153D01*
X0238789Y0043257D01*
X0238906Y0043357D01*
X0239026Y0043455D01*
X0239149Y0043549D01*
X0239273Y0043640D01*
X0239401Y0043728D01*
X0239530Y0043813D01*
X0239661Y0043894D01*
X0239795Y0043972D01*
X0239930Y0044046D01*
X0240067Y0044117D01*
X0240207Y0044184D01*
X0240347Y0044248D01*
X0240490Y0044308D01*
X0240633Y0044364D01*
X0240779Y0044417D01*
X0240925Y0044466D01*
X0241073Y0044511D01*
X0241222Y0044552D01*
X0241372Y0044590D01*
X0241523Y0044623D01*
X0241674Y0044653D01*
X0241827Y0044679D01*
X0241980Y0044700D01*
X0242133Y0044718D01*
X0242287Y0044732D01*
X0242441Y0044742D01*
X0242596Y0044748D01*
X0242750Y0044750D01*
X0242904Y0044748D01*
X0243059Y0044742D01*
X0243213Y0044732D01*
X0243367Y0044718D01*
X0243520Y0044700D01*
X0243673Y0044679D01*
X0243826Y0044653D01*
X0243977Y0044623D01*
X0244128Y0044590D01*
X0244278Y0044552D01*
X0244427Y0044511D01*
X0244575Y0044466D01*
X0244721Y0044417D01*
X0244867Y0044364D01*
X0245010Y0044308D01*
X0245153Y0044248D01*
X0245293Y0044184D01*
X0245433Y0044117D01*
X0245570Y0044046D01*
X0245705Y0043972D01*
X0245839Y0043894D01*
X0245970Y0043813D01*
X0246099Y0043728D01*
X0246227Y0043640D01*
X0246351Y0043549D01*
X0246474Y0043455D01*
X0246594Y0043357D01*
X0246711Y0043257D01*
X0246826Y0043153D01*
X0246938Y0043047D01*
X0247047Y0042938D01*
X0247153Y0042826D01*
X0247257Y0042711D01*
X0247357Y0042594D01*
X0247455Y0042474D01*
X0247549Y0042351D01*
X0247640Y0042227D01*
X0247728Y0042099D01*
X0247813Y0041970D01*
X0247894Y0041839D01*
X0247972Y0041705D01*
X0248046Y0041570D01*
X0248117Y0041433D01*
X0248184Y0041293D01*
X0248248Y0041153D01*
X0248308Y0041010D01*
X0248364Y0040867D01*
X0248417Y0040721D01*
X0248466Y0040575D01*
X0248511Y0040427D01*
X0248552Y0040278D01*
X0248590Y0040128D01*
X0248623Y0039977D01*
X0248653Y0039826D01*
X0248679Y0039673D01*
X0248700Y0039520D01*
X0248718Y0039367D01*
X0248732Y0039213D01*
X0248742Y0039059D01*
X0248748Y0038904D01*
X0248750Y0038750D01*
X0248748Y0038596D01*
X0248742Y0038441D01*
X0248732Y0038287D01*
X0248718Y0038133D01*
X0248700Y0037980D01*
X0248679Y0037827D01*
X0248653Y0037674D01*
X0248623Y0037523D01*
X0248590Y0037372D01*
X0248552Y0037222D01*
X0248511Y0037073D01*
X0248466Y0036925D01*
X0248417Y0036779D01*
X0248364Y0036633D01*
X0248308Y0036490D01*
X0248248Y0036347D01*
X0248184Y0036207D01*
X0248117Y0036067D01*
X0248046Y0035930D01*
X0247972Y0035795D01*
X0247894Y0035661D01*
X0247813Y0035530D01*
X0247728Y0035401D01*
X0247640Y0035273D01*
X0247549Y0035149D01*
X0247455Y0035026D01*
X0247357Y0034906D01*
X0247257Y0034789D01*
X0247153Y0034674D01*
X0247047Y0034562D01*
X0246938Y0034453D01*
X0246826Y0034347D01*
X0246711Y0034243D01*
X0246594Y0034143D01*
X0246474Y0034045D01*
X0246351Y0033951D01*
X0246227Y0033860D01*
X0246099Y0033772D01*
X0245970Y0033687D01*
X0245839Y0033606D01*
X0245705Y0033528D01*
X0245570Y0033454D01*
X0245433Y0033383D01*
X0245293Y0033316D01*
X0245153Y0033252D01*
X0245010Y0033192D01*
X0244867Y0033136D01*
X0244721Y0033083D01*
X0244575Y0033034D01*
X0244427Y0032989D01*
X0244278Y0032948D01*
X0244128Y0032910D01*
X0243977Y0032877D01*
X0243826Y0032847D01*
X0243673Y0032821D01*
X0243520Y0032800D01*
X0243367Y0032782D01*
X0243213Y0032768D01*
X0243059Y0032758D01*
X0242904Y0032752D01*
X0242750Y0032750D01*
X0242596Y0032752D01*
X0242441Y0032758D01*
X0242287Y0032768D01*
X0242133Y0032782D01*
X0241980Y0032800D01*
X0241827Y0032821D01*
X0241674Y0032847D01*
X0241523Y0032877D01*
X0241372Y0032910D01*
X0241222Y0032948D01*
X0241073Y0032989D01*
X0240925Y0033034D01*
X0240779Y0033083D01*
X0240633Y0033136D01*
X0240490Y0033192D01*
X0240347Y0033252D01*
X0240207Y0033316D01*
X0240067Y0033383D01*
X0239930Y0033454D01*
X0239795Y0033528D01*
X0239661Y0033606D01*
X0239530Y0033687D01*
X0239401Y0033772D01*
X0239273Y0033860D01*
X0239149Y0033951D01*
X0239026Y0034045D01*
X0238906Y0034143D01*
X0238789Y0034243D01*
X0238674Y0034347D01*
X0238562Y0034453D01*
X0238453Y0034562D01*
X0238347Y0034674D01*
X0238243Y0034789D01*
X0238143Y0034906D01*
X0238045Y0035026D01*
X0237951Y0035149D01*
X0237860Y0035273D01*
X0237772Y0035401D01*
X0237687Y0035530D01*
X0237606Y0035661D01*
X0237528Y0035795D01*
X0237454Y0035930D01*
X0237383Y0036067D01*
X0237316Y0036207D01*
X0237252Y0036347D01*
X0237192Y0036490D01*
X0237136Y0036633D01*
X0237083Y0036779D01*
X0237034Y0036925D01*
X0236989Y0037073D01*
X0236948Y0037222D01*
X0236910Y0037372D01*
X0236877Y0037523D01*
X0236847Y0037674D01*
X0236821Y0037827D01*
X0236800Y0037980D01*
X0236782Y0038133D01*
X0236768Y0038287D01*
X0236758Y0038441D01*
X0236752Y0038596D01*
X0236750Y0038750D01*
X0214750Y0038750D02*
X0214752Y0038904D01*
X0214758Y0039059D01*
X0214768Y0039213D01*
X0214782Y0039367D01*
X0214800Y0039520D01*
X0214821Y0039673D01*
X0214847Y0039826D01*
X0214877Y0039977D01*
X0214910Y0040128D01*
X0214948Y0040278D01*
X0214989Y0040427D01*
X0215034Y0040575D01*
X0215083Y0040721D01*
X0215136Y0040867D01*
X0215192Y0041010D01*
X0215252Y0041153D01*
X0215316Y0041293D01*
X0215383Y0041433D01*
X0215454Y0041570D01*
X0215528Y0041705D01*
X0215606Y0041839D01*
X0215687Y0041970D01*
X0215772Y0042099D01*
X0215860Y0042227D01*
X0215951Y0042351D01*
X0216045Y0042474D01*
X0216143Y0042594D01*
X0216243Y0042711D01*
X0216347Y0042826D01*
X0216453Y0042938D01*
X0216562Y0043047D01*
X0216674Y0043153D01*
X0216789Y0043257D01*
X0216906Y0043357D01*
X0217026Y0043455D01*
X0217149Y0043549D01*
X0217273Y0043640D01*
X0217401Y0043728D01*
X0217530Y0043813D01*
X0217661Y0043894D01*
X0217795Y0043972D01*
X0217930Y0044046D01*
X0218067Y0044117D01*
X0218207Y0044184D01*
X0218347Y0044248D01*
X0218490Y0044308D01*
X0218633Y0044364D01*
X0218779Y0044417D01*
X0218925Y0044466D01*
X0219073Y0044511D01*
X0219222Y0044552D01*
X0219372Y0044590D01*
X0219523Y0044623D01*
X0219674Y0044653D01*
X0219827Y0044679D01*
X0219980Y0044700D01*
X0220133Y0044718D01*
X0220287Y0044732D01*
X0220441Y0044742D01*
X0220596Y0044748D01*
X0220750Y0044750D01*
X0220904Y0044748D01*
X0221059Y0044742D01*
X0221213Y0044732D01*
X0221367Y0044718D01*
X0221520Y0044700D01*
X0221673Y0044679D01*
X0221826Y0044653D01*
X0221977Y0044623D01*
X0222128Y0044590D01*
X0222278Y0044552D01*
X0222427Y0044511D01*
X0222575Y0044466D01*
X0222721Y0044417D01*
X0222867Y0044364D01*
X0223010Y0044308D01*
X0223153Y0044248D01*
X0223293Y0044184D01*
X0223433Y0044117D01*
X0223570Y0044046D01*
X0223705Y0043972D01*
X0223839Y0043894D01*
X0223970Y0043813D01*
X0224099Y0043728D01*
X0224227Y0043640D01*
X0224351Y0043549D01*
X0224474Y0043455D01*
X0224594Y0043357D01*
X0224711Y0043257D01*
X0224826Y0043153D01*
X0224938Y0043047D01*
X0225047Y0042938D01*
X0225153Y0042826D01*
X0225257Y0042711D01*
X0225357Y0042594D01*
X0225455Y0042474D01*
X0225549Y0042351D01*
X0225640Y0042227D01*
X0225728Y0042099D01*
X0225813Y0041970D01*
X0225894Y0041839D01*
X0225972Y0041705D01*
X0226046Y0041570D01*
X0226117Y0041433D01*
X0226184Y0041293D01*
X0226248Y0041153D01*
X0226308Y0041010D01*
X0226364Y0040867D01*
X0226417Y0040721D01*
X0226466Y0040575D01*
X0226511Y0040427D01*
X0226552Y0040278D01*
X0226590Y0040128D01*
X0226623Y0039977D01*
X0226653Y0039826D01*
X0226679Y0039673D01*
X0226700Y0039520D01*
X0226718Y0039367D01*
X0226732Y0039213D01*
X0226742Y0039059D01*
X0226748Y0038904D01*
X0226750Y0038750D01*
X0226748Y0038596D01*
X0226742Y0038441D01*
X0226732Y0038287D01*
X0226718Y0038133D01*
X0226700Y0037980D01*
X0226679Y0037827D01*
X0226653Y0037674D01*
X0226623Y0037523D01*
X0226590Y0037372D01*
X0226552Y0037222D01*
X0226511Y0037073D01*
X0226466Y0036925D01*
X0226417Y0036779D01*
X0226364Y0036633D01*
X0226308Y0036490D01*
X0226248Y0036347D01*
X0226184Y0036207D01*
X0226117Y0036067D01*
X0226046Y0035930D01*
X0225972Y0035795D01*
X0225894Y0035661D01*
X0225813Y0035530D01*
X0225728Y0035401D01*
X0225640Y0035273D01*
X0225549Y0035149D01*
X0225455Y0035026D01*
X0225357Y0034906D01*
X0225257Y0034789D01*
X0225153Y0034674D01*
X0225047Y0034562D01*
X0224938Y0034453D01*
X0224826Y0034347D01*
X0224711Y0034243D01*
X0224594Y0034143D01*
X0224474Y0034045D01*
X0224351Y0033951D01*
X0224227Y0033860D01*
X0224099Y0033772D01*
X0223970Y0033687D01*
X0223839Y0033606D01*
X0223705Y0033528D01*
X0223570Y0033454D01*
X0223433Y0033383D01*
X0223293Y0033316D01*
X0223153Y0033252D01*
X0223010Y0033192D01*
X0222867Y0033136D01*
X0222721Y0033083D01*
X0222575Y0033034D01*
X0222427Y0032989D01*
X0222278Y0032948D01*
X0222128Y0032910D01*
X0221977Y0032877D01*
X0221826Y0032847D01*
X0221673Y0032821D01*
X0221520Y0032800D01*
X0221367Y0032782D01*
X0221213Y0032768D01*
X0221059Y0032758D01*
X0220904Y0032752D01*
X0220750Y0032750D01*
X0220596Y0032752D01*
X0220441Y0032758D01*
X0220287Y0032768D01*
X0220133Y0032782D01*
X0219980Y0032800D01*
X0219827Y0032821D01*
X0219674Y0032847D01*
X0219523Y0032877D01*
X0219372Y0032910D01*
X0219222Y0032948D01*
X0219073Y0032989D01*
X0218925Y0033034D01*
X0218779Y0033083D01*
X0218633Y0033136D01*
X0218490Y0033192D01*
X0218347Y0033252D01*
X0218207Y0033316D01*
X0218067Y0033383D01*
X0217930Y0033454D01*
X0217795Y0033528D01*
X0217661Y0033606D01*
X0217530Y0033687D01*
X0217401Y0033772D01*
X0217273Y0033860D01*
X0217149Y0033951D01*
X0217026Y0034045D01*
X0216906Y0034143D01*
X0216789Y0034243D01*
X0216674Y0034347D01*
X0216562Y0034453D01*
X0216453Y0034562D01*
X0216347Y0034674D01*
X0216243Y0034789D01*
X0216143Y0034906D01*
X0216045Y0035026D01*
X0215951Y0035149D01*
X0215860Y0035273D01*
X0215772Y0035401D01*
X0215687Y0035530D01*
X0215606Y0035661D01*
X0215528Y0035795D01*
X0215454Y0035930D01*
X0215383Y0036067D01*
X0215316Y0036207D01*
X0215252Y0036347D01*
X0215192Y0036490D01*
X0215136Y0036633D01*
X0215083Y0036779D01*
X0215034Y0036925D01*
X0214989Y0037073D01*
X0214948Y0037222D01*
X0214910Y0037372D01*
X0214877Y0037523D01*
X0214847Y0037674D01*
X0214821Y0037827D01*
X0214800Y0037980D01*
X0214782Y0038133D01*
X0214768Y0038287D01*
X0214758Y0038441D01*
X0214752Y0038596D01*
X0214750Y0038750D01*
X0134750Y0038750D02*
X0134752Y0038904D01*
X0134758Y0039059D01*
X0134768Y0039213D01*
X0134782Y0039367D01*
X0134800Y0039520D01*
X0134821Y0039673D01*
X0134847Y0039826D01*
X0134877Y0039977D01*
X0134910Y0040128D01*
X0134948Y0040278D01*
X0134989Y0040427D01*
X0135034Y0040575D01*
X0135083Y0040721D01*
X0135136Y0040867D01*
X0135192Y0041010D01*
X0135252Y0041153D01*
X0135316Y0041293D01*
X0135383Y0041433D01*
X0135454Y0041570D01*
X0135528Y0041705D01*
X0135606Y0041839D01*
X0135687Y0041970D01*
X0135772Y0042099D01*
X0135860Y0042227D01*
X0135951Y0042351D01*
X0136045Y0042474D01*
X0136143Y0042594D01*
X0136243Y0042711D01*
X0136347Y0042826D01*
X0136453Y0042938D01*
X0136562Y0043047D01*
X0136674Y0043153D01*
X0136789Y0043257D01*
X0136906Y0043357D01*
X0137026Y0043455D01*
X0137149Y0043549D01*
X0137273Y0043640D01*
X0137401Y0043728D01*
X0137530Y0043813D01*
X0137661Y0043894D01*
X0137795Y0043972D01*
X0137930Y0044046D01*
X0138067Y0044117D01*
X0138207Y0044184D01*
X0138347Y0044248D01*
X0138490Y0044308D01*
X0138633Y0044364D01*
X0138779Y0044417D01*
X0138925Y0044466D01*
X0139073Y0044511D01*
X0139222Y0044552D01*
X0139372Y0044590D01*
X0139523Y0044623D01*
X0139674Y0044653D01*
X0139827Y0044679D01*
X0139980Y0044700D01*
X0140133Y0044718D01*
X0140287Y0044732D01*
X0140441Y0044742D01*
X0140596Y0044748D01*
X0140750Y0044750D01*
X0140904Y0044748D01*
X0141059Y0044742D01*
X0141213Y0044732D01*
X0141367Y0044718D01*
X0141520Y0044700D01*
X0141673Y0044679D01*
X0141826Y0044653D01*
X0141977Y0044623D01*
X0142128Y0044590D01*
X0142278Y0044552D01*
X0142427Y0044511D01*
X0142575Y0044466D01*
X0142721Y0044417D01*
X0142867Y0044364D01*
X0143010Y0044308D01*
X0143153Y0044248D01*
X0143293Y0044184D01*
X0143433Y0044117D01*
X0143570Y0044046D01*
X0143705Y0043972D01*
X0143839Y0043894D01*
X0143970Y0043813D01*
X0144099Y0043728D01*
X0144227Y0043640D01*
X0144351Y0043549D01*
X0144474Y0043455D01*
X0144594Y0043357D01*
X0144711Y0043257D01*
X0144826Y0043153D01*
X0144938Y0043047D01*
X0145047Y0042938D01*
X0145153Y0042826D01*
X0145257Y0042711D01*
X0145357Y0042594D01*
X0145455Y0042474D01*
X0145549Y0042351D01*
X0145640Y0042227D01*
X0145728Y0042099D01*
X0145813Y0041970D01*
X0145894Y0041839D01*
X0145972Y0041705D01*
X0146046Y0041570D01*
X0146117Y0041433D01*
X0146184Y0041293D01*
X0146248Y0041153D01*
X0146308Y0041010D01*
X0146364Y0040867D01*
X0146417Y0040721D01*
X0146466Y0040575D01*
X0146511Y0040427D01*
X0146552Y0040278D01*
X0146590Y0040128D01*
X0146623Y0039977D01*
X0146653Y0039826D01*
X0146679Y0039673D01*
X0146700Y0039520D01*
X0146718Y0039367D01*
X0146732Y0039213D01*
X0146742Y0039059D01*
X0146748Y0038904D01*
X0146750Y0038750D01*
X0146748Y0038596D01*
X0146742Y0038441D01*
X0146732Y0038287D01*
X0146718Y0038133D01*
X0146700Y0037980D01*
X0146679Y0037827D01*
X0146653Y0037674D01*
X0146623Y0037523D01*
X0146590Y0037372D01*
X0146552Y0037222D01*
X0146511Y0037073D01*
X0146466Y0036925D01*
X0146417Y0036779D01*
X0146364Y0036633D01*
X0146308Y0036490D01*
X0146248Y0036347D01*
X0146184Y0036207D01*
X0146117Y0036067D01*
X0146046Y0035930D01*
X0145972Y0035795D01*
X0145894Y0035661D01*
X0145813Y0035530D01*
X0145728Y0035401D01*
X0145640Y0035273D01*
X0145549Y0035149D01*
X0145455Y0035026D01*
X0145357Y0034906D01*
X0145257Y0034789D01*
X0145153Y0034674D01*
X0145047Y0034562D01*
X0144938Y0034453D01*
X0144826Y0034347D01*
X0144711Y0034243D01*
X0144594Y0034143D01*
X0144474Y0034045D01*
X0144351Y0033951D01*
X0144227Y0033860D01*
X0144099Y0033772D01*
X0143970Y0033687D01*
X0143839Y0033606D01*
X0143705Y0033528D01*
X0143570Y0033454D01*
X0143433Y0033383D01*
X0143293Y0033316D01*
X0143153Y0033252D01*
X0143010Y0033192D01*
X0142867Y0033136D01*
X0142721Y0033083D01*
X0142575Y0033034D01*
X0142427Y0032989D01*
X0142278Y0032948D01*
X0142128Y0032910D01*
X0141977Y0032877D01*
X0141826Y0032847D01*
X0141673Y0032821D01*
X0141520Y0032800D01*
X0141367Y0032782D01*
X0141213Y0032768D01*
X0141059Y0032758D01*
X0140904Y0032752D01*
X0140750Y0032750D01*
X0140596Y0032752D01*
X0140441Y0032758D01*
X0140287Y0032768D01*
X0140133Y0032782D01*
X0139980Y0032800D01*
X0139827Y0032821D01*
X0139674Y0032847D01*
X0139523Y0032877D01*
X0139372Y0032910D01*
X0139222Y0032948D01*
X0139073Y0032989D01*
X0138925Y0033034D01*
X0138779Y0033083D01*
X0138633Y0033136D01*
X0138490Y0033192D01*
X0138347Y0033252D01*
X0138207Y0033316D01*
X0138067Y0033383D01*
X0137930Y0033454D01*
X0137795Y0033528D01*
X0137661Y0033606D01*
X0137530Y0033687D01*
X0137401Y0033772D01*
X0137273Y0033860D01*
X0137149Y0033951D01*
X0137026Y0034045D01*
X0136906Y0034143D01*
X0136789Y0034243D01*
X0136674Y0034347D01*
X0136562Y0034453D01*
X0136453Y0034562D01*
X0136347Y0034674D01*
X0136243Y0034789D01*
X0136143Y0034906D01*
X0136045Y0035026D01*
X0135951Y0035149D01*
X0135860Y0035273D01*
X0135772Y0035401D01*
X0135687Y0035530D01*
X0135606Y0035661D01*
X0135528Y0035795D01*
X0135454Y0035930D01*
X0135383Y0036067D01*
X0135316Y0036207D01*
X0135252Y0036347D01*
X0135192Y0036490D01*
X0135136Y0036633D01*
X0135083Y0036779D01*
X0135034Y0036925D01*
X0134989Y0037073D01*
X0134948Y0037222D01*
X0134910Y0037372D01*
X0134877Y0037523D01*
X0134847Y0037674D01*
X0134821Y0037827D01*
X0134800Y0037980D01*
X0134782Y0038133D01*
X0134768Y0038287D01*
X0134758Y0038441D01*
X0134752Y0038596D01*
X0134750Y0038750D01*
X0112750Y0038750D02*
X0112752Y0038904D01*
X0112758Y0039059D01*
X0112768Y0039213D01*
X0112782Y0039367D01*
X0112800Y0039520D01*
X0112821Y0039673D01*
X0112847Y0039826D01*
X0112877Y0039977D01*
X0112910Y0040128D01*
X0112948Y0040278D01*
X0112989Y0040427D01*
X0113034Y0040575D01*
X0113083Y0040721D01*
X0113136Y0040867D01*
X0113192Y0041010D01*
X0113252Y0041153D01*
X0113316Y0041293D01*
X0113383Y0041433D01*
X0113454Y0041570D01*
X0113528Y0041705D01*
X0113606Y0041839D01*
X0113687Y0041970D01*
X0113772Y0042099D01*
X0113860Y0042227D01*
X0113951Y0042351D01*
X0114045Y0042474D01*
X0114143Y0042594D01*
X0114243Y0042711D01*
X0114347Y0042826D01*
X0114453Y0042938D01*
X0114562Y0043047D01*
X0114674Y0043153D01*
X0114789Y0043257D01*
X0114906Y0043357D01*
X0115026Y0043455D01*
X0115149Y0043549D01*
X0115273Y0043640D01*
X0115401Y0043728D01*
X0115530Y0043813D01*
X0115661Y0043894D01*
X0115795Y0043972D01*
X0115930Y0044046D01*
X0116067Y0044117D01*
X0116207Y0044184D01*
X0116347Y0044248D01*
X0116490Y0044308D01*
X0116633Y0044364D01*
X0116779Y0044417D01*
X0116925Y0044466D01*
X0117073Y0044511D01*
X0117222Y0044552D01*
X0117372Y0044590D01*
X0117523Y0044623D01*
X0117674Y0044653D01*
X0117827Y0044679D01*
X0117980Y0044700D01*
X0118133Y0044718D01*
X0118287Y0044732D01*
X0118441Y0044742D01*
X0118596Y0044748D01*
X0118750Y0044750D01*
X0118904Y0044748D01*
X0119059Y0044742D01*
X0119213Y0044732D01*
X0119367Y0044718D01*
X0119520Y0044700D01*
X0119673Y0044679D01*
X0119826Y0044653D01*
X0119977Y0044623D01*
X0120128Y0044590D01*
X0120278Y0044552D01*
X0120427Y0044511D01*
X0120575Y0044466D01*
X0120721Y0044417D01*
X0120867Y0044364D01*
X0121010Y0044308D01*
X0121153Y0044248D01*
X0121293Y0044184D01*
X0121433Y0044117D01*
X0121570Y0044046D01*
X0121705Y0043972D01*
X0121839Y0043894D01*
X0121970Y0043813D01*
X0122099Y0043728D01*
X0122227Y0043640D01*
X0122351Y0043549D01*
X0122474Y0043455D01*
X0122594Y0043357D01*
X0122711Y0043257D01*
X0122826Y0043153D01*
X0122938Y0043047D01*
X0123047Y0042938D01*
X0123153Y0042826D01*
X0123257Y0042711D01*
X0123357Y0042594D01*
X0123455Y0042474D01*
X0123549Y0042351D01*
X0123640Y0042227D01*
X0123728Y0042099D01*
X0123813Y0041970D01*
X0123894Y0041839D01*
X0123972Y0041705D01*
X0124046Y0041570D01*
X0124117Y0041433D01*
X0124184Y0041293D01*
X0124248Y0041153D01*
X0124308Y0041010D01*
X0124364Y0040867D01*
X0124417Y0040721D01*
X0124466Y0040575D01*
X0124511Y0040427D01*
X0124552Y0040278D01*
X0124590Y0040128D01*
X0124623Y0039977D01*
X0124653Y0039826D01*
X0124679Y0039673D01*
X0124700Y0039520D01*
X0124718Y0039367D01*
X0124732Y0039213D01*
X0124742Y0039059D01*
X0124748Y0038904D01*
X0124750Y0038750D01*
X0124748Y0038596D01*
X0124742Y0038441D01*
X0124732Y0038287D01*
X0124718Y0038133D01*
X0124700Y0037980D01*
X0124679Y0037827D01*
X0124653Y0037674D01*
X0124623Y0037523D01*
X0124590Y0037372D01*
X0124552Y0037222D01*
X0124511Y0037073D01*
X0124466Y0036925D01*
X0124417Y0036779D01*
X0124364Y0036633D01*
X0124308Y0036490D01*
X0124248Y0036347D01*
X0124184Y0036207D01*
X0124117Y0036067D01*
X0124046Y0035930D01*
X0123972Y0035795D01*
X0123894Y0035661D01*
X0123813Y0035530D01*
X0123728Y0035401D01*
X0123640Y0035273D01*
X0123549Y0035149D01*
X0123455Y0035026D01*
X0123357Y0034906D01*
X0123257Y0034789D01*
X0123153Y0034674D01*
X0123047Y0034562D01*
X0122938Y0034453D01*
X0122826Y0034347D01*
X0122711Y0034243D01*
X0122594Y0034143D01*
X0122474Y0034045D01*
X0122351Y0033951D01*
X0122227Y0033860D01*
X0122099Y0033772D01*
X0121970Y0033687D01*
X0121839Y0033606D01*
X0121705Y0033528D01*
X0121570Y0033454D01*
X0121433Y0033383D01*
X0121293Y0033316D01*
X0121153Y0033252D01*
X0121010Y0033192D01*
X0120867Y0033136D01*
X0120721Y0033083D01*
X0120575Y0033034D01*
X0120427Y0032989D01*
X0120278Y0032948D01*
X0120128Y0032910D01*
X0119977Y0032877D01*
X0119826Y0032847D01*
X0119673Y0032821D01*
X0119520Y0032800D01*
X0119367Y0032782D01*
X0119213Y0032768D01*
X0119059Y0032758D01*
X0118904Y0032752D01*
X0118750Y0032750D01*
X0118596Y0032752D01*
X0118441Y0032758D01*
X0118287Y0032768D01*
X0118133Y0032782D01*
X0117980Y0032800D01*
X0117827Y0032821D01*
X0117674Y0032847D01*
X0117523Y0032877D01*
X0117372Y0032910D01*
X0117222Y0032948D01*
X0117073Y0032989D01*
X0116925Y0033034D01*
X0116779Y0033083D01*
X0116633Y0033136D01*
X0116490Y0033192D01*
X0116347Y0033252D01*
X0116207Y0033316D01*
X0116067Y0033383D01*
X0115930Y0033454D01*
X0115795Y0033528D01*
X0115661Y0033606D01*
X0115530Y0033687D01*
X0115401Y0033772D01*
X0115273Y0033860D01*
X0115149Y0033951D01*
X0115026Y0034045D01*
X0114906Y0034143D01*
X0114789Y0034243D01*
X0114674Y0034347D01*
X0114562Y0034453D01*
X0114453Y0034562D01*
X0114347Y0034674D01*
X0114243Y0034789D01*
X0114143Y0034906D01*
X0114045Y0035026D01*
X0113951Y0035149D01*
X0113860Y0035273D01*
X0113772Y0035401D01*
X0113687Y0035530D01*
X0113606Y0035661D01*
X0113528Y0035795D01*
X0113454Y0035930D01*
X0113383Y0036067D01*
X0113316Y0036207D01*
X0113252Y0036347D01*
X0113192Y0036490D01*
X0113136Y0036633D01*
X0113083Y0036779D01*
X0113034Y0036925D01*
X0112989Y0037073D01*
X0112948Y0037222D01*
X0112910Y0037372D01*
X0112877Y0037523D01*
X0112847Y0037674D01*
X0112821Y0037827D01*
X0112800Y0037980D01*
X0112782Y0038133D01*
X0112768Y0038287D01*
X0112758Y0038441D01*
X0112752Y0038596D01*
X0112750Y0038750D01*
X0032750Y0038750D02*
X0032752Y0038904D01*
X0032758Y0039059D01*
X0032768Y0039213D01*
X0032782Y0039367D01*
X0032800Y0039520D01*
X0032821Y0039673D01*
X0032847Y0039826D01*
X0032877Y0039977D01*
X0032910Y0040128D01*
X0032948Y0040278D01*
X0032989Y0040427D01*
X0033034Y0040575D01*
X0033083Y0040721D01*
X0033136Y0040867D01*
X0033192Y0041010D01*
X0033252Y0041153D01*
X0033316Y0041293D01*
X0033383Y0041433D01*
X0033454Y0041570D01*
X0033528Y0041705D01*
X0033606Y0041839D01*
X0033687Y0041970D01*
X0033772Y0042099D01*
X0033860Y0042227D01*
X0033951Y0042351D01*
X0034045Y0042474D01*
X0034143Y0042594D01*
X0034243Y0042711D01*
X0034347Y0042826D01*
X0034453Y0042938D01*
X0034562Y0043047D01*
X0034674Y0043153D01*
X0034789Y0043257D01*
X0034906Y0043357D01*
X0035026Y0043455D01*
X0035149Y0043549D01*
X0035273Y0043640D01*
X0035401Y0043728D01*
X0035530Y0043813D01*
X0035661Y0043894D01*
X0035795Y0043972D01*
X0035930Y0044046D01*
X0036067Y0044117D01*
X0036207Y0044184D01*
X0036347Y0044248D01*
X0036490Y0044308D01*
X0036633Y0044364D01*
X0036779Y0044417D01*
X0036925Y0044466D01*
X0037073Y0044511D01*
X0037222Y0044552D01*
X0037372Y0044590D01*
X0037523Y0044623D01*
X0037674Y0044653D01*
X0037827Y0044679D01*
X0037980Y0044700D01*
X0038133Y0044718D01*
X0038287Y0044732D01*
X0038441Y0044742D01*
X0038596Y0044748D01*
X0038750Y0044750D01*
X0038904Y0044748D01*
X0039059Y0044742D01*
X0039213Y0044732D01*
X0039367Y0044718D01*
X0039520Y0044700D01*
X0039673Y0044679D01*
X0039826Y0044653D01*
X0039977Y0044623D01*
X0040128Y0044590D01*
X0040278Y0044552D01*
X0040427Y0044511D01*
X0040575Y0044466D01*
X0040721Y0044417D01*
X0040867Y0044364D01*
X0041010Y0044308D01*
X0041153Y0044248D01*
X0041293Y0044184D01*
X0041433Y0044117D01*
X0041570Y0044046D01*
X0041705Y0043972D01*
X0041839Y0043894D01*
X0041970Y0043813D01*
X0042099Y0043728D01*
X0042227Y0043640D01*
X0042351Y0043549D01*
X0042474Y0043455D01*
X0042594Y0043357D01*
X0042711Y0043257D01*
X0042826Y0043153D01*
X0042938Y0043047D01*
X0043047Y0042938D01*
X0043153Y0042826D01*
X0043257Y0042711D01*
X0043357Y0042594D01*
X0043455Y0042474D01*
X0043549Y0042351D01*
X0043640Y0042227D01*
X0043728Y0042099D01*
X0043813Y0041970D01*
X0043894Y0041839D01*
X0043972Y0041705D01*
X0044046Y0041570D01*
X0044117Y0041433D01*
X0044184Y0041293D01*
X0044248Y0041153D01*
X0044308Y0041010D01*
X0044364Y0040867D01*
X0044417Y0040721D01*
X0044466Y0040575D01*
X0044511Y0040427D01*
X0044552Y0040278D01*
X0044590Y0040128D01*
X0044623Y0039977D01*
X0044653Y0039826D01*
X0044679Y0039673D01*
X0044700Y0039520D01*
X0044718Y0039367D01*
X0044732Y0039213D01*
X0044742Y0039059D01*
X0044748Y0038904D01*
X0044750Y0038750D01*
X0044748Y0038596D01*
X0044742Y0038441D01*
X0044732Y0038287D01*
X0044718Y0038133D01*
X0044700Y0037980D01*
X0044679Y0037827D01*
X0044653Y0037674D01*
X0044623Y0037523D01*
X0044590Y0037372D01*
X0044552Y0037222D01*
X0044511Y0037073D01*
X0044466Y0036925D01*
X0044417Y0036779D01*
X0044364Y0036633D01*
X0044308Y0036490D01*
X0044248Y0036347D01*
X0044184Y0036207D01*
X0044117Y0036067D01*
X0044046Y0035930D01*
X0043972Y0035795D01*
X0043894Y0035661D01*
X0043813Y0035530D01*
X0043728Y0035401D01*
X0043640Y0035273D01*
X0043549Y0035149D01*
X0043455Y0035026D01*
X0043357Y0034906D01*
X0043257Y0034789D01*
X0043153Y0034674D01*
X0043047Y0034562D01*
X0042938Y0034453D01*
X0042826Y0034347D01*
X0042711Y0034243D01*
X0042594Y0034143D01*
X0042474Y0034045D01*
X0042351Y0033951D01*
X0042227Y0033860D01*
X0042099Y0033772D01*
X0041970Y0033687D01*
X0041839Y0033606D01*
X0041705Y0033528D01*
X0041570Y0033454D01*
X0041433Y0033383D01*
X0041293Y0033316D01*
X0041153Y0033252D01*
X0041010Y0033192D01*
X0040867Y0033136D01*
X0040721Y0033083D01*
X0040575Y0033034D01*
X0040427Y0032989D01*
X0040278Y0032948D01*
X0040128Y0032910D01*
X0039977Y0032877D01*
X0039826Y0032847D01*
X0039673Y0032821D01*
X0039520Y0032800D01*
X0039367Y0032782D01*
X0039213Y0032768D01*
X0039059Y0032758D01*
X0038904Y0032752D01*
X0038750Y0032750D01*
X0038596Y0032752D01*
X0038441Y0032758D01*
X0038287Y0032768D01*
X0038133Y0032782D01*
X0037980Y0032800D01*
X0037827Y0032821D01*
X0037674Y0032847D01*
X0037523Y0032877D01*
X0037372Y0032910D01*
X0037222Y0032948D01*
X0037073Y0032989D01*
X0036925Y0033034D01*
X0036779Y0033083D01*
X0036633Y0033136D01*
X0036490Y0033192D01*
X0036347Y0033252D01*
X0036207Y0033316D01*
X0036067Y0033383D01*
X0035930Y0033454D01*
X0035795Y0033528D01*
X0035661Y0033606D01*
X0035530Y0033687D01*
X0035401Y0033772D01*
X0035273Y0033860D01*
X0035149Y0033951D01*
X0035026Y0034045D01*
X0034906Y0034143D01*
X0034789Y0034243D01*
X0034674Y0034347D01*
X0034562Y0034453D01*
X0034453Y0034562D01*
X0034347Y0034674D01*
X0034243Y0034789D01*
X0034143Y0034906D01*
X0034045Y0035026D01*
X0033951Y0035149D01*
X0033860Y0035273D01*
X0033772Y0035401D01*
X0033687Y0035530D01*
X0033606Y0035661D01*
X0033528Y0035795D01*
X0033454Y0035930D01*
X0033383Y0036067D01*
X0033316Y0036207D01*
X0033252Y0036347D01*
X0033192Y0036490D01*
X0033136Y0036633D01*
X0033083Y0036779D01*
X0033034Y0036925D01*
X0032989Y0037073D01*
X0032948Y0037222D01*
X0032910Y0037372D01*
X0032877Y0037523D01*
X0032847Y0037674D01*
X0032821Y0037827D01*
X0032800Y0037980D01*
X0032782Y0038133D01*
X0032768Y0038287D01*
X0032758Y0038441D01*
X0032752Y0038596D01*
X0032750Y0038750D01*
M02*
