%
M48
M72
T01C0.0120
T02C0.0400
T03C0.1200
%
T01
X4593Y3306
X4593Y4006
X3593Y3506
X3393Y4606
X2093Y5306
X3143Y6106
X3343Y6606
X4093Y6356
X4493Y6806
X2333Y6506
X1343Y7206
X1793Y9256
X2543Y9356
X6793Y6106
X7493Y6106
X7993Y6056
X8093Y4656
X8093Y4266
X6843Y4906
X6593Y4006
X12293Y5306
X13593Y4606
X14793Y4006
X13793Y3506
X14793Y3306
X16793Y4006
X17043Y4906
X18293Y4656
X18293Y4266
X18193Y6056
X17693Y6106
X16993Y6106
X14693Y6806
X14293Y6356
X13543Y6606
X13343Y6106
X12533Y6506
X11543Y7206
X10343Y7706
X8743Y7506
X8643Y8256
X11993Y9256
X12743Y9356
X18843Y8256
X18943Y7506
X20543Y7706
X21743Y7206
X22733Y6506
X23543Y6106
X23743Y6606
X24493Y6356
X24893Y6806
X27193Y6106
X27893Y6106
X28393Y6056
X28493Y4656
X28493Y4266
X27243Y4906
X26993Y4006
X24993Y4006
X23993Y3506
X24993Y3306
X23793Y4606
X22493Y5306
X29143Y7506
X29043Y8256
X30743Y7706
X22943Y9356
X22193Y9256
X24993Y13506
X23993Y13706
X24993Y14206
X23793Y14806
X22493Y15506
X23543Y16306
X23743Y16806
X24493Y16556
X24893Y17006
X22733Y16706
X21743Y17406
X20543Y17906
X18943Y17706
X18843Y18456
X22193Y19456
X22943Y19556
X27193Y16306
X27893Y16306
X28393Y16256
X27243Y15106
X26993Y14206
X28493Y14466
X28493Y14856
X29143Y17706
X29043Y18456
X30743Y17906
X24993Y23706
X24993Y24406
X23993Y23906
X23793Y25006
X22493Y25706
X22733Y26906
X23543Y26506
X23743Y27006
X24493Y26756
X24893Y27206
X27193Y26506
X27893Y26506
X28393Y26456
X27243Y25306
X28493Y25056
X28493Y24666
X26993Y24406
X21743Y27606
X20543Y28106
X18943Y27906
X18843Y28656
X22193Y29656
X22943Y29756
X17693Y26506
X18193Y26456
X16993Y26506
X17043Y25306
X18293Y25056
X18293Y24666
X16793Y24406
X14793Y24406
X14793Y23706
X13793Y23906
X13593Y25006
X12293Y25706
X12533Y26906
X13343Y26506
X13543Y27006
X14293Y26756
X14693Y27206
X11543Y27606
X10343Y28106
X8743Y27906
X8643Y28656
X7493Y26506
X7993Y26456
X6793Y26506
X6843Y25306
X8093Y25056
X8093Y24666
X6593Y24406
X4593Y24406
X4593Y23706
X3593Y23906
X3393Y25006
X2093Y25706
X2333Y26906
X3143Y26506
X3343Y27006
X4093Y26756
X4493Y27206
X1343Y27606
X1793Y29656
X2543Y29756
X11993Y29656
X12743Y29756
X29043Y28656
X29143Y27906
X30743Y28106
X12743Y19556
X11993Y19456
X10343Y17906
X11543Y17406
X12533Y16706
X13343Y16306
X13543Y16806
X14293Y16556
X14693Y17006
X16993Y16306
X17693Y16306
X18193Y16256
X17043Y15106
X16793Y14206
X18293Y14466
X18293Y14856
X14793Y14206
X13793Y13706
X14793Y13506
X13593Y14806
X12293Y15506
X8743Y17706
X8643Y18456
X7993Y16256
X7493Y16306
X6793Y16306
X6843Y15106
X6593Y14206
X8093Y14466
X8093Y14856
X4593Y14206
X4593Y13506
X3593Y13706
X3393Y14806
X2093Y15506
X3143Y16306
X3343Y16806
X4093Y16556
X4493Y17006
X2333Y16706
X1343Y17406
X1793Y19456
X2543Y19556
T02
X3593Y21406
X4593Y21406
X5593Y21406
X6593Y21406
X7593Y21406
X13793Y21406
X14793Y21406
X15793Y21406
X16793Y21406
X17793Y21406
X23993Y21406
X24993Y21406
X25993Y21406
X26993Y21406
X27993Y21406
X27993Y11206
X26993Y11206
X25993Y11206
X24993Y11206
X23993Y11206
X17793Y11206
X16793Y11206
X15793Y11206
X14793Y11206
X13793Y11206
X7593Y11206
X6593Y11206
X5593Y11206
X4593Y11206
X3593Y11206
X3593Y1006
X4593Y1006
X5593Y1006
X6593Y1006
X7593Y1006
X13793Y1006
X14793Y1006
X15793Y1006
X16793Y1006
X17793Y1006
X23993Y1006
X24993Y1006
X25993Y1006
X26993Y1006
X27993Y1006
T03
X1593Y1506
X9593Y1506
X11793Y1506
X19793Y1506
X21993Y1506
X29993Y1506
X29993Y11706
X21993Y11706
X19793Y11706
X11793Y11706
X9593Y11706
X1593Y11706
X1593Y21906
X9593Y21906
X11793Y21906
X19793Y21906
X21993Y21906
X29993Y21906
M30
