G75*
%MOIN*%
%OFA0B0*%
%FSLAX25Y25*%
%IPPOS*%
%LPD*%
%AMOC8*
5,1,8,0,0,1.08239X$1,22.5*
%
%ADD10R,0.03937X0.04331*%
%ADD11R,0.00984X0.03445*%
%ADD12R,0.04724X0.02362*%
%ADD13R,0.04331X0.03937*%
%ADD14R,0.04134X0.05807*%
%ADD15C,0.01181*%
%ADD16R,0.07874X0.04724*%
%ADD17R,0.05315X0.02362*%
D10*
X0063750Y0060404D03*
X0063750Y0067096D03*
X0063750Y0075404D03*
X0063750Y0082096D03*
X0058750Y0100404D03*
X0053750Y0100404D03*
X0053750Y0107096D03*
X0058750Y0107096D03*
X0098750Y0107096D03*
X0103750Y0107096D03*
X0103750Y0100404D03*
X0098750Y0100404D03*
X0094000Y0066346D03*
X0094000Y0059654D03*
X0155750Y0100404D03*
X0160750Y0100404D03*
X0160750Y0107096D03*
X0155750Y0107096D03*
X0165750Y0082096D03*
X0165750Y0075404D03*
X0165750Y0067096D03*
X0165750Y0060404D03*
X0196000Y0059654D03*
X0196000Y0066346D03*
X0200750Y0100404D03*
X0205750Y0100404D03*
X0205750Y0107096D03*
X0200750Y0107096D03*
X0257750Y0107096D03*
X0262750Y0107096D03*
X0262750Y0100404D03*
X0257750Y0100404D03*
X0267750Y0082096D03*
X0267750Y0075404D03*
X0267750Y0067096D03*
X0267750Y0060404D03*
X0298000Y0059654D03*
X0298000Y0066346D03*
X0302750Y0100404D03*
X0307750Y0100404D03*
X0307750Y0107096D03*
X0302750Y0107096D03*
X0298000Y0161654D03*
X0298000Y0168346D03*
X0267750Y0169096D03*
X0267750Y0162404D03*
X0267750Y0177404D03*
X0267750Y0184096D03*
X0262750Y0202404D03*
X0257750Y0202404D03*
X0257750Y0209096D03*
X0262750Y0209096D03*
X0302750Y0209096D03*
X0307750Y0209096D03*
X0307750Y0202404D03*
X0302750Y0202404D03*
X0298000Y0263654D03*
X0298000Y0270346D03*
X0267750Y0271096D03*
X0267750Y0264404D03*
X0267750Y0279404D03*
X0267750Y0286096D03*
X0262750Y0304404D03*
X0257750Y0304404D03*
X0257750Y0311096D03*
X0262750Y0311096D03*
X0302750Y0311096D03*
X0307750Y0311096D03*
X0307750Y0304404D03*
X0302750Y0304404D03*
X0205750Y0304404D03*
X0200750Y0304404D03*
X0200750Y0311096D03*
X0205750Y0311096D03*
X0165750Y0286096D03*
X0165750Y0279404D03*
X0165750Y0271096D03*
X0165750Y0264404D03*
X0196000Y0263654D03*
X0196000Y0270346D03*
X0160750Y0304404D03*
X0155750Y0304404D03*
X0155750Y0311096D03*
X0160750Y0311096D03*
X0103750Y0311096D03*
X0098750Y0311096D03*
X0098750Y0304404D03*
X0103750Y0304404D03*
X0094000Y0270346D03*
X0094000Y0263654D03*
X0063750Y0264404D03*
X0063750Y0271096D03*
X0063750Y0279404D03*
X0063750Y0286096D03*
X0058750Y0304404D03*
X0053750Y0304404D03*
X0053750Y0311096D03*
X0058750Y0311096D03*
X0058750Y0209096D03*
X0053750Y0209096D03*
X0053750Y0202404D03*
X0058750Y0202404D03*
X0063750Y0184096D03*
X0063750Y0177404D03*
X0063750Y0169096D03*
X0063750Y0162404D03*
X0094000Y0161654D03*
X0094000Y0168346D03*
X0098750Y0202404D03*
X0103750Y0202404D03*
X0103750Y0209096D03*
X0098750Y0209096D03*
X0155750Y0209096D03*
X0160750Y0209096D03*
X0160750Y0202404D03*
X0155750Y0202404D03*
X0165750Y0184096D03*
X0165750Y0177404D03*
X0165750Y0169096D03*
X0165750Y0162404D03*
X0196000Y0161654D03*
X0196000Y0168346D03*
X0200750Y0202404D03*
X0205750Y0202404D03*
X0205750Y0209096D03*
X0200750Y0209096D03*
D11*
X0243813Y0213870D03*
X0245781Y0213870D03*
X0247750Y0213870D03*
X0249719Y0213870D03*
X0251687Y0213870D03*
X0251687Y0197630D03*
X0249719Y0197630D03*
X0247750Y0197630D03*
X0245781Y0197630D03*
X0243813Y0197630D03*
X0149687Y0197630D03*
X0147719Y0197630D03*
X0145750Y0197630D03*
X0143781Y0197630D03*
X0141813Y0197630D03*
X0141813Y0213870D03*
X0143781Y0213870D03*
X0145750Y0213870D03*
X0147719Y0213870D03*
X0149687Y0213870D03*
X0149687Y0299630D03*
X0147719Y0299630D03*
X0145750Y0299630D03*
X0143781Y0299630D03*
X0141813Y0299630D03*
X0141813Y0315870D03*
X0143781Y0315870D03*
X0145750Y0315870D03*
X0147719Y0315870D03*
X0149687Y0315870D03*
X0243813Y0315870D03*
X0245781Y0315870D03*
X0247750Y0315870D03*
X0249719Y0315870D03*
X0251687Y0315870D03*
X0251687Y0299630D03*
X0249719Y0299630D03*
X0247750Y0299630D03*
X0245781Y0299630D03*
X0243813Y0299630D03*
X0047687Y0299630D03*
X0045719Y0299630D03*
X0043750Y0299630D03*
X0041781Y0299630D03*
X0039813Y0299630D03*
X0039813Y0315870D03*
X0041781Y0315870D03*
X0043750Y0315870D03*
X0045719Y0315870D03*
X0047687Y0315870D03*
X0047687Y0213870D03*
X0045719Y0213870D03*
X0043750Y0213870D03*
X0041781Y0213870D03*
X0039813Y0213870D03*
X0039813Y0197630D03*
X0041781Y0197630D03*
X0043750Y0197630D03*
X0045719Y0197630D03*
X0047687Y0197630D03*
X0047687Y0111870D03*
X0045719Y0111870D03*
X0043750Y0111870D03*
X0041781Y0111870D03*
X0039813Y0111870D03*
X0039813Y0095630D03*
X0041781Y0095630D03*
X0043750Y0095630D03*
X0045719Y0095630D03*
X0047687Y0095630D03*
X0141813Y0095630D03*
X0143781Y0095630D03*
X0145750Y0095630D03*
X0147719Y0095630D03*
X0149687Y0095630D03*
X0149687Y0111870D03*
X0147719Y0111870D03*
X0145750Y0111870D03*
X0143781Y0111870D03*
X0141813Y0111870D03*
X0243813Y0111870D03*
X0245781Y0111870D03*
X0247750Y0111870D03*
X0249719Y0111870D03*
X0251687Y0111870D03*
X0251687Y0095630D03*
X0249719Y0095630D03*
X0247750Y0095630D03*
X0245781Y0095630D03*
X0243813Y0095630D03*
D12*
X0271726Y0096250D03*
X0271726Y0101250D03*
X0271726Y0106250D03*
X0271726Y0111250D03*
X0293774Y0111250D03*
X0293774Y0106250D03*
X0293774Y0101250D03*
X0293774Y0096250D03*
X0191774Y0096250D03*
X0191774Y0101250D03*
X0191774Y0106250D03*
X0191774Y0111250D03*
X0169726Y0111250D03*
X0169726Y0106250D03*
X0169726Y0101250D03*
X0169726Y0096250D03*
X0089774Y0096250D03*
X0089774Y0101250D03*
X0089774Y0106250D03*
X0089774Y0111250D03*
X0067726Y0111250D03*
X0067726Y0106250D03*
X0067726Y0101250D03*
X0067726Y0096250D03*
X0067726Y0198250D03*
X0067726Y0203250D03*
X0067726Y0208250D03*
X0067726Y0213250D03*
X0089774Y0213250D03*
X0089774Y0208250D03*
X0089774Y0203250D03*
X0089774Y0198250D03*
X0169726Y0198250D03*
X0169726Y0203250D03*
X0169726Y0208250D03*
X0169726Y0213250D03*
X0191774Y0213250D03*
X0191774Y0208250D03*
X0191774Y0203250D03*
X0191774Y0198250D03*
X0271726Y0198250D03*
X0271726Y0203250D03*
X0271726Y0208250D03*
X0271726Y0213250D03*
X0293774Y0213250D03*
X0293774Y0208250D03*
X0293774Y0203250D03*
X0293774Y0198250D03*
X0293774Y0300250D03*
X0293774Y0305250D03*
X0293774Y0310250D03*
X0293774Y0315250D03*
X0271726Y0315250D03*
X0271726Y0310250D03*
X0271726Y0305250D03*
X0271726Y0300250D03*
X0191774Y0300250D03*
X0191774Y0305250D03*
X0191774Y0310250D03*
X0191774Y0315250D03*
X0169726Y0315250D03*
X0169726Y0310250D03*
X0169726Y0305250D03*
X0169726Y0300250D03*
X0089774Y0300250D03*
X0089774Y0305250D03*
X0089774Y0310250D03*
X0089774Y0315250D03*
X0067726Y0315250D03*
X0067726Y0310250D03*
X0067726Y0305250D03*
X0067726Y0300250D03*
D13*
X0115404Y0302750D03*
X0122096Y0302750D03*
X0217404Y0302750D03*
X0224096Y0302750D03*
X0319404Y0302750D03*
X0326096Y0302750D03*
X0326096Y0200750D03*
X0319404Y0200750D03*
X0224096Y0200750D03*
X0217404Y0200750D03*
X0122096Y0200750D03*
X0115404Y0200750D03*
X0115404Y0098750D03*
X0122096Y0098750D03*
X0217404Y0098750D03*
X0224096Y0098750D03*
X0319404Y0098750D03*
X0326096Y0098750D03*
D14*
X0287179Y0085098D03*
X0278321Y0085098D03*
X0278321Y0072402D03*
X0287179Y0072402D03*
X0185179Y0072402D03*
X0176321Y0072402D03*
X0176321Y0085098D03*
X0185179Y0085098D03*
X0185179Y0174402D03*
X0176321Y0174402D03*
X0176321Y0187098D03*
X0185179Y0187098D03*
X0278321Y0187098D03*
X0287179Y0187098D03*
X0287179Y0174402D03*
X0278321Y0174402D03*
X0278321Y0276402D03*
X0287179Y0276402D03*
X0287179Y0289098D03*
X0278321Y0289098D03*
X0185179Y0289098D03*
X0176321Y0289098D03*
X0176321Y0276402D03*
X0185179Y0276402D03*
X0083179Y0276402D03*
X0074321Y0276402D03*
X0074321Y0289098D03*
X0083179Y0289098D03*
X0083179Y0187098D03*
X0074321Y0187098D03*
X0074321Y0174402D03*
X0083179Y0174402D03*
X0083179Y0085098D03*
X0074321Y0085098D03*
X0074321Y0072402D03*
X0083179Y0072402D03*
D15*
X0116675Y0102372D02*
X0116675Y0105128D01*
X0116675Y0102372D02*
X0113919Y0102372D01*
X0113919Y0105128D01*
X0116675Y0105128D01*
X0116675Y0103494D02*
X0113919Y0103494D01*
X0113919Y0104616D02*
X0116675Y0104616D01*
X0123581Y0105128D02*
X0123581Y0102372D01*
X0120825Y0102372D01*
X0120825Y0105128D01*
X0123581Y0105128D01*
X0123581Y0103494D02*
X0120825Y0103494D01*
X0120825Y0104616D02*
X0123581Y0104616D01*
X0218675Y0105128D02*
X0218675Y0102372D01*
X0215919Y0102372D01*
X0215919Y0105128D01*
X0218675Y0105128D01*
X0218675Y0103494D02*
X0215919Y0103494D01*
X0215919Y0104616D02*
X0218675Y0104616D01*
X0225581Y0105128D02*
X0225581Y0102372D01*
X0222825Y0102372D01*
X0222825Y0105128D01*
X0225581Y0105128D01*
X0225581Y0103494D02*
X0222825Y0103494D01*
X0222825Y0104616D02*
X0225581Y0104616D01*
X0320675Y0105128D02*
X0320675Y0102372D01*
X0317919Y0102372D01*
X0317919Y0105128D01*
X0320675Y0105128D01*
X0320675Y0103494D02*
X0317919Y0103494D01*
X0317919Y0104616D02*
X0320675Y0104616D01*
X0327581Y0105128D02*
X0327581Y0102372D01*
X0324825Y0102372D01*
X0324825Y0105128D01*
X0327581Y0105128D01*
X0327581Y0103494D02*
X0324825Y0103494D01*
X0324825Y0104616D02*
X0327581Y0104616D01*
X0327581Y0204372D02*
X0327581Y0207128D01*
X0327581Y0204372D02*
X0324825Y0204372D01*
X0324825Y0207128D01*
X0327581Y0207128D01*
X0327581Y0205494D02*
X0324825Y0205494D01*
X0324825Y0206616D02*
X0327581Y0206616D01*
X0320675Y0207128D02*
X0320675Y0204372D01*
X0317919Y0204372D01*
X0317919Y0207128D01*
X0320675Y0207128D01*
X0320675Y0205494D02*
X0317919Y0205494D01*
X0317919Y0206616D02*
X0320675Y0206616D01*
X0225581Y0207128D02*
X0225581Y0204372D01*
X0222825Y0204372D01*
X0222825Y0207128D01*
X0225581Y0207128D01*
X0225581Y0205494D02*
X0222825Y0205494D01*
X0222825Y0206616D02*
X0225581Y0206616D01*
X0218675Y0207128D02*
X0218675Y0204372D01*
X0215919Y0204372D01*
X0215919Y0207128D01*
X0218675Y0207128D01*
X0218675Y0205494D02*
X0215919Y0205494D01*
X0215919Y0206616D02*
X0218675Y0206616D01*
X0123581Y0207128D02*
X0123581Y0204372D01*
X0120825Y0204372D01*
X0120825Y0207128D01*
X0123581Y0207128D01*
X0123581Y0205494D02*
X0120825Y0205494D01*
X0120825Y0206616D02*
X0123581Y0206616D01*
X0116675Y0207128D02*
X0116675Y0204372D01*
X0113919Y0204372D01*
X0113919Y0207128D01*
X0116675Y0207128D01*
X0116675Y0205494D02*
X0113919Y0205494D01*
X0113919Y0206616D02*
X0116675Y0206616D01*
X0116675Y0306372D02*
X0116675Y0309128D01*
X0116675Y0306372D02*
X0113919Y0306372D01*
X0113919Y0309128D01*
X0116675Y0309128D01*
X0116675Y0307494D02*
X0113919Y0307494D01*
X0113919Y0308616D02*
X0116675Y0308616D01*
X0123581Y0309128D02*
X0123581Y0306372D01*
X0120825Y0306372D01*
X0120825Y0309128D01*
X0123581Y0309128D01*
X0123581Y0307494D02*
X0120825Y0307494D01*
X0120825Y0308616D02*
X0123581Y0308616D01*
X0218675Y0309128D02*
X0218675Y0306372D01*
X0215919Y0306372D01*
X0215919Y0309128D01*
X0218675Y0309128D01*
X0218675Y0307494D02*
X0215919Y0307494D01*
X0215919Y0308616D02*
X0218675Y0308616D01*
X0225581Y0309128D02*
X0225581Y0306372D01*
X0222825Y0306372D01*
X0222825Y0309128D01*
X0225581Y0309128D01*
X0225581Y0307494D02*
X0222825Y0307494D01*
X0222825Y0308616D02*
X0225581Y0308616D01*
X0320675Y0309128D02*
X0320675Y0306372D01*
X0317919Y0306372D01*
X0317919Y0309128D01*
X0320675Y0309128D01*
X0320675Y0307494D02*
X0317919Y0307494D01*
X0317919Y0308616D02*
X0320675Y0308616D01*
X0327581Y0309128D02*
X0327581Y0306372D01*
X0324825Y0306372D01*
X0324825Y0309128D01*
X0327581Y0309128D01*
X0327581Y0307494D02*
X0324825Y0307494D01*
X0324825Y0308616D02*
X0327581Y0308616D01*
D16*
X0327219Y0293774D03*
X0327219Y0271726D03*
X0327219Y0191774D03*
X0327219Y0169726D03*
X0327219Y0089774D03*
X0327219Y0067726D03*
X0238281Y0067726D03*
X0225219Y0067726D03*
X0225219Y0089774D03*
X0238281Y0089774D03*
X0238281Y0169726D03*
X0225219Y0169726D03*
X0225219Y0191774D03*
X0238281Y0191774D03*
X0238281Y0271726D03*
X0225219Y0271726D03*
X0225219Y0293774D03*
X0238281Y0293774D03*
X0136281Y0293774D03*
X0123219Y0293774D03*
X0123219Y0271726D03*
X0136281Y0271726D03*
X0136281Y0191774D03*
X0123219Y0191774D03*
X0123219Y0169726D03*
X0136281Y0169726D03*
X0136281Y0089774D03*
X0123219Y0089774D03*
X0123219Y0067726D03*
X0136281Y0067726D03*
X0034281Y0067726D03*
X0034281Y0089774D03*
X0034281Y0169726D03*
X0034281Y0191774D03*
X0034281Y0271726D03*
X0034281Y0293774D03*
D17*
X0048750Y0288656D03*
X0048750Y0284719D03*
X0048750Y0280781D03*
X0048750Y0276844D03*
X0108750Y0276844D03*
X0108750Y0280781D03*
X0108750Y0284719D03*
X0108750Y0288656D03*
X0150750Y0288656D03*
X0150750Y0284719D03*
X0150750Y0280781D03*
X0150750Y0276844D03*
X0210750Y0276844D03*
X0210750Y0280781D03*
X0210750Y0284719D03*
X0210750Y0288656D03*
X0252750Y0288656D03*
X0252750Y0284719D03*
X0252750Y0280781D03*
X0252750Y0276844D03*
X0312750Y0276844D03*
X0312750Y0280781D03*
X0312750Y0284719D03*
X0312750Y0288656D03*
X0312750Y0186656D03*
X0312750Y0182719D03*
X0312750Y0178781D03*
X0312750Y0174844D03*
X0252750Y0174844D03*
X0252750Y0178781D03*
X0252750Y0182719D03*
X0252750Y0186656D03*
X0210750Y0186656D03*
X0210750Y0182719D03*
X0210750Y0178781D03*
X0210750Y0174844D03*
X0150750Y0174844D03*
X0150750Y0178781D03*
X0150750Y0182719D03*
X0150750Y0186656D03*
X0108750Y0186656D03*
X0108750Y0182719D03*
X0108750Y0178781D03*
X0108750Y0174844D03*
X0048750Y0174844D03*
X0048750Y0178781D03*
X0048750Y0182719D03*
X0048750Y0186656D03*
X0048750Y0084656D03*
X0048750Y0080719D03*
X0048750Y0076781D03*
X0048750Y0072844D03*
X0108750Y0072844D03*
X0108750Y0076781D03*
X0108750Y0080719D03*
X0108750Y0084656D03*
X0150750Y0084656D03*
X0150750Y0080719D03*
X0150750Y0076781D03*
X0150750Y0072844D03*
X0210750Y0072844D03*
X0210750Y0076781D03*
X0210750Y0080719D03*
X0210750Y0084656D03*
X0252750Y0084656D03*
X0252750Y0080719D03*
X0252750Y0076781D03*
X0252750Y0072844D03*
X0312750Y0072844D03*
X0312750Y0076781D03*
X0312750Y0080719D03*
X0312750Y0084656D03*
M02*
