G75*
%MOIN*%
%OFA0B0*%
%FSLAX25Y25*%
%IPPOS*%
%LPD*%
%AMOC8*
5,1,8,0,0,1.08239X$1,22.5*
%
%ADD10R,0.03300X0.05800*%
%ADD11C,0.00500*%
%ADD12R,0.05800X0.03300*%
%ADD13C,0.12800*%
%ADD14C,0.08200*%
D10*
X0051934Y0040060D03*
X0055934Y0040060D03*
X0059934Y0040060D03*
X0153934Y0040060D03*
X0157934Y0040060D03*
X0161934Y0040060D03*
X0255934Y0040060D03*
X0259934Y0040060D03*
X0263934Y0040060D03*
X0263934Y0142060D03*
X0259934Y0142060D03*
X0255934Y0142060D03*
X0161934Y0142060D03*
X0157934Y0142060D03*
X0153934Y0142060D03*
X0059934Y0142060D03*
X0055934Y0142060D03*
X0051934Y0142060D03*
X0051934Y0244060D03*
X0055934Y0244060D03*
X0059934Y0244060D03*
X0153934Y0244060D03*
X0157934Y0244060D03*
X0161934Y0244060D03*
X0255934Y0244060D03*
X0259934Y0244060D03*
X0263934Y0244060D03*
D11*
X0262684Y0243847D02*
X0257184Y0243847D01*
X0257184Y0243560D02*
X0262684Y0243560D01*
X0262684Y0244560D01*
X0257184Y0244560D01*
X0257184Y0243560D01*
X0257184Y0244345D02*
X0262684Y0244345D01*
X0299434Y0278310D02*
X0300434Y0278310D01*
X0300434Y0279810D01*
X0299434Y0279810D01*
X0299434Y0278310D01*
X0299434Y0278743D02*
X0300434Y0278743D01*
X0300434Y0279241D02*
X0299434Y0279241D01*
X0299434Y0279740D02*
X0300434Y0279740D01*
X0198434Y0279740D02*
X0197434Y0279740D01*
X0197434Y0279810D02*
X0197434Y0278310D01*
X0198434Y0278310D01*
X0198434Y0279810D01*
X0197434Y0279810D01*
X0197434Y0279241D02*
X0198434Y0279241D01*
X0198434Y0278743D02*
X0197434Y0278743D01*
X0160684Y0244560D02*
X0155184Y0244560D01*
X0155184Y0243560D01*
X0160684Y0243560D01*
X0160684Y0244560D01*
X0160684Y0244345D02*
X0155184Y0244345D01*
X0155184Y0243847D02*
X0160684Y0243847D01*
X0096434Y0278310D02*
X0095434Y0278310D01*
X0095434Y0279810D01*
X0096434Y0279810D01*
X0096434Y0278310D01*
X0096434Y0278743D02*
X0095434Y0278743D01*
X0095434Y0279241D02*
X0096434Y0279241D01*
X0096434Y0279740D02*
X0095434Y0279740D01*
X0058684Y0244560D02*
X0053184Y0244560D01*
X0053184Y0243560D01*
X0058684Y0243560D01*
X0058684Y0244560D01*
X0058684Y0244345D02*
X0053184Y0244345D01*
X0053184Y0243847D02*
X0058684Y0243847D01*
X0095434Y0177810D02*
X0095434Y0176310D01*
X0096434Y0176310D01*
X0096434Y0177810D01*
X0095434Y0177810D01*
X0095434Y0177545D02*
X0096434Y0177545D01*
X0096434Y0177046D02*
X0095434Y0177046D01*
X0095434Y0176548D02*
X0096434Y0176548D01*
X0058684Y0142560D02*
X0053184Y0142560D01*
X0053184Y0141560D01*
X0058684Y0141560D01*
X0058684Y0142560D01*
X0058684Y0142151D02*
X0053184Y0142151D01*
X0053184Y0141652D02*
X0058684Y0141652D01*
X0155184Y0141652D02*
X0160684Y0141652D01*
X0160684Y0141560D02*
X0160684Y0142560D01*
X0155184Y0142560D01*
X0155184Y0141560D01*
X0160684Y0141560D01*
X0160684Y0142151D02*
X0155184Y0142151D01*
X0197434Y0176310D02*
X0198434Y0176310D01*
X0198434Y0177810D01*
X0197434Y0177810D01*
X0197434Y0176310D01*
X0197434Y0176548D02*
X0198434Y0176548D01*
X0198434Y0177046D02*
X0197434Y0177046D01*
X0197434Y0177545D02*
X0198434Y0177545D01*
X0257184Y0142560D02*
X0257184Y0141560D01*
X0262684Y0141560D01*
X0262684Y0142560D01*
X0257184Y0142560D01*
X0257184Y0142151D02*
X0262684Y0142151D01*
X0262684Y0141652D02*
X0257184Y0141652D01*
X0299434Y0176310D02*
X0300434Y0176310D01*
X0300434Y0177810D01*
X0299434Y0177810D01*
X0299434Y0176310D01*
X0299434Y0176548D02*
X0300434Y0176548D01*
X0300434Y0177046D02*
X0299434Y0177046D01*
X0299434Y0177545D02*
X0300434Y0177545D01*
X0300434Y0075810D02*
X0299434Y0075810D01*
X0299434Y0074310D01*
X0300434Y0074310D01*
X0300434Y0075810D01*
X0300434Y0075350D02*
X0299434Y0075350D01*
X0299434Y0074852D02*
X0300434Y0074852D01*
X0300434Y0074353D02*
X0299434Y0074353D01*
X0262684Y0040560D02*
X0257184Y0040560D01*
X0257184Y0039560D01*
X0262684Y0039560D01*
X0262684Y0040560D01*
X0262684Y0040454D02*
X0257184Y0040454D01*
X0257184Y0039956D02*
X0262684Y0039956D01*
X0198434Y0074310D02*
X0198434Y0075810D01*
X0197434Y0075810D01*
X0197434Y0074310D01*
X0198434Y0074310D01*
X0198434Y0074353D02*
X0197434Y0074353D01*
X0197434Y0074852D02*
X0198434Y0074852D01*
X0198434Y0075350D02*
X0197434Y0075350D01*
X0160684Y0040560D02*
X0155184Y0040560D01*
X0155184Y0039560D01*
X0160684Y0039560D01*
X0160684Y0040560D01*
X0160684Y0040454D02*
X0155184Y0040454D01*
X0155184Y0039956D02*
X0160684Y0039956D01*
X0096434Y0074310D02*
X0096434Y0075810D01*
X0095434Y0075810D01*
X0095434Y0074310D01*
X0096434Y0074310D01*
X0096434Y0074353D02*
X0095434Y0074353D01*
X0095434Y0074852D02*
X0096434Y0074852D01*
X0096434Y0075350D02*
X0095434Y0075350D01*
X0058684Y0040560D02*
X0053184Y0040560D01*
X0053184Y0039560D01*
X0058684Y0039560D01*
X0058684Y0040560D01*
X0058684Y0040454D02*
X0053184Y0040454D01*
X0053184Y0039956D02*
X0058684Y0039956D01*
D12*
X0095934Y0073060D03*
X0095934Y0077060D03*
X0197934Y0077060D03*
X0197934Y0073060D03*
X0299934Y0073060D03*
X0299934Y0077060D03*
X0299934Y0175060D03*
X0299934Y0179060D03*
X0197934Y0179060D03*
X0197934Y0175060D03*
X0095934Y0175060D03*
X0095934Y0179060D03*
X0095934Y0277060D03*
X0095934Y0281060D03*
X0197934Y0281060D03*
X0197934Y0277060D03*
X0299934Y0277060D03*
X0299934Y0281060D03*
D13*
X0015934Y0015060D03*
X0095934Y0015060D03*
X0117934Y0015060D03*
X0197934Y0015060D03*
X0219934Y0015060D03*
X0299934Y0015060D03*
X0299934Y0117060D03*
X0219934Y0117060D03*
X0197934Y0117060D03*
X0117934Y0117060D03*
X0095934Y0117060D03*
X0015934Y0117060D03*
X0015934Y0219060D03*
X0095934Y0219060D03*
X0117934Y0219060D03*
X0197934Y0219060D03*
X0219934Y0219060D03*
X0299934Y0219060D03*
D14*
X0279934Y0214060D03*
X0269934Y0214060D03*
X0259934Y0214060D03*
X0249934Y0214060D03*
X0239934Y0214060D03*
X0177934Y0214060D03*
X0167934Y0214060D03*
X0157934Y0214060D03*
X0147934Y0214060D03*
X0137934Y0214060D03*
X0075934Y0214060D03*
X0065934Y0214060D03*
X0055934Y0214060D03*
X0045934Y0214060D03*
X0035934Y0214060D03*
X0035934Y0112060D03*
X0045934Y0112060D03*
X0055934Y0112060D03*
X0065934Y0112060D03*
X0075934Y0112060D03*
X0137934Y0112060D03*
X0147934Y0112060D03*
X0157934Y0112060D03*
X0167934Y0112060D03*
X0177934Y0112060D03*
X0239934Y0112060D03*
X0249934Y0112060D03*
X0259934Y0112060D03*
X0269934Y0112060D03*
X0279934Y0112060D03*
X0279934Y0010060D03*
X0269934Y0010060D03*
X0259934Y0010060D03*
X0249934Y0010060D03*
X0239934Y0010060D03*
X0177934Y0010060D03*
X0167934Y0010060D03*
X0157934Y0010060D03*
X0147934Y0010060D03*
X0137934Y0010060D03*
X0075934Y0010060D03*
X0065934Y0010060D03*
X0055934Y0010060D03*
X0045934Y0010060D03*
X0035934Y0010060D03*
M02*
