%
M48
M72
T01C0.0120
T02C0.0400
T03C0.1200
%
T01
X5875Y5875
X6875Y5675
X6875Y6375
X5675Y6975
X4375Y7675
X5425Y8475
X5625Y8975
X6375Y8725
X6775Y9175
X4615Y8875
X3625Y9575
X4075Y11625
X4825Y11725
X9075Y8475
X9775Y8475
X10275Y8425
X10375Y7025
X10375Y6635
X9125Y7275
X8875Y6375
X11025Y9875
X10925Y10625
X12625Y10075
X13825Y9575
X14815Y8875
X15625Y8475
X15825Y8975
X16575Y8725
X16975Y9175
X15875Y6975
X16075Y5875
X17075Y5675
X17075Y6375
X19075Y6375
X19325Y7275
X20475Y8425
X19975Y8475
X19275Y8475
X20575Y7025
X20575Y6635
X21225Y9875
X21125Y10625
X22825Y10075
X24025Y9575
X25015Y8875
X25825Y8475
X26025Y8975
X26775Y8725
X27175Y9175
X29475Y8475
X30175Y8475
X30675Y8425
X30775Y7025
X30775Y6635
X29525Y7275
X29275Y6375
X27275Y6375
X27275Y5675
X26275Y5875
X26075Y6975
X24775Y7675
X24475Y11625
X25225Y11725
X27275Y15875
X27275Y16575
X26275Y16075
X26075Y17175
X24775Y17875
X25015Y19075
X25825Y18675
X26025Y19175
X26775Y18925
X27175Y19375
X29475Y18675
X30175Y18675
X30675Y18625
X29525Y17475
X29275Y16575
X30775Y16835
X30775Y17225
X31425Y20075
X31325Y20825
X33025Y20275
X27275Y26075
X27275Y26775
X26275Y26275
X26075Y27375
X24775Y28075
X25015Y29275
X25825Y28875
X26025Y29375
X26775Y29125
X27175Y29575
X29475Y28875
X30175Y28875
X30675Y28825
X30775Y27425
X30775Y27035
X29525Y27675
X29275Y26775
X31425Y30275
X31325Y31025
X33025Y30475
X25225Y32125
X24475Y32025
X22825Y30475
X24025Y29975
X21225Y30275
X21125Y31025
X20475Y28825
X19975Y28875
X19275Y28875
X19325Y27675
X19075Y26775
X20575Y27035
X20575Y27425
X17075Y26775
X17075Y26075
X16075Y26275
X15875Y27375
X14575Y28075
X15625Y28875
X15825Y29375
X16575Y29125
X16975Y29575
X14815Y29275
X13825Y29975
X12625Y30475
X11025Y30275
X10925Y31025
X10275Y28825
X9775Y28875
X9075Y28875
X9125Y27675
X8875Y26775
X10375Y27035
X10375Y27425
X6875Y26775
X6875Y26075
X5875Y26275
X5675Y27375
X4375Y28075
X5425Y28875
X5625Y29375
X6375Y29125
X6775Y29575
X4615Y29275
X3625Y29975
X4075Y32025
X4825Y32125
X14275Y32025
X15025Y32125
X15025Y21925
X14275Y21825
X12625Y20275
X13825Y19775
X14815Y19075
X15625Y18675
X15825Y19175
X16575Y18925
X16975Y19375
X14575Y17875
X15875Y17175
X16075Y16075
X17075Y15875
X17075Y16575
X19075Y16575
X19325Y17475
X19275Y18675
X19975Y18675
X20475Y18625
X20575Y17225
X20575Y16835
X24025Y19775
X22825Y20275
X21225Y20075
X21125Y20825
X24475Y21825
X25225Y21925
X15025Y11725
X14275Y11625
X14575Y7675
X6875Y15875
X6875Y16575
X5875Y16075
X5675Y17175
X4375Y17875
X5425Y18675
X5625Y19175
X6375Y18925
X6775Y19375
X4615Y19075
X3625Y19775
X4075Y21825
X4825Y21925
X9075Y18675
X9775Y18675
X10275Y18625
X9125Y17475
X8875Y16575
X10375Y16835
X10375Y17225
X11025Y20075
X10925Y20825
X31325Y10625
X31425Y9875
X33025Y10075
T02
X30275Y13575
X29275Y13575
X28275Y13575
X27275Y13575
X26275Y13575
X20075Y13575
X19075Y13575
X18075Y13575
X17075Y13575
X16075Y13575
X9875Y13575
X8875Y13575
X7875Y13575
X6875Y13575
X5875Y13575
X5875Y3375
X6875Y3375
X7875Y3375
X8875Y3375
X9875Y3375
X16075Y3375
X17075Y3375
X18075Y3375
X19075Y3375
X20075Y3375
X26275Y3375
X27275Y3375
X28275Y3375
X29275Y3375
X30275Y3375
X30275Y23775
X29275Y23775
X28275Y23775
X27275Y23775
X26275Y23775
X20075Y23775
X19075Y23775
X18075Y23775
X17075Y23775
X16075Y23775
X9875Y23775
X8875Y23775
X7875Y23775
X6875Y23775
X5875Y23775
T03
X3875Y3875
X11875Y3875
X14075Y3875
X22075Y3875
X24275Y3875
X32275Y3875
X32275Y14075
X24275Y14075
X22075Y14075
X14075Y14075
X11875Y14075
X3875Y14075
X3875Y24275
X11875Y24275
X14075Y24275
X22075Y24275
X24275Y24275
X32275Y24275
M30
